<svg width="161" height="160" viewBox="0 0 161 160" fill="none" xmlns="http://www.w3.org/2000/svg">
<mask id="mask0_235_2774" style="mask-type:alpha" maskUnits="userSpaceOnUse" x="0" y="0" width="160" height="160">
<circle cx="80.2377" cy="79.7377" r="79.7377" fill="#D9D9D9"/>
</mask>
<g mask="url(#mask0_235_2774)">
<path d="M123.951 145.569C123.585 145.83 123.167 146.092 122.801 146.353C122.383 146.614 122.017 146.876 121.598 147.085C121.232 147.294 120.919 147.503 120.553 147.713C120.5 147.765 120.448 147.765 120.396 147.817C119.193 148.549 117.938 149.229 116.683 149.856C116.317 150.065 115.899 150.275 115.533 150.431C115.533 150.431 115.481 150.484 115.429 150.484C115.01 150.693 114.592 150.902 114.174 151.111C113.337 151.53 112.448 151.896 111.612 152.262C111.193 152.471 110.723 152.628 110.304 152.784C109.886 152.941 109.415 153.15 108.997 153.307C108.579 153.464 108.108 153.673 107.69 153.83C107.69 153.83 107.69 153.83 107.638 153.83C107.219 153.987 106.749 154.144 106.331 154.301C105.389 154.614 104.396 154.928 103.455 155.242C103.141 155.347 102.775 155.451 102.461 155.556C101.468 155.869 100.474 156.131 99.4809 156.34C99.1148 156.445 98.7488 156.497 98.3305 156.601C97.3894 156.811 96.3959 157.02 95.4547 157.229C95.2456 157.281 95.0887 157.281 94.8795 157.333C94.5658 157.386 94.1998 157.438 93.8861 157.49C93.4155 157.543 92.9972 157.647 92.5266 157.699C92.3175 157.752 92.1083 157.752 91.8992 157.804C91.6377 157.856 91.324 157.909 91.0103 157.909C90.1737 158.013 89.2848 158.118 88.4482 158.222C88.1867 158.275 87.873 158.275 87.6116 158.327H87.5593C87.1933 158.379 86.8273 158.379 86.4612 158.431C86.0952 158.484 85.7292 158.484 85.3632 158.484C85.1541 158.484 84.8926 158.536 84.6835 158.536C84.2652 158.536 83.8992 158.588 83.5331 158.588C83.0103 158.588 82.5397 158.641 82.0168 158.641C81.4939 158.641 81.0233 158.641 80.5005 158.641C80.1344 158.641 79.7684 158.641 79.4024 158.641C57.3371 158.327 37.5201 148.967 23.3501 134.118C23.3501 134.118 23.3501 134.065 23.2979 134.065C21.7292 132.654 23.0887 125.124 29.4155 120.366C37.3632 114.353 56.3959 110.588 56.3959 110.588C56.3959 110.588 63.7684 109.386 91.1148 115.085C107.115 118.431 119.298 123.294 126.095 136.471C127.507 139.19 128.919 143.373 123.951 145.569Z" fill="white"/>
<path d="M91.2715 114.51C101.311 116.549 112.03 118.745 120.291 125.386C123.062 127.634 124.892 130.928 126.409 134.118C127.141 135.687 127.873 137.307 128.448 139.033C128.762 140.183 129.232 141.49 128.971 142.85C128.919 143.216 128.605 143.687 128.343 143.948C127.141 145.151 125.834 145.883 124.526 146.824C116.84 152.157 108.003 155.922 98.8532 157.909C78.461 162.353 56.3956 158.902 38.461 148.183C32.5002 144.575 27.01 140.183 22.3041 135.007C21.7812 134.379 21.7812 133.334 21.7812 132.654C21.8335 131.085 22.2518 129.569 22.7747 128.157C24.0296 124.915 25.6505 121.673 28.4218 119.425C30.4087 118.066 32.5525 116.915 34.7486 115.974C41.6505 113.046 48.9185 111.007 56.3956 110.17C57.0231 110.118 57.1277 111.007 56.5002 111.111C49.3368 112.575 42.2257 114.771 35.5852 117.752C33.1799 118.955 30.6179 120 28.6832 121.883C26.8531 123.87 25.546 126.327 24.5002 128.837C23.8205 130.353 23.3499 132.758 23.559 133.961C26.8531 137.883 30.7224 141.334 34.9054 144.314C57.8074 160.314 92.5786 161.36 116.945 148.026C119.141 146.824 121.285 145.464 123.324 144.053C124.317 143.373 125.363 142.798 126.147 142.013C126.2 141.961 126.147 142.013 126.147 142.066C126.147 142.118 126.095 142.17 126.095 142.17C126.147 141.543 125.938 140.706 125.677 139.87C124.736 136.837 123.219 133.647 121.598 130.876C119.036 126.745 114.696 124.131 110.304 122.039C107.271 120.628 104.082 119.53 100.84 118.484C97.5982 117.438 94.3041 116.549 91.01 115.765C90.1734 115.556 90.4349 114.353 91.2715 114.51Z" fill="black"/>
<path d="M141.31 177.987H9.07422C9.07422 177.987 15.2442 158.013 19.8977 139.555C21.7278 132.34 25.1265 122.51 29.3095 119.634C35.0611 115.66 44.5775 113.411 48.8651 111.895C51.8455 110.849 54.1461 110.483 56.2899 109.908C56.2899 110.17 56.3422 110.379 56.3422 110.64C56.3422 110.64 61.1004 121.307 75.7932 127.215C87.767 132.078 91.95 130.144 93.0481 124.758C93.7278 121.307 95.4533 120.523 94.3553 118.693C93.7278 118.17 93.3095 117.385 93.1004 116.601L92.6821 114.876C93.6755 114.666 94.6167 114.405 95.5579 114.091C95.8716 113.987 96.133 113.882 96.4468 113.777C102.251 117.072 110.251 118.117 119.924 125.228C121.649 126.483 126.669 131.921 128.76 145.15C131.689 162.562 141.31 177.987 141.31 177.987Z" fill="black"/>
<path d="M142.251 178.509C102.983 178.666 47.7674 179.189 9.0746 179.085C8.44715 179.085 7.97656 178.614 7.97656 177.987C9.4929 171.503 11.9504 162.143 13.6236 155.607C14.9308 150.326 16.5517 144.418 17.8589 139.085C19.7413 132.13 22.0942 123.085 28.0027 118.483C29.9373 117.228 32.0811 116.339 34.1204 115.555C38.6171 113.882 43.2184 112.627 47.8197 111.215C50.4341 110.222 53.3622 109.594 56.0811 108.81C56.6563 108.653 57.2315 108.967 57.3883 109.49C57.4406 109.647 57.4406 110.326 57.4929 110.483L56.3949 109.49C56.8132 109.49 57.2315 109.751 57.3883 110.117C57.8066 111.006 58.3818 111.947 58.957 112.784C64.4994 120.784 73.4406 125.908 82.7478 128.313C85.4145 128.888 88.97 129.568 90.9047 127.215C92.1596 125.594 92.1073 123.085 93.1008 121.307C93.4668 120.47 93.8851 119.947 93.4668 119.215L93.6759 119.477C92.9962 118.849 92.4733 118.065 92.2119 117.228C92.0027 116.444 91.8458 115.764 91.689 115.085C91.5321 114.509 91.9504 113.882 92.5256 113.777C93.7282 113.516 94.9831 113.15 96.1334 112.732C96.4472 112.627 96.7609 112.679 97.0223 112.784C98.5387 113.464 100.107 114.039 101.728 114.614C106.8 116.235 111.872 117.96 116.526 120.627C118.094 121.516 119.611 122.509 121.075 123.555C122.8 124.862 123.898 126.326 124.996 128.052C128.97 134.274 130.225 141.438 131.532 148.549C133.519 157.751 136.97 166.64 141.048 175.111L141.624 176.261L141.885 176.836L142.042 177.098L142.094 177.254L142.147 177.307C142.147 177.254 142.199 177.359 142.251 177.516C142.46 177.882 142.408 178.3 142.251 178.509ZM140.369 177.464C140.212 177.673 140.16 178.039 140.264 178.3C140.316 178.457 140.369 178.562 140.369 178.509L140.316 178.457L140.212 178.3L140.055 178.039C136.604 172.13 133.728 165.908 131.48 159.477C130.016 155.294 128.813 151.058 128.029 146.666C127.088 140.862 125.624 134.797 122.486 129.777C121.65 128.47 120.604 127.058 119.349 126.117C117.937 125.124 116.526 124.13 115.062 123.294C112.133 121.516 108.996 120.104 105.807 118.849C102.617 117.542 99.2184 116.549 96.0289 114.719L96.9177 114.771C95.6628 115.241 94.3556 115.607 92.9962 115.869L93.8328 114.562C94.1465 115.712 94.1988 117.071 95.14 117.856C95.7151 118.483 95.9766 119.581 95.8197 120.47C95.6628 121.254 95.3491 121.777 95.14 122.248C94.6694 123.241 94.3557 124.078 94.1465 125.176C92.3164 134.274 81.8066 130.771 75.8458 128.418C67.4798 125.071 59.689 119.215 55.4537 111.111L56.4472 111.738C55.872 111.738 55.4014 111.32 55.3491 110.745L55.2968 110.065L56.6563 111.006C53.7282 111.529 51.1138 111.947 48.3949 112.941C42.1726 114.875 35.5321 116.496 30.1465 120.209C24.5517 124.287 21.3622 138.771 19.5844 145.464C17.6498 152.836 15.6105 160.156 13.4668 167.424C12.3687 171.085 11.2707 174.692 10.1204 178.353L9.0746 176.941C47.0354 176.888 101.885 177.15 140.369 177.464Z" fill="black"/>
<path d="M88.29 131.137C88.3423 131.189 88.3423 131.189 88.3946 131.241C88.3946 131.189 88.3946 131.137 88.3946 131.137C88.3946 131.137 88.3423 131.137 88.29 131.137Z" fill="white"/>
<path d="M100.787 111.738C100.787 111.738 100.787 106.718 96.3946 105.411C88.29 102.954 72.9698 101.855 62.7214 101.855C62.7214 101.855 58.3815 102.169 56.8129 102.954C55.2966 103.686 53.4665 104.156 53.0482 107.555C52.8391 109.228 52.8391 111.895 52.8914 114.248C52.9436 117.385 54.1985 120.418 56.3946 122.666C59.8979 126.274 67.1659 130.98 75.4796 132.391C95.5057 135.738 100.944 127.006 100.787 122.352C100.578 116.967 100.787 111.738 100.787 111.738Z" fill="black"/>
<path d="M99.6888 111.686C99.5842 109.438 98.3816 107.032 96.081 106.405C95.3489 106.196 94.6169 105.987 93.9372 105.83C83.7411 103.581 73.179 103.058 62.7215 102.902C61.362 103.058 58.7476 103.268 57.2313 103.895C56.6038 104.209 55.8195 104.523 55.2967 104.941C54.094 105.987 54.0418 107.817 53.9895 109.438C53.9372 110.379 53.9372 111.32 53.9372 112.261C53.6235 118.64 56.447 122.039 61.5189 125.438C65.3359 128.052 69.6235 129.934 74.1725 130.98C80.3947 132.183 87.2967 132.758 93.2574 130.353C96.3947 129.098 99.3228 126.431 99.6888 122.98C99.7411 122.248 99.6888 120.993 99.6888 120.261C99.5842 117.542 99.5842 114.457 99.6888 111.686ZM101.833 111.738C101.78 114.509 101.78 117.49 101.833 120.261C101.833 121.15 101.937 122.405 101.833 123.241C101.362 127.634 97.8587 130.928 94.0418 132.496C88.0287 135.006 81.3359 134.588 75.0614 133.594C73.7019 133.333 72.0287 132.967 70.7215 132.549C65.0744 130.719 59.7934 127.79 55.5581 123.607C52.5254 120.627 51.3751 116.444 51.6365 112.313C51.7934 109.281 51.2705 105.673 53.7803 103.32C54.5646 102.692 55.3489 102.326 56.1855 101.96C58.3293 101.124 60.4208 100.967 62.6169 100.758C69.6757 100.81 76.7346 101.176 83.7934 102.013C87.9764 102.536 92.2117 103.111 96.2901 104.313L96.6039 104.418L96.9699 104.575C98.7999 105.464 99.5842 107.398 100.63 108.967C101.31 109.804 101.78 110.692 101.833 111.738Z" fill="black"/>
<path d="M53.2575 114.195C54.4078 130.98 80.2902 148.914 95.6627 139.607C99.6889 136.888 100.787 131.712 100.682 127.163C100.682 125.594 100.525 124.025 100.421 122.404C100.369 122.038 100.996 121.934 101.048 122.3C103.244 131.084 102.146 140.81 91.898 143.424C77.5189 146.927 61.2052 136.365 54.8784 123.712C53.4144 120.784 52.4732 117.542 52.4209 114.3C52.4732 113.777 53.2052 113.672 53.2575 114.195Z" fill="white"/>
<path d="M96.186 128.419C95.088 133.804 87.9769 137.046 76.003 132.183C63.5586 127.164 58.173 115.19 56.8135 111.634C64.186 97.8303 59.0618 88.2617 59.0618 88.2617C76.0553 86.7976 90.905 106.667 90.905 106.667L93.2056 116.497C93.4148 117.334 93.8331 118.066 94.4605 118.588C95.5586 120.523 96.8658 124.968 96.186 128.419Z" fill="white"/>
<path d="M56.5523 111.791C57.5458 110.275 58.1732 108.497 58.5915 106.772C59.3758 103.164 59.6373 99.5035 59.6896 95.8434V94.4839C59.5327 93.1244 59.0621 91.7127 58.5392 90.4578C57.8595 88.7846 60.317 87.7388 61.1013 89.412C61.2059 89.6212 61.2059 89.9872 61.2059 90.1963C61.3628 97.3075 61.6765 106.458 57.1798 112.366C56.866 112.68 56.2386 112.209 56.5523 111.791Z" fill="black"/>
<path d="M91.4807 106.562C92.265 107.033 92.5265 107.66 92.631 108.287C92.9448 109.542 92.8402 110.902 93.1539 112.209C93.4153 113.464 94.1997 114.667 94.4088 115.974C94.6702 117.333 95.4546 120.209 95.7683 121.621C95.8729 121.934 95.6637 122.3 95.2977 122.353C95.0885 122.405 94.9317 122.353 94.7748 122.248C94.0951 121.673 93.7814 121.098 93.3631 120.366C92.6833 119.111 92.2127 117.961 91.7944 116.549C91.4284 115.294 91.5853 113.934 91.2716 112.627C91.0101 111.372 90.2781 110.17 90.0166 108.863C89.8598 108.235 89.8075 107.555 90.2781 106.771C90.5918 106.457 91.1147 106.353 91.4807 106.562Z" fill="black"/>
<path d="M95.2448 120.366C85.2579 119.843 77.101 116.706 69.1533 102.536C75.8461 108.445 83.7416 110.693 92.0553 111.739L93.1533 116.549C93.3625 117.386 94.6174 119.843 95.2448 120.366Z" fill="black"/>
<path d="M94.8268 118.432C96.6046 121.778 97.6504 125.961 96.5523 129.674C95.7157 132.288 93.3105 134.223 90.6961 134.955C84.6307 136.576 77.6242 134.014 72.2386 131.138C65.5981 127.425 60.683 121.203 57.5458 114.406C57.3366 113.883 58.0687 113.464 58.3824 113.987C59.4804 116.183 60.7353 118.327 62.1471 120.262C63.5589 122.249 65.1798 124.079 67.0098 125.7C72.3432 130.51 79.5589 133.491 86.7745 133.491C94.1994 133.281 97.0229 129.36 95.2974 122.144C95.036 120.994 94.6177 119.791 94.0425 118.798C93.7288 118.38 94.5131 117.909 94.8268 118.432Z" fill="black"/>
<path d="M115.062 55.6345C116.003 60.0267 116.474 63.5822 113.912 75.2947C111.402 86.9548 116.265 98.7195 103.925 109.438C95.6112 116.654 81.0753 118.014 69.4674 110.118C65.5459 107.452 64.5001 95.0071 61.4151 90.2489C60.1079 88.262 59.3236 91.4515 56.3432 88.1574C52.2125 83.6607 47.2452 74.6149 49.7027 58.6149C53.6766 32.6803 74.2256 29.6476 89.4413 32.5234C104.709 35.3992 112.552 44.079 115.062 55.6345Z" fill="white"/>
<path d="M58.905 92.7585C57.7024 90.7716 56.1861 89.0461 54.7743 87.216C52.6828 84.3925 51.1142 81.1507 50.0684 77.8043C45.5717 63.4775 47.9769 44.8108 61.258 35.8696C73.5455 27.5559 97.0227 30.0657 107.794 40.1049C113.18 44.9677 116.16 52.0265 116.787 59.1376C117.101 63.8958 115.951 68.4971 114.957 73.0984C113.807 77.5951 113.546 82.0918 113.546 86.7454C113.493 91.399 113.284 96.2618 111.506 100.654C108.787 107.347 103.088 112.785 96.2384 115.085C87.2449 118.223 76.6305 116.445 69.258 110.432C68.9442 110.17 69.258 109.752 69.624 109.909C79.2972 115.399 92.0031 116.34 101.415 110.013C107.01 106.249 110.879 100.288 111.768 93.5951C112.5 89.0461 112.291 84.4448 112.709 79.8435C112.866 77.8043 113.441 74.9807 113.859 72.9415C114.487 69.5428 114.905 66.1441 114.853 62.7454C114.8 59.399 114.068 56.1049 113.075 52.9154C109.624 41.569 99.7416 34.8762 88.3429 33.0461C71.2972 30.0657 56.3952 36.3925 51.9508 54.118C50.0161 62.7977 48.4998 72.3663 52.1599 80.7846C53.4671 83.9742 55.6109 86.6931 58.0684 89.0461L60.4736 91.6082C61.5194 92.6539 59.7416 94.0134 58.905 92.7585Z" fill="black"/>
<path d="M65.0744 76.1308C65.0744 76.1308 63.4535 68.2876 55.8195 69.2288C49.2313 70.0654 46.9306 85.8562 61.8849 90.2484" fill="white"/>
<path d="M61.206 83.3989C60.0034 82.7192 59.1668 81.5689 59.1145 80.1571C59.1668 79.1114 59.3237 77.9087 59.0622 76.863C58.9054 75.8695 57.8596 75.6081 57.0753 75.6604C56.2387 75.8172 55.7158 76.863 55.559 77.6996C55.559 77.7519 55.5067 77.9088 55.5067 77.961C55.4544 78.2225 55.0361 78.2225 54.9315 77.961C54.2518 75.9218 55.7681 73.6735 57.9642 73.9349C61.0492 74.144 61.4675 77.3859 60.8923 79.8434C60.5786 80.8891 60.9969 81.8303 61.572 82.7192L61.6766 82.8761C61.938 83.1898 61.5197 83.6081 61.206 83.3989Z" fill="black"/>
<path d="M103.036 70.5887C103.82 74.3011 105.284 77.7521 107.114 80.9939C108.735 84.9677 104.552 88.7324 100.84 88.5756C100.421 88.5756 100.369 88.0004 100.735 87.8958C103.088 87.1638 105.232 85.5952 105.598 83.19C105.755 82.4579 105.545 81.8305 105.179 81.203C103.454 77.9612 102.408 74.2488 102.67 70.5887C102.67 70.3272 103.036 70.3272 103.036 70.5887Z" fill="black"/>
<path d="M64.8133 76.1837C63.6107 73.0988 60.9963 70.1707 57.4931 70.2229C57.1794 70.1707 56.6565 70.2752 56.3428 70.2752C55.4539 70.3275 54.7218 70.6412 54.0421 71.2687C50.6957 74.6151 51.2709 80.5236 53.9898 84.236C54.931 85.5432 56.1336 86.6935 57.4931 87.6347C58.8526 88.5759 60.3689 89.3079 61.9898 89.9354C62.3558 90.0399 62.199 90.6151 61.833 90.5628C58.3297 89.8308 54.9833 88.1053 52.6826 85.2295C49.1271 80.9419 48.395 73.7785 52.6303 69.5955C53.5715 68.7589 54.8787 68.1314 56.1859 68.1314C56.6042 68.1314 57.2316 68.0269 57.6499 68.1314C59.846 68.236 61.9375 69.334 63.297 71.0595C64.4996 72.5236 65.1794 74.3014 65.3885 76.0792C65.3885 76.3929 64.9179 76.4974 64.8133 76.1837Z" fill="black"/>
<path d="M97.8596 93.5944C97.9119 95.3199 95.3498 99.7121 90.4347 97.6729C85.6766 95.7382 84.2648 86.6402 91.0622 90.9801C94.5132 93.2807 96.7092 93.6467 97.8596 93.5944Z" fill="white"/>
<path d="M98.9572 93.6468C97.5455 94.1174 96.186 93.6991 94.8788 93.2285C92.9442 92.5488 91.3755 91.2939 89.5455 90.405C87.0357 89.2024 86.0422 90.8233 86.7219 93.1762C87.4017 95.686 89.5978 97.8821 92.3167 97.9867C94.7219 98.2481 97.284 96.052 97.0749 93.5945C96.8657 92.5488 98.3821 92.235 98.6435 93.2285C98.5912 95.0063 97.4932 96.2612 96.3428 97.3069C94.0422 99.1893 90.5389 98.771 88.2383 97.0455C86.4605 95.6337 84.9964 93.3854 85.3102 90.9801C85.4147 89.9344 86.4082 88.7318 87.5062 88.6795C90.0683 88.4703 91.5847 90.1958 93.5716 91.3461C95.1402 92.235 96.918 93.3331 98.7481 93.1762C99.0618 93.0716 99.271 93.4899 98.9572 93.6468Z" fill="black"/>
<path d="M86.8267 91.7123C87.6633 92.915 88.9704 93.5424 90.3299 93.8561C90.6436 93.9607 90.9051 93.9607 91.1665 93.9607C91.6371 93.9607 92.1077 94.3267 92.3691 94.5882C93.624 95.5816 95.3495 95.7385 96.9181 95.7908C97.2842 95.7908 97.2842 96.4182 96.9181 96.3659C95.2449 96.2614 93.4672 96.1045 91.8985 95.3202C91.5848 95.2156 91.428 95.111 91.1665 95.111C90.1731 95.2156 89.3887 94.5882 88.6567 94.1699C87.8201 93.6993 86.9835 93.2287 85.99 93.0195C85.5195 92.915 85.258 92.4967 85.3103 92.0261C85.4149 91.294 86.4606 91.0849 86.8267 91.7123Z" fill="black"/>
<path d="M91.2192 65.0456C92.3695 65.2025 93.2584 63.9998 92.8401 62.8495C92.631 62.2221 92.2649 61.6469 91.6898 61.2809C89.912 60.1829 83.2715 60.0783 79.7682 62.5881C76.631 64.8887 85.9904 64.3136 91.2192 65.0456Z" fill="black"/>
<path d="M105.703 65.6212C104.761 65.6212 104.186 64.4186 104.657 63.4251C104.918 62.9022 105.284 62.4316 105.807 62.1702C107.428 61.3859 111.768 61.8565 113.703 64.5231C115.428 66.8761 110.042 65.5689 105.703 65.6212Z" fill="black"/>
<path d="M89.285 71.7906C86.6183 70.6403 83.5857 70.954 80.8144 71.5815C80.5007 71.6861 80.2916 71.2678 80.553 71.0586C82.9582 69.0717 87.5072 68.8102 89.4419 71.5292C89.5987 71.6338 89.4942 71.8429 89.285 71.7906Z" fill="black"/>
<path d="M109.834 72.8891C108.579 72.0002 106.749 72.1571 105.285 72.3139C104.762 72.3662 104.239 72.4708 103.664 72.6276C103.507 72.6799 103.35 72.4185 103.455 72.3139L103.559 72.2094C104.867 70.8499 106.906 70.5361 108.684 71.2159C109.311 71.4773 109.938 71.8433 110.252 72.5754C110.409 72.8368 110.043 73.0982 109.834 72.8891Z" fill="black"/>
<path d="M119.036 43.1896C122.748 29.7517 107.689 21.3334 103.663 27.3987C100.735 31.7909 89.4411 28.3922 72.2908 28.0785C55.1405 27.7125 50.5391 36.8105 50.33 46.5883C50.33 46.5883 42.8006 50.5621 43.2712 64.5752C43.7418 79.1112 58.696 90.8236 60.5261 98.1961C60.5261 98.1961 60.7352 99.1373 58.7483 89.0458C47.3496 83.5556 49.7548 70.0131 55.8725 69.2288C60.5261 68.6536 62.9836 71.3726 64.1339 73.5687C64.6045 74.1961 69.049 79.634 69.1535 61.8563C69.2058 49.7255 81.0228 45.7517 94.4607 50.6667C101.467 53.2288 108.84 55.1112 113.912 51.451C114.748 53.8563 115.637 56.5229 114.957 59.7648C116.997 57.8824 118.722 55.1112 119.193 51.7125C119.506 49.6732 118.984 47.8955 117.833 46.3268C118.304 45.438 118.722 44.3399 119.036 43.1896Z" fill="black"/>
<path d="M151.193 44.078C182.931 105.202 127.14 174.17 60.6304 157.333C30.7742 149.908 6.7742 124.026 1.80688 93.6466C-3.84018 63.4244 9.80688 30.9538 35.3232 13.8558C70.3036 -10.1965 118.774 -2.19651 143.82 32.2087C143.977 32.3656 143.925 32.627 143.715 32.7839C143.559 32.9408 143.297 32.8885 143.14 32.6793C139.689 28.2349 135.768 24.2087 131.48 20.6009C124.421 14.5878 116.16 9.88193 107.428 6.69238C62.9833 -9.41219 14.199 17.359 4.47355 63.8427C-6.50685 115.921 37.7807 163.869 90.5912 156.705C131.323 151.581 161.598 113.987 158.251 73.0976C157.519 63.2153 154.905 53.4375 150.565 44.444C150.46 44.2872 150.565 44.078 150.722 43.9734C150.879 43.8689 151.088 43.9211 151.193 44.078Z" fill="black"/>
</g>
</svg>
