<svg width="161" height="160" viewBox="0 0 161 160" fill="none" xmlns="http://www.w3.org/2000/svg">
<mask id="mask0_235_2789" style="mask-type:alpha" maskUnits="userSpaceOnUse" x="0" y="0" width="160" height="160">
<circle cx="80.2377" cy="79.7377" r="79.7377" fill="#D9D9D9"/>
</mask>
<g mask="url(#mask0_235_2789)">
<path d="M123.951 145.569C123.585 145.83 123.167 146.092 122.801 146.353C122.383 146.614 122.017 146.876 121.598 147.085C121.232 147.294 120.919 147.503 120.553 147.713C120.5 147.765 120.448 147.765 120.396 147.817C119.193 148.549 117.938 149.229 116.683 149.856C116.317 150.065 115.899 150.275 115.533 150.431C115.533 150.431 115.481 150.484 115.429 150.484C115.01 150.693 114.592 150.902 114.174 151.111C113.337 151.53 112.448 151.896 111.612 152.262C111.193 152.471 110.723 152.628 110.304 152.784C109.886 152.941 109.415 153.15 108.997 153.307C108.579 153.464 108.108 153.673 107.69 153.83C107.69 153.83 107.69 153.83 107.638 153.83C107.219 153.987 106.749 154.144 106.331 154.301C105.389 154.614 104.396 154.928 103.455 155.242C103.141 155.347 102.775 155.451 102.461 155.556C101.468 155.869 100.474 156.131 99.4809 156.34C99.1148 156.445 98.7488 156.497 98.3305 156.601C97.3894 156.811 96.3959 157.02 95.4547 157.229C95.2456 157.281 95.0887 157.281 94.8795 157.333C94.5658 157.386 94.1998 157.438 93.8861 157.49C93.4155 157.543 92.9972 157.647 92.5266 157.699C92.3175 157.752 92.1083 157.752 91.8992 157.804C91.6377 157.856 91.324 157.909 91.0103 157.909C90.1737 158.013 89.2848 158.118 88.4482 158.222C88.1867 158.275 87.873 158.275 87.6116 158.327H87.5593C87.1933 158.379 86.8273 158.379 86.4612 158.431C86.0952 158.484 85.7292 158.484 85.3632 158.484C85.1541 158.484 84.8926 158.536 84.6835 158.536C84.2652 158.536 83.8992 158.588 83.5331 158.588C83.0103 158.588 82.5397 158.641 82.0168 158.641C81.4939 158.641 81.0233 158.641 80.5005 158.641C80.1344 158.641 79.7684 158.641 79.4024 158.641C57.3371 158.327 37.5201 148.967 23.3501 134.118C23.3501 134.118 23.3501 134.065 23.2979 134.065C21.7292 132.654 23.0887 125.124 29.4155 120.366C37.3632 114.353 56.3959 110.588 56.3959 110.588C56.3959 110.588 63.7684 109.386 91.1148 115.085C107.115 118.431 119.298 123.294 126.095 136.471C127.507 139.19 128.919 143.373 123.951 145.569Z" fill="white"/>
<path d="M91.2715 114.51C101.311 116.549 112.03 118.745 120.291 125.386C123.062 127.634 124.892 130.928 126.409 134.118C127.141 135.687 127.873 137.307 128.448 139.033C128.762 140.183 129.232 141.49 128.971 142.85C128.919 143.216 128.605 143.687 128.343 143.948C127.141 145.151 125.834 145.883 124.526 146.824C116.84 152.157 108.003 155.922 98.8532 157.909C78.461 162.353 56.3956 158.902 38.461 148.183C32.5002 144.575 27.01 140.183 22.3041 135.007C21.7812 134.379 21.7812 133.334 21.7812 132.654C21.8335 131.085 22.2518 129.569 22.7747 128.157C24.0296 124.915 25.6505 121.673 28.4218 119.425C30.4087 118.066 32.5525 116.915 34.7486 115.974C41.6505 113.046 48.9185 111.007 56.3956 110.17C57.0231 110.118 57.1277 111.007 56.5002 111.111C49.3368 112.575 42.2257 114.771 35.5852 117.752C33.1799 118.955 30.6179 120 28.6832 121.883C26.8531 123.87 25.546 126.327 24.5002 128.837C23.8205 130.353 23.3499 132.758 23.559 133.961C26.8531 137.883 30.7224 141.334 34.9054 144.314C57.8074 160.314 92.5786 161.36 116.945 148.026C119.141 146.824 121.285 145.464 123.324 144.053C124.317 143.373 125.363 142.798 126.147 142.013C126.2 141.961 126.147 142.013 126.147 142.066C126.147 142.118 126.095 142.17 126.095 142.17C126.147 141.543 125.938 140.706 125.677 139.87C124.736 136.837 123.219 133.647 121.598 130.876C119.036 126.745 114.696 124.131 110.304 122.039C107.271 120.628 104.082 119.53 100.84 118.484C97.5982 117.438 94.3041 116.549 91.01 115.765C90.1734 115.556 90.4349 114.353 91.2715 114.51Z" fill="black"/>
<path d="M48.5527 101.281C48.5527 101.281 53.4155 100.13 55.4547 99.9736L56.0821 105.673C56.0821 105.621 48.605 102.745 48.5527 101.281Z" fill="black"/>
<path d="M131.324 177.987H9.0752C9.0752 177.987 16.866 161.307 19.585 142.483C21.4674 129.359 23.7157 122.3 30.67 118.117C38.5131 113.411 51.1667 111.268 56.2909 109.908C56.2909 110.17 56.3432 110.379 56.3432 110.64C56.3432 110.64 61.9902 127.425 76.683 133.385C88.6569 138.248 95.768 135.006 96.8661 129.621C97.5458 126.17 95.402 120.523 94.304 118.693C93.6765 118.17 93.2582 117.385 93.0491 116.601L92.6308 114.876C93.938 114.614 95.1928 114.248 96.3955 113.777C103.141 115.555 116.16 118.954 124.108 129.045C126.095 131.555 132.317 144.889 131.167 167.425C130.748 179.137 131.324 177.987 131.324 177.987Z" fill="black"/>
<path d="M34.9574 177.987L32.6045 158.588" stroke="white" stroke-width="3" stroke-miterlimit="10" stroke-linecap="round" stroke-linejoin="round"/>
<path d="M126.304 152C126.304 152 124.736 155.817 125.206 159.634C125.677 163.451 127.036 169.046 125.102 177.987" stroke="white" stroke-width="3" stroke-miterlimit="10" stroke-linecap="round" stroke-linejoin="round"/>
<path d="M72.7611 143.111C43.8461 134.745 36.5781 117.751 36.5781 117.751C36.5781 117.751 41.1271 114.928 43.2709 112C44.5781 110.222 56.3428 108.183 56.3428 108.183C56.552 110.431 56.3428 108.183 56.4997 110.64C56.4997 110.64 62.1468 127.424 76.8396 133.385C88.8134 138.248 95.9245 135.006 97.0226 129.621C97.7023 126.17 95.5585 120.522 94.4605 118.692C93.833 118.17 93.4147 117.385 93.2056 116.601L92.7873 114.875C95.7677 114.248 98.5912 113.098 101.049 111.581C101.153 111.738 101.206 111.895 101.258 112.052C102.356 114.719 105.702 117.124 105.702 117.124C112.657 133.647 102.199 151.634 72.7611 143.111Z" fill="black"/>
<path d="M107.794 116.392C107.794 116.392 110.199 115.242 112.604 115.503C115.01 115.765 126.461 125.02 127.559 126.954C128.709 128.889 128.657 135.059 127.297 135.843C125.938 136.628 125.153 134.902 125.153 134.902C125.153 134.902 126.147 129.255 125.049 128.209C123.951 127.164 113.336 118.275 112.97 118.222C112.604 118.17 110.617 119.843 110.617 119.843L107.794 116.392Z" fill="black"/>
<path d="M44.4214 113.203C44.4214 113.203 38.9835 110.432 36.9443 110.432C34.9051 110.432 23.0358 117.752 21.4149 121.569C19.794 125.386 21.99 133.072 21.99 133.072L24.8659 129.778C24.8659 129.778 24.0815 124.026 24.9181 121.935C25.7548 119.843 35.2188 113.673 36.0554 113.83C36.892 113.935 41.5456 116.915 41.5456 116.915L44.4214 113.203Z" fill="black"/>
<path d="M56.7617 123.294C61.7813 132.915 71.8205 145.725 88.6049 151.738C103.716 157.176 102.775 138.928 100.579 128C85.5199 131.294 70.4088 131.555 56.7617 123.294Z" fill="white"/>
<path d="M100.578 128.052C100.003 125.176 99.323 122.823 98.8524 121.516C97.8067 118.693 96.238 116.183 94.8263 114.301C94.1465 114.51 93.4668 114.667 92.7871 114.823L93.2054 116.549C93.4145 117.385 93.8328 118.117 94.4603 118.64C94.5648 118.85 94.7217 119.111 94.8786 119.425C83.0093 124.026 68.9962 117.961 68.9962 117.961C64.7609 117.751 65.0746 121.934 67.0616 126.902C59.5322 119.738 56.4472 110.64 56.4472 110.64C56.3426 109.072 56.238 107.555 56.0812 106.039C56.0812 106.039 52.2119 108.183 52.8916 112.993C53.2054 115.033 54.408 118.85 56.7609 123.294C70.408 131.555 85.5191 131.294 100.578 128.052Z" fill="white"/>
<path d="M100.369 127.895C100.212 127.634 100.16 127.477 100.055 127.163C99.4277 125.124 98.7479 122.98 97.8068 121.098C96.7087 118.902 95.297 116.915 93.7283 115.085L95.1924 115.555L93.0486 116.131L94.0943 114.51C94.1989 114.98 94.4604 116.078 94.5649 116.497C94.7218 117.124 95.1924 117.542 95.5584 118.013C95.5061 118.431 95.4538 118.85 95.3492 119.216C95.4538 119.529 95.3493 119.895 95.0355 120.052C93.5192 120.784 91.846 121.359 90.1728 121.725C84.0028 122.98 77.7283 121.569 71.8198 119.843C70.6695 119.477 69.6238 119.216 68.3689 119.32L68.8394 119.425C68.5257 119.425 68.1597 119.425 67.846 119.529C66.2774 120 67.0094 122.719 67.3231 124.026C67.5845 124.863 67.846 125.699 68.212 126.536C68.5257 127.216 68.1597 128 67.48 128.314C66.9571 128.523 66.4342 128.366 66.0682 128C64.8656 126.797 63.7153 125.595 62.6695 124.287C59.48 120.314 56.9702 115.974 55.1401 111.216L56.395 112.104C55.663 112.104 55.0878 111.529 55.0355 110.85L54.6695 106.301L56.6564 107.346C54.3035 108.758 53.6238 111.686 54.4081 114.196C55.1924 117.124 56.4473 120.052 57.8591 122.771L57.3362 122.248C70.0421 130.771 85.8852 131.451 100.369 127.895ZM100.787 128.157C99.0617 129.412 96.0813 130.457 93.8852 130.928C88.7087 132.078 83.2708 131.399 78.0943 130.562C76.4734 130.301 74.1205 129.987 72.4473 129.725L69.6761 129.15C65.9636 128.261 62.3035 127.059 58.7479 125.595L57.4408 125.02L56.0813 124.444C55.9244 124.392 55.7676 124.235 55.663 124.078C53.9375 120.732 52.3689 117.229 51.6368 113.464C50.9571 110.17 52.5257 106.562 55.4538 104.837C56.2904 104.366 57.3885 104.941 57.4408 105.882L57.8068 110.484C57.8068 110.484 56.4473 109.229 56.4996 109.229C57.0747 109.229 57.5976 109.595 57.7545 110.118C59.3754 114.51 61.8329 118.745 64.8133 122.405C65.8068 123.66 66.9048 124.758 68.0028 125.908L65.8591 127.372C64.8133 124.549 63.4015 120.941 65.2839 118.118C66.1728 116.967 67.6891 116.549 69.1009 116.601L69.5715 116.706C70.3035 117.647 71.3492 118.065 72.3427 118.379C77.4669 120.052 83.0094 120.366 88.395 119.948C90.5388 119.738 92.6303 119.32 94.7218 118.797L94.4081 119.634C94.0421 119.477 93.7283 119.372 93.3623 119.32L93.6238 119.634C92.6303 118.797 92.0028 117.386 91.7937 116.131L91.5323 115.085C91.3754 114.353 91.846 113.621 92.578 113.464L94.5126 112.993H94.6172C95.1401 112.837 95.7153 113.098 95.9767 113.516C98.0682 116.758 99.6368 120.418 100.317 124.235C100.526 125.124 100.63 126.118 100.787 127.059C100.735 127.372 100.787 127.843 100.787 128.157Z" fill="black"/>
<path d="M48.5527 101.281C48.5527 101.281 61.4678 101.7 71.2978 104.314C72.239 104.575 72.239 110.641 72.3436 111.634C72.7096 115.19 65.2848 121.255 66.1214 124.445C67.2194 128.575 96.8665 151.791 97.1279 154.51C97.3893 157.229 75.6377 156.549 62.7227 141.072C49.7553 125.595 50.7488 122.771 50.7488 122.771C50.7488 122.771 48.5527 107.922 48.5527 101.281Z" fill="black"/>
<path d="M106.539 106.876L109.885 108.288C110.931 108.706 111.454 109.909 111.088 111.007C109.572 115.608 105.807 127.059 105.65 131.033C105.441 136.052 95.0879 168.314 95.0879 168.314C95.0879 168.314 88.7611 160 93.4147 151.791C97.0749 145.307 97.284 131.451 96.918 129.621C96.4474 127.216 94.4605 121.569 93.3625 118.013C92.7873 116.079 92.6827 114.876 92.6827 114.876C92.6827 114.876 99.8984 113.673 106.539 106.876Z" fill="black"/>
<path d="M67.6374 115.451C68.4749 115.451 69.1538 114.678 69.1538 113.725C69.1538 112.773 68.4749 112 67.6374 112C66.8 112 66.1211 112.773 66.1211 113.725C66.1211 114.678 66.8 115.451 67.6374 115.451Z" fill="white"/>
<path d="M94.5655 150.274C94.1472 153.098 93.7289 155.974 93.9381 158.849C94.6178 163.085 94.8793 167.32 95.2453 171.555C95.2976 172.601 93.7812 172.706 93.6766 171.66C93.5198 167.425 93.4152 163.137 92.8923 158.902C92.7878 155.921 93.3106 152.993 93.8858 150.117C93.9904 149.751 94.6178 149.856 94.5655 150.274Z" fill="white"/>
<path d="M109.049 118.797C108.108 123.451 107.062 128.157 105.337 132.601C102.722 138.144 99.1666 143.163 96.1339 148.392C95.8725 148.863 95.1404 148.497 95.3496 148.026C97.8594 142.117 101.52 136.836 103.977 130.98C104.186 130.353 105.337 126.902 105.546 126.222C106.382 123.66 107.271 121.098 108.265 118.588C108.474 118.117 109.154 118.274 109.049 118.797Z" fill="black"/>
<path d="M101.833 149.49C102.786 149.49 103.558 148.718 103.558 147.765C103.558 146.812 102.786 146.039 101.833 146.039C100.88 146.039 100.107 146.812 100.107 147.765C100.107 148.718 100.88 149.49 101.833 149.49Z" fill="white"/>
<path d="M96.185 128.419C95.087 133.804 87.9759 137.046 76.002 132.183C63.5576 127.164 58.172 115.19 56.8125 111.634C64.185 97.8303 59.0609 88.2617 59.0609 88.2617C76.0543 86.7976 90.904 106.667 90.904 106.667L93.2047 116.497C93.4138 117.334 93.8321 118.066 94.4596 118.588C95.5576 120.523 96.8648 124.968 96.185 128.419Z" fill="white"/>
<path d="M56.5513 111.791C57.5448 110.275 58.1722 108.497 58.5905 106.772C59.3749 103.164 59.6363 99.5035 59.6886 95.8434V94.4839C59.5317 93.1244 59.0611 91.7127 58.5383 90.4578C57.8585 88.7846 60.316 87.7388 61.1003 89.412C61.2049 89.6212 61.2049 89.9872 61.2049 90.1963C61.3618 97.3075 61.6755 106.458 57.1788 112.366C56.8651 112.68 56.2376 112.209 56.5513 111.791Z" fill="black"/>
<path d="M91.4797 106.562C92.264 107.033 92.5255 107.66 92.6301 108.287C92.9438 109.542 92.8392 110.902 93.1529 112.209C93.4144 113.464 94.1987 114.667 94.4078 115.974C94.6693 117.333 95.4536 120.209 95.7673 121.621C95.8719 121.934 95.6627 122.3 95.2967 122.353C95.0876 122.405 94.9307 122.353 94.7738 122.248C94.0941 121.673 93.7804 121.098 93.3621 120.366C92.6823 119.111 92.2118 117.961 91.7935 116.549C91.4274 115.294 91.5843 113.934 91.2706 112.627C91.0091 111.372 90.2771 110.17 90.0157 108.863C89.8588 108.235 89.8065 107.555 90.2771 106.771C90.5908 106.457 91.1137 106.353 91.4797 106.562Z" fill="black"/>
<path d="M95.2438 120.366C85.2569 119.843 77.1001 116.706 69.1523 102.536C75.8452 108.445 83.7406 110.693 92.0543 111.739L93.1523 116.549C93.3615 117.386 94.6164 119.843 95.2438 120.366Z" fill="black"/>
<path d="M94.8258 118.432C96.6036 121.778 97.6494 125.961 96.5513 129.674C95.7147 132.288 93.3095 134.223 90.6951 134.955C84.6298 136.576 77.6232 134.014 72.2376 131.138C65.5971 127.425 60.6821 121.203 57.5448 114.406C57.3357 113.883 58.0677 113.464 58.3814 113.987C59.4794 116.183 60.7343 118.327 62.1461 120.262C63.5579 122.249 65.1788 124.079 67.0089 125.7C72.3422 130.51 79.5579 133.491 86.7736 133.491C94.1984 133.281 97.0219 129.36 95.2964 122.144C95.035 120.994 94.6167 119.791 94.0415 118.798C93.7278 118.38 94.5121 117.909 94.8258 118.432Z" fill="black"/>
<path d="M115.062 55.6341C116.003 60.0262 116.474 63.5818 113.911 75.2942C111.402 86.9543 117.519 89.3596 103.036 108.026C97.1271 115.66 82.8003 113.516 71.1925 105.621C67.2709 102.954 65.5977 96.1047 62.6696 91.2419C60.3689 87.4249 59.3232 91.3988 56.2905 88.1047C52.1598 83.6079 47.1925 74.5622 49.65 58.5622C53.6238 32.6275 74.1729 29.5949 89.3885 32.4707C104.709 35.3988 112.552 44.0785 115.062 55.6341Z" fill="white"/>
<path d="M58.9047 92.7585C57.7021 90.7192 56.1334 88.9415 54.6694 87.0591C53.2576 85.1245 52.1073 82.9807 51.1661 80.7846C44.9439 65.5166 47.3491 44.0264 62.6171 35.033C68.9439 31.3728 76.5779 30.4839 83.689 31.0591C98.9047 32.1572 112.865 39.1637 116.16 55.2683C117.937 62.3794 115.532 69.6996 114.173 76.6539C113.545 80.1049 114.068 83.6604 114.016 87.216C113.963 90.8238 112.97 94.4317 111.611 97.7781C110.774 100.079 109.31 102.118 107.794 104C105.284 107.033 102.774 110.118 99.5844 112.471C98.8524 112.994 97.5452 113.255 96.6563 113.36C94.1988 113.726 91.7936 113.83 89.336 113.673C79.7151 113.255 69.4145 108.602 65.5452 99.2944C65.3883 98.9284 65.9112 98.667 66.1204 98.9807C71.14 106.928 80.3426 110.85 89.4929 111.373C92.3164 111.53 95.1922 111.477 97.9635 110.902C99.323 110.223 100.526 109.02 101.676 107.922C104.499 105.098 107.375 102.066 109.414 98.6147C111.872 93.9611 113.231 88.8892 112.813 83.6081C112.709 81.2552 112.656 78.7977 113.127 76.4447C113.545 74.0918 114.068 71.8434 114.382 69.4382C114.696 67.1375 114.852 64.7846 114.852 62.4839C114.591 55.7389 112.395 48.7846 108.107 43.5558C98.6432 31.7911 76.2641 28.7062 63.6628 36.7585C55.7151 41.6735 52.0027 50.8761 50.8001 59.8173C48.97 70.5362 49.4929 81.0983 58.0158 88.8892L60.5256 91.5036C61.519 92.6539 59.7413 94.0134 58.9047 92.7585Z" fill="black"/>
<path d="M65.0744 76.1308C65.0744 76.1308 63.4535 68.2876 55.8195 69.2288C49.2313 70.0654 46.9306 85.8562 61.8849 90.2484" fill="white"/>
<path d="M61.205 83.3989C60.0024 82.7192 59.1658 81.5689 59.1135 80.1571C59.1658 79.1114 59.3227 77.9087 59.0612 76.863C58.9044 75.8695 57.8586 75.6081 57.0743 75.6604C56.2377 75.8172 55.7148 76.863 55.558 77.6996C55.558 77.7519 55.5057 77.9088 55.5057 77.961C55.4534 78.2225 55.0351 78.2225 54.9305 77.961C54.2508 75.9218 55.7671 73.6735 57.9632 73.9349C61.0482 74.144 61.4665 77.3859 60.8913 79.8434C60.5776 80.8891 60.9959 81.8303 61.5711 82.7192L61.6756 82.8761C61.9371 83.1898 61.5188 83.6081 61.205 83.3989Z" fill="black"/>
<path d="M103.036 70.5887C103.82 74.3011 105.284 77.7521 107.114 80.9939C108.735 84.9677 104.552 88.7324 100.84 88.5756C100.421 88.5756 100.369 88.0004 100.735 87.8958C103.088 87.1638 105.232 85.5952 105.598 83.19C105.755 82.4579 105.545 81.8305 105.179 81.203C103.454 77.9612 102.408 74.2488 102.67 70.5887C102.67 70.3272 103.036 70.3272 103.036 70.5887Z" fill="black"/>
<path d="M64.8133 76.1837C63.6107 73.0988 60.9963 70.1707 57.4931 70.2229C57.1794 70.1707 56.6565 70.2752 56.3428 70.2752C55.4539 70.3275 54.7218 70.6412 54.0421 71.2687C50.6957 74.6151 51.2709 80.5236 53.9898 84.236C54.931 85.5432 56.1336 86.6935 57.4931 87.6347C58.8526 88.5759 60.3689 89.3079 61.9898 89.9354C62.3558 90.0399 62.199 90.6151 61.833 90.5628C58.3297 89.8308 54.9833 88.1053 52.6826 85.2295C49.1271 80.9419 48.395 73.7785 52.6303 69.5955C53.5715 68.7589 54.8787 68.1314 56.1859 68.1314C56.6042 68.1314 57.2316 68.0269 57.6499 68.1314C59.846 68.236 61.9375 69.334 63.297 71.0595C64.4996 72.5236 65.1794 74.3014 65.3885 76.0792C65.3885 76.3929 64.9179 76.4974 64.8133 76.1837Z" fill="black"/>
<path d="M99.062 93.804C95.7156 96.9936 89.3888 94.4315 87.7156 90.5622C87.5064 90.0916 88.0293 89.6733 88.4476 89.8825C89.3365 90.353 90.1208 90.8236 90.9574 91.1897C93.3626 92.2877 95.8724 93.1766 98.5391 92.9151C99.062 92.8106 99.428 93.438 99.062 93.804Z" fill="black"/>
<path d="M91.2192 65.0456C92.3695 65.2025 93.2584 63.9998 92.8401 62.8495C92.631 62.2221 92.2649 61.6469 91.6898 61.2809C89.912 60.1829 83.2715 60.0783 79.7682 62.5881C76.631 64.8887 85.9904 64.3136 91.2192 65.0456Z" fill="black"/>
<path d="M105.703 65.6212C104.761 65.6212 104.186 64.4186 104.657 63.4251C104.918 62.9022 105.284 62.4316 105.807 62.1702C107.428 61.3859 111.768 61.8565 113.703 64.5231C115.428 66.8761 110.042 65.5689 105.703 65.6212Z" fill="black"/>
<path d="M89.285 71.7906C86.6183 70.6403 83.5857 70.954 80.8144 71.5815C80.5007 71.6861 80.2916 71.2678 80.553 71.0586C82.9582 69.0717 87.5072 68.8102 89.4419 71.5292C89.5987 71.6338 89.4942 71.8429 89.285 71.7906Z" fill="black"/>
<path d="M109.834 72.8891C108.579 72.0002 106.749 72.1571 105.285 72.3139C104.762 72.3662 104.239 72.4708 103.664 72.6276C103.507 72.6799 103.35 72.4185 103.455 72.3139L103.559 72.2094C104.867 70.8499 106.906 70.5361 108.684 71.2159C109.311 71.4773 109.938 71.8433 110.252 72.5754C110.409 72.8368 110.043 73.0982 109.834 72.8891Z" fill="black"/>
<path d="M57.2839 88.523C58.4342 89.3074 60.1074 90.1439 60.1074 90.1439C60.1074 90.1439 60.4212 94.7975 60.3689 96.4185C60.3166 97.9348 59.7414 102.588 59.7414 102.588C59.7414 102.588 58.3297 94.693 54.1466 90.3008C51.846 87.8956 48.1336 85.2289 45.9375 75.8694L48.0813 76.2355C48.0813 76.2355 49.4931 71.791 49.4931 72.1047C49.4931 72.3662 49.4931 76.6538 49.4931 76.6538L50.8002 76.7583C50.5388 80.6799 52.4212 85.2289 57.2839 88.523Z" fill="#D6D6D6"/>
<path d="M57.7549 87.8431C58.7483 88.4706 59.8464 89.0458 60.8921 89.5686L60.9444 90.0392C61.049 91.9216 61.3104 94.4837 61.2581 96.366C61.1013 99.817 60.317 103.843 59.8987 107.242C58.9052 102.222 57.8595 96.6797 54.8791 92.3922C53.4673 90.3529 51.3235 88.7843 49.8072 86.6928C47.4019 83.5556 46.0425 79.7386 45.1013 75.9739L44.8398 74.8235C45.5719 74.9281 47.4019 75.2418 48.134 75.3987L47.2451 75.9216L47.9248 73.7778C48.0294 73.4641 48.3431 72.4706 48.4477 72.1569C48.5523 71.9477 48.6045 71.6863 48.7614 71.4771C49.232 70.902 50.1732 71.268 50.1209 72.0523V76.549L49.3889 75.7647L50.5915 76.6536C50.9575 81.3595 53.8333 85.4902 57.7549 87.8431ZM57.0751 88.8889C53.049 86.1699 50.1209 81.6732 50.2255 76.7059L50.6961 77.281L49.3889 77.3856L48.7614 77.4379C48.6568 76.915 48.7091 72.732 48.7091 72.1046V72.0523V72.1046C48.7091 72.1569 48.7091 72.2092 48.7614 72.2614C48.9183 72.8366 49.7549 72.9412 50.0686 72.5229C50.1209 72.4706 50.1209 72.4183 50.1732 72.366L50.1209 72.4706C49.964 72.9412 49.6503 73.8301 49.4934 74.3007C49.3366 74.7712 48.7614 76.6013 48.6045 77.0719C48.134 76.9673 46.3039 76.7059 45.781 76.6013L46.6699 75.6601C47.8202 80.5229 49.8072 85.1242 53.5719 88.5752C57.4934 92.1307 59.4281 97.3072 60.5261 102.431L58.9575 102.484C59.4281 99.5033 60.0032 96.3137 59.7418 93.281L59.5849 90.1961L59.8464 90.6144C58.9052 90.0392 57.964 89.5163 57.0751 88.8889Z" fill="black"/>
<path d="M123.585 69.176L119.612 70.0126C119.507 75.2937 119.298 79.1106 119.298 79.1106H113.285C113.285 79.1106 112.448 76.078 113.337 67.6074C113.651 64.8884 115.272 61.6989 114.958 59.4505C114.383 55.3198 113.023 52.0257 111.716 50.0388C109.259 47.8427 104.814 50.9799 104.605 51.1368L105.076 50.0388C103.768 50.8754 102.827 51.712 102.827 51.712C102.827 51.712 102.252 50.5093 101.154 48.9407C101.206 49.4636 101.259 49.9865 101.206 50.4048C101.206 50.4048 100.422 49.0453 99.1149 47.529C99.6377 49.2022 99.4809 50.6139 99.4809 50.6139C94.9319 44.0257 91.0103 44.9669 89.0234 46.1695C83.3763 52.5486 83.0626 69.176 83.0626 69.176L77.4155 68.6008C77.4155 68.6008 77.3632 66.7185 77.5201 63.7904C76.3175 71.895 76.1083 79.1106 76.1083 79.1106L65.5462 78.3263L65.0756 76.1303C65.0756 76.1303 63.4547 68.2871 55.8207 69.2283C52.9449 69.5943 50.8534 72.8361 50.6966 76.7054L49.3894 76.6008C49.3894 76.6008 49.3894 72.3133 49.3894 72.0518C49.3894 71.7904 47.9776 76.1825 47.9776 76.1825L43.7423 75.8165L41.1279 75.0845C41.1279 75.0845 43.7946 43.2937 53.7815 35.2414C59.4286 30.6924 63.4547 30.274 63.4547 30.274C65.2848 28.3917 69.1018 25.0453 73.86 24.6793C80.6051 24.1564 112.867 32.261 116.893 40.627C117.05 40.9407 117.206 41.3067 117.311 41.6727C118.723 44.9146 122.331 55.0584 123.585 69.176Z" fill="black"/>
<path d="M59.2201 77.752C59.2201 77.752 55.0371 77.1245 55.3508 82.9807C55.5077 85.9611 55.5077 87.582 55.4554 88.4186C55.4031 88.9938 55.7691 89.5167 56.292 89.7258C56.9194 89.9873 57.5992 89.7258 57.9129 89.0984C58.3835 88.2618 58.9063 87.1114 58.9063 86.1703C58.9063 84.6016 60.5795 83.1899 60.5795 83.1899C60.5795 83.1899 59.0632 81.8827 59.2201 77.752Z" fill="white"/>
<path d="M59.0629 77.9089C59.0629 77.9611 59.1152 78.0134 59.1675 78.0134C59.1675 78.0134 59.1675 78.0134 59.1152 78.0134H59.0106C56.5008 78.2226 55.7165 80.4187 55.8211 82.667C55.8733 84.1311 55.9779 85.5951 55.9256 87.0069C56.0302 87.7912 55.5596 88.837 56.3439 89.2553C56.8145 89.5167 57.442 89.3076 57.6511 88.7847C58.1217 87.8435 58.5923 86.9023 58.5923 85.8566C58.8015 84.654 59.5858 83.7128 60.4224 82.9808V83.3991C59.3243 82.2487 59.0629 80.6801 58.906 79.216C58.9583 78.85 58.9583 78.2749 59.0629 77.9089ZM59.4289 77.5428C59.5858 79.0069 59.5858 80.5232 60.2132 81.8304C60.3701 82.1964 60.6315 82.6147 60.9452 82.8762C61.1544 83.033 61.1544 83.3468 60.9452 83.5036C60.2132 84.1834 59.5858 85.02 59.4812 85.9611C59.4812 87.1115 59.0106 88.2095 58.4877 89.203C58.0694 90.0919 56.8668 90.5625 55.9779 90.0396C55.4028 89.7259 54.9845 89.0984 54.9845 88.4187C54.9845 87.8958 55.0367 87.4775 55.0367 86.9546C55.0367 85.4906 54.9322 84.0788 54.8799 82.6147C54.8799 81.6736 54.9322 80.5755 55.3505 79.6343C55.8733 78.1703 57.4943 77.1768 59.0629 77.4383C59.2198 77.4383 59.3766 77.4906 59.4289 77.5428Z" fill="black"/>
<path d="M58.5395 139.66C60.265 132.131 58.0167 123.66 56.082 116.131C55.2977 113.151 54.5134 110.327 54.1474 107.87C53.4676 103.739 53.9382 99.8173 55.6114 96.1572C57.6506 91.6082 57.3369 87.7389 57.3369 87.582L56.2912 87.6866C56.2912 87.7389 56.6049 91.5036 54.6703 95.7389C52.9448 99.5559 52.4219 103.687 53.1016 108.026C53.5199 110.536 54.252 113.412 55.0363 116.392C56.9709 123.765 59.167 132.131 57.4938 139.399C56.5526 143.425 58.3827 150.013 60.9971 156.602C61.4154 156.654 61.7814 156.706 62.1997 156.758C59.533 150.17 57.6506 143.53 58.5395 139.66Z" fill="black"/>
<path d="M55.5069 86.0132C55.5592 87.1636 55.5069 87.9479 55.5069 88.4185C55.4546 88.9936 55.8206 89.5165 56.3435 89.7256C56.971 89.9871 57.6507 89.7256 57.9644 89.0982C58.435 88.2616 58.9579 87.1113 58.9579 86.1701C58.9579 86.1178 58.9579 86.0132 58.9579 85.9609C57.9121 86.3792 56.6572 86.693 55.5069 86.0132Z" fill="white"/>
<path d="M55.6636 86.2226C55.7158 86.9546 55.7681 87.6344 55.7681 88.3664C55.7158 88.6801 55.8204 88.9939 56.0296 89.2553C56.7093 89.935 57.6505 89.5167 57.9119 88.6801C58.3302 87.8435 58.6962 86.9546 58.6962 86.0135L59.0623 86.2749C57.9119 86.4841 56.7093 86.7978 55.6113 86.3272C55.6113 86.3272 55.6636 86.2749 55.6636 86.2226ZM55.4021 85.752C55.5067 85.752 55.7158 85.8043 55.8204 85.9089C56.7616 86.5886 57.9642 86.2749 58.9054 85.752C59.0623 85.6475 59.3237 85.8043 59.2714 86.0135C59.2191 87.2161 58.7485 88.3664 58.1211 89.4122C57.5459 90.1965 56.3433 90.2488 55.6636 89.569C55.3498 89.2553 55.193 88.7324 55.2453 88.3141C55.2453 87.4252 55.3498 86.5886 55.4021 85.752Z" fill="black"/>
<path d="M104.762 120.784C105.651 114.614 104.814 110.222 104.501 108.915C104.344 109.02 104.239 109.176 104.082 109.281C103.925 109.438 103.769 109.542 103.612 109.699C103.925 111.373 104.501 115.346 103.716 120.627C103.35 123.085 103.246 126.954 103.193 131.451C103.089 135.791 101.729 146.614 100.108 156.863C100.474 156.758 100.84 156.654 101.206 156.601C102.827 146.458 104.135 135.843 104.239 131.503C104.344 127.007 104.396 123.19 104.762 120.784Z" fill="black"/>
<path d="M151.193 44.078C182.931 105.202 127.14 174.17 60.6304 157.333C30.7742 149.908 6.7742 124.026 1.80688 93.6466C-3.84018 63.4244 9.80688 30.9538 35.3232 13.8558C70.3036 -10.1965 118.774 -2.19651 143.82 32.2087C143.977 32.3656 143.925 32.627 143.715 32.7839C143.559 32.9408 143.297 32.8885 143.14 32.6793C139.689 28.2349 135.768 24.2087 131.48 20.6009C124.421 14.5878 116.16 9.88193 107.428 6.69238C62.9833 -9.41219 14.199 17.359 4.47355 63.8427C-6.50685 115.921 37.7807 163.869 90.5912 156.705C131.323 151.581 161.598 113.987 158.251 73.0976C157.519 63.2153 154.905 53.4375 150.565 44.444C150.46 44.2872 150.565 44.078 150.722 43.9734C150.879 43.8689 151.088 43.9211 151.193 44.078Z" fill="black"/>
</g>
</svg>
