<svg width="161" height="160" viewBox="0 0 161 160" fill="none" xmlns="http://www.w3.org/2000/svg">
<mask id="mask0_426_9691" style="mask-type:alpha" maskUnits="userSpaceOnUse" x="0" y="0" width="160" height="160">
<circle cx="80.2377" cy="79.7377" r="79.7377" fill="#D9D9D9"/>
</mask>
<g mask="url(#mask0_426_9691)">
<path d="M123.951 145.569C123.585 145.83 123.167 146.092 122.801 146.353C122.382 146.614 122.016 146.876 121.598 147.085C121.232 147.294 120.918 147.503 120.552 147.713C120.5 147.765 120.448 147.765 120.396 147.817C119.193 148.549 117.938 149.229 116.683 149.856C116.317 150.065 115.899 150.275 115.533 150.431C115.533 150.431 115.48 150.484 115.428 150.484C115.01 150.693 114.592 150.902 114.173 151.111C113.337 151.53 112.448 151.896 111.611 152.262C111.193 152.471 110.722 152.628 110.304 152.784C109.886 152.941 109.415 153.15 108.997 153.307C108.579 153.464 108.108 153.673 107.69 153.83C107.69 153.83 107.69 153.83 107.637 153.83C107.219 153.987 106.748 154.144 106.33 154.301C105.389 154.614 104.396 154.928 103.454 155.242C103.141 155.347 102.775 155.451 102.461 155.556C101.467 155.869 100.474 156.131 99.4805 156.34C99.1145 156.445 98.7485 156.497 98.3302 156.601C97.389 156.811 96.3955 157.02 95.4543 157.229C95.2452 157.281 95.0883 157.281 94.8792 157.333C94.5655 157.386 94.1994 157.438 93.8857 157.49C93.4151 157.543 92.9968 157.647 92.5262 157.699C92.3171 157.752 92.1079 157.752 91.8988 157.804C91.6374 157.856 91.3236 157.909 91.0099 157.909C90.1733 158.013 89.2844 158.118 88.4478 158.222C88.1864 158.275 87.8727 158.275 87.6112 158.327H87.5589C87.1929 158.379 86.8269 158.379 86.4609 158.431C86.0949 158.484 85.7289 158.484 85.3628 158.484C85.1537 158.484 84.8923 158.536 84.6831 158.536C84.2648 158.536 83.8988 158.588 83.5328 158.588C83.0099 158.588 82.5393 158.641 82.0164 158.641C81.4936 158.641 81.023 158.641 80.5001 158.641C80.1341 158.641 79.7681 158.641 79.4021 158.641C57.3367 158.327 37.5197 148.967 23.3498 134.118C23.3498 134.118 23.3498 134.065 23.2975 134.065C21.7289 132.654 23.0883 125.124 29.4151 120.366C37.3628 114.353 56.3955 110.588 56.3955 110.588C56.3955 110.588 63.7681 109.386 91.1145 115.085C107.114 118.431 119.297 123.294 126.095 136.471C127.507 139.19 128.918 143.373 123.951 145.569Z" fill="white"/>
<path d="M91.2713 114.51C101.311 116.549 112.03 118.745 120.291 125.386C123.062 127.634 124.892 130.928 126.409 134.118C127.141 135.687 127.873 137.307 128.448 139.033C128.762 140.183 129.232 141.49 128.971 142.85C128.918 143.216 128.605 143.687 128.343 143.948C127.141 145.151 125.833 145.883 124.526 146.824C116.84 152.157 108.003 155.922 98.853 157.909C78.4609 162.353 56.3955 158.902 38.4609 148.183C32.5001 144.575 27.0099 140.183 22.304 135.007C21.7811 134.379 21.7811 133.334 21.7811 132.654C21.8334 131.085 22.2517 129.569 22.7746 128.157C24.0295 124.915 25.6504 121.673 28.4217 119.425C30.4086 118.066 32.5524 116.915 34.7484 115.974C41.6504 113.046 48.9184 111.007 56.3955 110.17C57.023 110.118 57.1275 111.007 56.5001 111.111C49.3367 112.575 42.2256 114.771 35.585 117.752C33.1798 118.955 30.6177 120 28.6831 121.883C26.853 123.87 25.5458 126.327 24.5001 128.837C23.8203 130.353 23.3498 132.758 23.5589 133.961C26.853 137.883 30.7223 141.334 34.9053 144.314C57.8073 160.314 92.5785 161.36 116.945 148.026C119.141 146.824 121.284 145.464 123.324 144.053C124.317 143.373 125.363 142.798 126.147 142.013C126.199 141.961 126.147 142.013 126.147 142.066C126.147 142.118 126.095 142.17 126.095 142.17C126.147 141.543 125.938 140.706 125.677 139.87C124.735 136.837 123.219 133.647 121.598 130.876C119.036 126.745 114.696 124.131 110.304 122.039C107.271 120.628 104.082 119.53 100.84 118.484C97.5981 117.438 94.304 116.549 91.0099 115.765C90.1733 115.556 90.4347 114.353 91.2713 114.51Z" fill="black"/>
<path d="M141.31 177.987H9.07489C9.07489 177.987 15.2448 158.013 19.8984 139.556C21.7285 132.34 25.1272 122.51 29.3102 119.634C35.0618 115.66 44.5782 113.412 48.8657 111.896C51.8461 110.85 54.1468 110.484 56.2906 109.909C56.2906 110.17 56.3429 110.379 56.3429 110.641C56.3429 110.641 61.101 121.307 75.7938 127.216C87.7677 132.079 91.9507 130.144 93.0487 124.758C93.7285 121.307 95.454 120.523 94.3559 118.693C93.7285 118.17 93.3102 117.386 93.101 116.602L92.6827 114.876C93.6762 114.667 94.6174 114.405 95.5585 114.092C95.8723 113.987 96.1337 113.883 96.4474 113.778C102.251 117.072 110.251 118.118 119.925 125.229C121.65 126.484 126.67 131.922 128.761 145.151C131.689 162.562 141.31 177.987 141.31 177.987Z" fill="black"/>
<path d="M142.252 178.51C102.984 178.667 47.7679 179.19 9.07509 179.085C8.44764 179.085 7.97705 178.614 7.97705 177.987C9.49339 171.503 11.9509 162.144 13.6241 155.608C14.9313 150.327 16.5522 144.418 17.8594 139.085C19.7418 132.131 22.0947 123.085 28.0032 118.484C29.9378 117.229 32.0816 116.34 34.1208 115.556C38.6176 113.882 43.2189 112.628 47.8202 111.216C50.4346 110.222 53.3627 109.595 56.0816 108.811C56.6568 108.654 57.232 108.967 57.3888 109.49C57.4411 109.647 57.4411 110.327 57.4934 110.484L56.3954 109.49C56.8137 109.49 57.232 109.752 57.3888 110.118C57.8071 111.007 58.3823 111.948 58.9574 112.784C64.4999 120.784 73.4411 125.909 82.7483 128.314C85.415 128.889 88.9705 129.569 90.9052 127.216C92.1601 125.595 92.1078 123.085 93.1012 121.307C93.4673 120.471 93.8856 119.948 93.4673 119.216L93.6764 119.477C92.9967 118.85 92.4738 118.065 92.2123 117.229C92.0032 116.445 91.8463 115.765 91.6895 115.085C91.5326 114.51 91.9509 113.882 92.5261 113.778C93.7287 113.516 94.9836 113.15 96.1339 112.732C96.4476 112.628 96.7614 112.68 97.0228 112.784C98.5391 113.464 100.108 114.039 101.729 114.614C106.801 116.235 111.872 117.961 116.526 120.628C118.095 121.516 119.611 122.51 121.075 123.556C122.801 124.863 123.899 126.327 124.997 128.052C128.971 134.275 130.225 141.438 131.533 148.549C133.52 157.752 136.971 166.641 141.049 175.111L141.624 176.262L141.886 176.837L142.042 177.098L142.095 177.255L142.147 177.307C142.147 177.255 142.199 177.36 142.252 177.516C142.461 177.882 142.408 178.301 142.252 178.51ZM140.369 177.464C140.212 177.673 140.16 178.039 140.265 178.301C140.317 178.458 140.369 178.562 140.369 178.51L140.317 178.458L140.212 178.301L140.055 178.039C136.605 172.131 133.729 165.909 131.48 159.477C130.016 155.294 128.814 151.059 128.029 146.667C127.088 140.863 125.624 134.797 122.487 129.778C121.65 128.471 120.605 127.059 119.35 126.118C117.938 125.124 116.526 124.131 115.062 123.294C112.134 121.516 108.997 120.105 105.807 118.85C102.618 117.543 99.2189 116.549 96.0293 114.719L96.9182 114.771C95.6633 115.242 94.3561 115.608 92.9967 115.869L93.8333 114.562C94.147 115.712 94.1993 117.072 95.1404 117.856C95.7156 118.484 95.9771 119.582 95.8202 120.471C95.6633 121.255 95.3496 121.778 95.1404 122.248C94.6699 123.242 94.3561 124.079 94.147 125.177C92.3169 134.275 81.8071 130.771 75.8463 128.418C67.4803 125.072 59.6895 119.216 55.4542 111.111L56.4476 111.739C55.8725 111.739 55.4019 111.32 55.3496 110.745L55.2973 110.065L56.6568 111.007C53.7287 111.529 51.1143 111.948 48.3954 112.941C42.1731 114.876 35.5326 116.497 30.147 120.209C24.5522 124.288 21.3627 138.771 19.5849 145.464C17.6503 152.837 15.611 160.157 13.4672 167.425C12.3692 171.085 11.2712 174.693 10.1208 178.353L9.07509 176.941C47.0359 176.889 101.886 177.15 140.369 177.464Z" fill="black"/>
<path d="M88.2906 131.137C88.3429 131.189 88.3429 131.189 88.3952 131.242C88.3952 131.189 88.3952 131.137 88.3952 131.137C88.3952 131.137 88.3429 131.137 88.2906 131.137Z" fill="white"/>
<path d="M100.788 111.739C100.788 111.739 100.788 106.719 96.3955 105.412C88.291 102.954 72.9707 101.856 62.7223 101.856C62.7223 101.856 58.3825 102.17 56.8138 102.954C55.2975 103.687 53.4674 104.157 53.0491 107.556C52.84 109.229 52.84 111.896 52.8923 114.249C52.9446 117.386 54.1995 120.419 56.3955 122.667C59.8988 126.275 67.1668 130.981 75.4805 132.392C95.5066 135.739 100.945 127.007 100.788 122.353C100.579 116.968 100.788 111.739 100.788 111.739Z" fill="black"/>
<path d="M99.6897 111.686C99.5851 109.438 98.3825 107.033 96.0818 106.405C95.3498 106.196 94.6178 105.987 93.938 105.83C83.742 103.582 73.1799 103.059 62.7224 102.902C61.3629 103.059 58.7485 103.268 57.2322 103.896C56.6047 104.209 55.8204 104.523 55.2975 104.941C54.0949 105.987 54.0426 107.817 53.9903 109.438C53.938 110.379 53.938 111.32 53.938 112.262C53.6243 118.641 56.4478 122.039 61.5197 125.438C65.3367 128.052 69.6243 129.935 74.1733 130.981C80.3955 132.183 87.2975 132.758 93.2583 130.353C96.3955 129.098 99.3237 126.432 99.6897 122.981C99.742 122.248 99.6897 120.994 99.6897 120.262C99.5851 117.543 99.5851 114.458 99.6897 111.686ZM101.833 111.739C101.781 114.51 101.781 117.49 101.833 120.262C101.833 121.15 101.938 122.405 101.833 123.242C101.363 127.634 97.8596 130.928 94.0426 132.497C88.0295 135.007 81.3367 134.588 75.0622 133.595C73.7027 133.333 72.0295 132.967 70.7224 132.549C65.0753 130.719 59.7942 127.791 55.559 123.608C52.5263 120.628 51.3759 116.445 51.6374 112.314C51.7942 109.281 51.2714 105.673 53.7812 103.32C54.5655 102.693 55.3498 102.327 56.1864 101.961C58.3302 101.124 60.4217 100.967 62.6178 100.758C69.6766 100.811 76.7354 101.177 83.7942 102.013C87.9773 102.536 92.2125 103.111 96.291 104.314L96.6047 104.418L96.9707 104.575C98.8008 105.464 99.5851 107.399 100.631 108.967C101.311 109.804 101.781 110.693 101.833 111.739Z" fill="black"/>
<path d="M53.2581 114.196C54.4084 130.981 80.2908 148.915 95.6633 139.608C99.6895 136.889 100.788 131.713 100.683 127.164C100.683 125.595 100.526 124.026 100.422 122.405C100.369 122.039 100.997 121.935 101.049 122.301C103.245 131.085 102.147 140.811 91.8986 143.425C77.5196 146.928 61.2058 136.366 54.879 123.713C53.415 120.785 52.4738 117.543 52.4215 114.301C52.4738 113.778 53.2058 113.673 53.2581 114.196Z" fill="white"/>
<path d="M96.1864 128.419C95.0884 133.804 87.9772 137.046 76.0034 132.183C63.5589 127.164 58.1733 115.19 56.8138 111.634C64.1864 97.8303 59.0622 88.2617 59.0622 88.2617C76.0557 86.7976 90.9053 106.667 90.9053 106.667L93.206 116.497C93.4152 117.334 93.8335 118.066 94.4609 118.588C95.5589 120.523 96.8661 124.968 96.1864 128.419Z" fill="white"/>
<path d="M56.5526 111.791C57.5461 110.275 58.1735 108.497 58.5918 106.772C59.3761 103.164 59.6376 99.5035 59.6899 95.8434V94.4839C59.533 93.1244 59.0624 91.7127 58.5395 90.4578C57.8598 88.7846 60.3173 87.7388 61.1016 89.412C61.2062 89.6212 61.2062 89.9872 61.2062 90.1963C61.3631 97.3075 61.6768 106.458 57.1801 112.366C56.8663 112.68 56.2389 112.209 56.5526 111.791Z" fill="black"/>
<path d="M91.4805 106.562C92.2648 107.033 92.5263 107.66 92.6308 108.288C92.9446 109.543 92.84 110.902 93.1537 112.209C93.4152 113.464 94.1995 114.667 94.4086 115.974C94.6701 117.334 95.4544 120.209 95.7681 121.621C95.8727 121.935 95.6635 122.301 95.2975 122.353C95.0884 122.406 94.9315 122.353 94.7746 122.249C94.0949 121.674 93.7812 121.098 93.3629 120.366C92.6831 119.111 92.2125 117.961 91.7942 116.549C91.4282 115.294 91.5851 113.935 91.2714 112.628C91.0099 111.373 90.2779 110.17 90.0165 108.863C89.8596 108.236 89.8073 107.556 90.2779 106.772C90.5916 106.458 91.1145 106.353 91.4805 106.562Z" fill="black"/>
<path d="M95.2454 120.366C85.2585 119.843 77.1016 116.706 69.1539 102.536C75.8467 108.445 83.7422 110.693 92.0559 111.739L93.1539 116.549C93.3631 117.386 94.618 119.843 95.2454 120.366Z" fill="black"/>
<path d="M94.8273 118.432C96.6051 121.778 97.6508 125.961 96.5528 129.674C95.7162 132.288 93.311 134.223 90.6966 134.955C84.6312 136.576 77.6247 134.014 72.2391 131.138C65.5986 127.425 60.6835 121.203 57.5463 114.406C57.3371 113.883 58.0691 113.464 58.3829 113.987C59.4809 116.183 60.7358 118.327 62.1476 120.262C63.5593 122.249 65.1803 124.079 67.0103 125.7C72.3437 130.51 79.5593 133.491 86.775 133.491C94.1999 133.281 97.0234 129.36 95.2979 122.144C95.0365 120.994 94.6182 119.791 94.043 118.798C93.7293 118.38 94.5136 117.909 94.8273 118.432Z" fill="black"/>
<path d="M115.062 55.6345C116.003 60.0266 114.173 62.0136 114.173 73.7783C114.173 79.6868 113.598 86.4319 112.448 92.9155C111.245 99.6083 107.899 105.935 102.304 110.641C93.8332 117.7 84.9443 118.014 74.4345 109.804C72.9705 108.654 67.8463 104.785 66.5391 103.478C63.611 100.602 63.3496 93.177 61.4672 90.3012C60.16 88.3142 59.3757 91.5038 56.3953 88.2096C52.2646 83.7129 47.2973 74.6672 49.7548 58.6672C53.7286 32.7325 74.2777 29.6998 89.4933 32.5757C104.709 35.3992 112.552 44.0789 115.062 55.6345Z" fill="white"/>
<path d="M58.9053 92.7584C57.0753 89.778 54.5132 87.2682 52.84 84.1833C47.7681 74.8238 46.7223 63.4251 49.4413 53.1767C55.2452 31.2159 76.5785 27.4512 95.9249 33.412C106.382 36.6539 114.069 44.5493 116.213 55.4251C116.997 59.3467 115.324 63.1114 115.062 66.9284C114.801 69.229 114.696 71.5297 114.748 73.8303C115.01 80.8369 114.801 87.948 112.709 94.6931C110.565 101.438 107.062 108.131 101.258 112.471C90.3302 120.628 77.4151 114.667 68.9445 106.039C68.6831 105.778 69.0491 105.36 69.3628 105.569C74.9053 109.543 80.8138 113.307 87.6112 114.039C99.4805 115.399 107.742 104.314 111.245 94.2748C112.762 89.9349 113.546 85.3859 113.703 80.8369C113.86 76.1833 113.494 71.5297 113.65 66.8761C113.703 65.7257 113.755 64.5231 113.86 63.3728C114.016 61.5427 114.487 58.5101 114.121 56.7323C113.023 51.2944 110.618 46.0656 106.748 42.0395C97.7027 32.68 80.657 30.0133 68.6308 34.3532C54.5132 39.5297 50.8007 53.6996 50.0164 67.2944C49.4936 75.4512 51.8988 83.3989 58.0687 88.9937L60.5262 91.5558C61.5197 92.6016 59.7419 94.0133 58.9053 92.7584Z" fill="black"/>
<path d="M65.0752 76.1308C65.0752 76.1308 63.4543 68.2876 55.8203 69.2288C49.2321 70.0654 46.9315 85.8562 61.8857 90.2484" fill="white"/>
<path d="M61.2062 83.3989C60.0036 82.7192 59.167 81.5689 59.1147 80.1571C59.167 79.1114 59.3238 77.9087 59.0624 76.863C58.9055 75.8695 57.8598 75.6081 57.0755 75.6604C56.2389 75.8172 55.716 76.863 55.5591 77.6996C55.5591 77.7519 55.5068 77.9088 55.5068 77.961C55.4546 78.2225 55.0363 78.2225 54.9317 77.961C54.2519 75.9218 55.7683 73.6735 57.9644 73.9349C61.0493 74.144 61.4676 77.3859 60.8925 79.8434C60.5787 80.8891 60.997 81.8303 61.5722 82.7192L61.6768 82.8761C61.9382 83.1898 61.5199 83.6081 61.2062 83.3989Z" fill="black"/>
<path d="M103.036 70.5887C103.821 74.3011 105.285 77.7521 107.115 80.9939C108.736 84.9677 104.553 88.7324 100.84 88.5756C100.422 88.5756 100.37 88.0004 100.736 87.8958C103.088 87.1638 105.232 85.5952 105.598 83.19C105.755 82.4579 105.546 81.8305 105.18 81.203C103.455 77.9612 102.409 74.2488 102.67 70.5887C102.67 70.3272 103.036 70.3272 103.036 70.5887Z" fill="black"/>
<path d="M64.8138 76.1832C63.6112 73.0983 60.9968 70.1702 57.4936 70.2225C57.1798 70.1702 56.657 70.2747 56.3432 70.2747C55.4544 70.327 54.7223 70.6408 54.0426 71.2682C50.6962 74.6146 51.2713 80.5231 53.9903 84.2355C54.9315 85.5427 56.1341 86.693 57.4936 87.6342C58.853 88.5754 60.3694 89.3074 61.9903 89.9349C62.3563 90.0394 62.1995 90.6146 61.8334 90.5623C58.3302 89.8303 54.9838 88.1048 52.6831 85.229C49.1276 80.9414 48.3955 73.778 52.6308 69.595C53.572 68.7584 54.8792 68.131 56.1864 68.131C56.6047 68.131 57.2321 68.0264 57.6504 68.131C59.8465 68.2355 61.938 69.3336 63.2975 71.059C64.5001 72.5231 65.1798 74.3009 65.389 76.0787C65.389 76.3924 64.9184 76.497 64.8138 76.1832Z" fill="black"/>
<path d="M99.5325 93.5427C98.6436 94.1702 97.3364 93.6473 96.3953 94.0656C95.7155 94.2748 94.6175 95.2159 93.0489 95.1114C91.7939 95.0068 91.1665 94.3794 90.1207 93.9088C89.0227 93.5427 87.8724 92.863 87.1404 91.9741C86.9835 91.8173 86.9835 91.6081 87.1404 91.4512C87.3495 91.2421 87.5587 91.399 87.7678 91.5035C88.2384 91.765 88.6044 91.9741 88.9704 92.0787C89.3364 92.1833 89.7024 92.0787 90.2776 92.0787C90.8528 92.0264 91.6894 92.2878 92.2122 92.7061C92.5783 92.9676 92.9966 93.1244 93.3103 93.1767C94.1469 93.3336 95.1926 92.6539 96.0815 92.5493C96.709 92.4447 97.3887 92.497 97.9116 92.6539C98.4345 92.8107 98.8005 92.9153 99.2188 92.8107C99.6894 92.7061 99.9508 93.3336 99.5325 93.5427Z" fill="black"/>
<path d="M83.5328 75.9213C82.2779 75.869 81.3367 74.8233 81.4413 73.5684L81.4936 72.1043C81.5459 70.8494 82.5916 69.9082 83.8465 70.0128C85.1014 70.0651 86.0426 71.1109 85.938 72.3658L85.8857 73.8298C85.8334 75.0324 84.7877 75.9736 83.5328 75.9213Z" fill="black"/>
<path d="M105.546 76.7058C104.395 76.6535 103.506 75.6601 103.559 74.5097L103.611 73.1502C103.663 71.9999 104.657 71.111 105.807 71.1633C106.957 71.2156 107.846 72.2091 107.794 73.3594L107.742 74.7189C107.689 75.8692 106.696 76.7581 105.546 76.7058Z" fill="black"/>
<path d="M88.2387 73.0977C86.5132 71.9474 84.6308 71.1631 82.5393 71.5814C81.8596 71.686 81.1798 71.8951 80.7615 72.3657C80.6047 72.5749 80.2386 72.5226 80.2386 72.2089C80.2909 71.1631 81.1798 70.4834 82.0164 70.0651C83.6373 69.2285 85.8857 69.3853 87.3498 70.4834C87.8726 70.7971 89.6504 72.7317 88.7092 73.15C88.5001 73.2546 88.3955 73.2023 88.2387 73.0977Z" fill="black"/>
<path d="M103.193 73.3594C103.193 71.1633 105.912 70.379 107.585 71.1633C108.526 71.5816 109.206 72.4182 109.467 73.4117C109.572 73.7254 109.101 73.9868 108.892 73.7254C108.003 72.6797 106.487 72.1568 105.284 72.7842C104.918 72.9934 104.866 73.1502 104.761 73.3594C104.761 74.4051 103.245 74.3529 103.193 73.3594Z" fill="black"/>
<path d="M90.7485 64.4704C91.8465 64.8364 92.9445 63.843 92.7354 62.6403C92.6308 62.0129 92.3694 61.3854 91.8465 60.9148C90.2779 59.5031 83.7942 58.2482 79.8726 60.0782C76.4217 61.7515 85.7289 62.7972 90.7485 64.4704Z" fill="black"/>
<path d="M106.383 65.307C105.494 65.6208 104.553 64.6796 104.709 63.5815C104.762 63.0064 104.971 62.4312 105.389 62.0129C106.644 60.758 110.932 59.7646 113.651 61.6992C116.004 63.3201 110.461 63.7907 106.383 65.307Z" fill="black"/>
<path d="M57.284 88.523C58.4344 89.3074 60.1076 90.1439 60.1076 90.1439C60.1076 90.1439 60.4213 94.7975 60.369 96.4185C60.3167 97.9348 59.7415 102.588 59.7415 102.588C59.7415 102.588 58.3298 94.693 54.1468 90.3008C51.8461 87.8956 48.1337 85.2289 45.9376 75.8694L48.0814 76.2355C48.0814 76.2355 49.4932 71.791 49.4932 72.1047C49.4932 72.3662 49.4932 76.6538 49.4932 76.6538L50.8004 76.7583C50.5389 80.6799 52.4213 85.2289 57.284 88.523Z" fill="#D6D6D6"/>
<path d="M57.7548 87.8431C58.7483 88.4706 59.8463 89.0458 60.8921 89.5686L60.9444 90.0392C61.0489 91.9216 61.3104 94.4837 61.2581 96.366C61.1012 99.817 60.3169 103.843 59.8986 107.242C58.9051 102.222 57.8594 96.6797 54.879 92.3922C53.4672 90.3529 51.3234 88.7843 49.8071 86.6928C47.4019 83.5556 46.0424 79.7386 45.1012 75.9739L44.8398 74.8235C45.5718 74.9281 47.4019 75.2418 48.1339 75.3987L47.245 75.9216L47.9247 73.7778C48.0293 73.4641 48.343 72.4706 48.4476 72.1569C48.5522 71.9477 48.6045 71.6863 48.7614 71.4771C49.2319 70.902 50.1731 71.268 50.1208 72.0523V76.549L49.3888 75.7647L50.5914 76.6536C50.9574 81.3595 53.8332 85.4902 57.7548 87.8431ZM57.0751 88.8889C53.0489 86.1699 50.1208 81.6732 50.2254 76.7059L50.696 77.281L49.3888 77.3856L48.7614 77.4379C48.6568 76.915 48.7091 72.732 48.7091 72.1046V72.0523V72.1046C48.7091 72.1569 48.7091 72.2092 48.7614 72.2614C48.9182 72.8366 49.7548 72.9412 50.0685 72.5229C50.1208 72.4706 50.1208 72.4183 50.1731 72.366L50.1208 72.4706C49.964 72.9412 49.6502 73.8301 49.4934 74.3007C49.3365 74.7712 48.7613 76.6013 48.6045 77.0719C48.1339 76.9673 46.3038 76.7059 45.781 76.6013L46.6698 75.6601C47.8202 80.5229 49.8071 85.1242 53.5718 88.5752C57.4934 92.1307 59.428 97.3072 60.5261 102.431L58.9574 102.484C59.428 99.5033 60.0032 96.3137 59.7417 93.281L59.5849 90.1961L59.8463 90.6144C58.9051 90.0392 57.964 89.5163 57.0751 88.8889Z" fill="black"/>
<path d="M123.585 69.1765L119.611 70.0131C119.507 75.2941 119.298 79.1111 119.298 79.1111H113.284C113.284 79.1111 112.448 76.0785 113.337 67.6079C113.65 64.8889 115.271 61.6994 114.958 59.451C114.382 55.3203 113.023 52.0262 111.716 50.0392C109.258 47.8432 104.814 50.9804 104.605 51.1373L105.075 50.0392C103.768 50.8758 102.827 51.7124 102.827 51.7124C102.827 51.7124 102.252 50.5098 101.154 48.9412C101.206 49.4641 101.258 49.987 101.206 50.4053C101.206 50.4053 100.422 49.0458 99.1145 47.5294C99.6374 49.2026 99.4805 50.6144 99.4805 50.6144C94.9315 44.0262 91.0099 44.9673 89.023 46.17C83.3759 52.549 83.0622 69.1765 83.0622 69.1765L77.4152 68.6013C77.4152 68.6013 77.3629 66.719 77.5197 63.7909C76.3171 71.8955 76.108 79.1111 76.108 79.1111L65.5459 78.3268L65.0753 76.1307C65.0753 76.1307 63.4544 68.2876 55.8204 69.2288C52.9446 69.5948 50.8531 72.8366 50.6962 76.7059L49.389 76.6013C49.389 76.6013 49.389 72.3138 49.389 72.0523C49.389 71.7909 47.9772 76.183 47.9772 76.183L43.7419 75.817L41.1276 75.085C41.1276 75.085 43.7942 43.2941 53.7812 35.2419C59.4282 30.6928 63.4544 30.2745 63.4544 30.2745C65.2844 28.3922 69.1014 25.0458 73.8596 24.6798C80.6047 24.1569 112.866 32.2615 116.892 40.6275C117.049 40.9412 117.206 41.3072 117.311 41.6732C118.722 44.9151 122.33 55.0589 123.585 69.1765Z" fill="black"/>
<path d="M92.0036 82.4051C89.5984 82.4573 82.1736 82.5096 79.8729 82.5619C75.8991 82.6142 72.9187 79.1632 73.2847 75.2417C73.337 73.9345 73.2847 72.1044 73.337 70.7972C73.4416 67.3985 76.4742 64.5227 79.8729 64.6273L88.7095 64.7319C89.3893 64.7319 91.3239 64.7841 92.0036 64.7841C94.8272 64.7319 97.4938 66.8234 98.1213 69.5946C98.3304 70.3789 98.2782 71.2155 98.2782 71.8953V76.3397C98.2259 79.6338 95.2978 82.4573 92.0036 82.4051ZM92.0036 81.2547C94.7226 81.3593 97.2324 79.0064 97.2847 76.2874C97.337 74.8756 97.2847 73.3593 97.2847 71.8953C97.5984 68.7057 95.1932 65.7776 91.9514 65.8822C89.703 65.9345 82.1736 65.9868 79.8206 66.039C76.9971 66.039 74.5919 68.6011 74.801 71.4247C74.801 71.7907 74.801 72.7319 74.801 73.0979C74.8533 74.2482 74.6965 76.2351 74.9579 77.2809C75.4808 79.4769 77.5723 81.1502 79.8206 81.1502H80.9187C82.435 81.1502 90.435 81.2547 92.0036 81.2547Z" fill="black"/>
<path d="M113.075 66.1439L108.945 66.1961C107.794 66.2484 106.435 66.0393 105.441 66.719C104.5 67.3465 104.082 68.4968 104.134 69.5948C104.134 70.9543 104.134 72.3661 104.082 73.7256L104.03 73.5164C104.762 76.0785 105.755 78.536 107.271 80.6798L106.749 80.3661C107.167 80.4707 107.899 80.4707 108.317 80.4707C109.886 80.5229 111.716 80.6275 113.284 80.6275C114.749 80.6275 116.16 79.5295 116.474 78.0654C116.579 77.6471 116.579 76.9151 116.579 76.4968C116.579 74.2484 116.631 72.0524 116.526 69.804C116.631 67.8171 115.115 66.0393 113.075 66.1439ZM113.075 64.5752C115.847 64.5752 117.781 67.2419 117.311 69.8563C117.206 72.1046 117.258 74.3007 117.258 76.5491C117.52 79.1635 115.951 81.5164 113.232 81.7256C112.082 81.7778 110.984 81.7778 109.886 81.8301C109.311 81.8301 107.899 81.9347 107.376 81.9347C107.115 81.987 106.696 81.9347 106.435 81.9347C106.226 81.9347 106.017 81.7779 105.912 81.621C104.291 79.2158 103.141 76.5491 102.461 73.7778C102.461 72.0001 102.304 70.2223 102.461 68.4445C102.775 66.353 104.657 64.5752 106.801 64.5229C108.265 64.4707 111.611 64.5752 113.075 64.5752Z" fill="black"/>
<path d="M97.7028 69.3858C99.1145 68.7584 100.683 68.4969 102.252 68.6015C102.775 68.6538 103.298 68.8107 103.768 69.229L104.448 69.8041C105.128 70.3793 104.291 71.3727 103.611 70.7976C102.775 70.0656 101.781 70.1701 100.788 70.2224C99.7943 70.327 98.8531 70.5362 97.9119 70.9022C97.023 71.2682 96.4479 69.961 97.2845 69.5427L97.7028 69.3858Z" fill="black"/>
<path d="M74.1734 71.2678C73.8073 72.1044 73.389 72.209 72.7093 72.1567L71.193 72.209C68.1603 72.209 65.0753 72.1567 62.0426 71.6861C60.9969 71.6339 60.9446 70.1698 61.9903 70.1175L74.1211 69.6992C74.4871 69.6992 74.7485 70.0652 74.5917 70.379L74.1734 71.2678Z" fill="black"/>
<path d="M151.193 44.0785C182.931 105.203 127.141 174.17 60.6307 157.333C30.7745 149.909 6.7745 124.026 1.80718 93.6471C-3.83988 63.4249 9.80718 30.9543 35.3235 13.8563C70.3039 -10.196 118.775 -2.19602 143.82 32.2092C143.977 32.3661 143.925 32.6275 143.716 32.7844C143.559 32.9412 143.297 32.889 143.141 32.6798C139.69 28.2354 135.768 24.2092 131.48 20.6014C124.422 14.5883 116.16 9.88241 107.428 6.69287C62.9837 -9.41171 14.1993 17.3595 4.47385 63.8432C-6.50654 115.922 37.781 163.869 90.5915 156.706C131.324 151.582 161.598 113.987 158.252 73.0981C157.52 63.2157 154.905 53.438 150.565 44.4445C150.461 44.2876 150.565 44.0785 150.722 43.9739C150.879 43.8693 151.088 43.9216 151.193 44.0785Z" fill="black"/>
</g>
</svg>
