<svg width="161" height="160" viewBox="0 0 161 160" fill="none" xmlns="http://www.w3.org/2000/svg">
<mask id="mask0_426_10155" style="mask-type:alpha" maskUnits="userSpaceOnUse" x="0" y="0" width="160" height="160">
<circle cx="80.2377" cy="79.7377" r="79.7377" fill="#D9D9D9"/>
</mask>
<g mask="url(#mask0_426_10155)">
<path d="M123.951 145.569C123.585 145.83 123.167 146.092 122.801 146.353C122.382 146.614 122.016 146.876 121.598 147.085C121.232 147.294 120.918 147.503 120.552 147.713C120.5 147.765 120.448 147.765 120.396 147.817C119.193 148.549 117.938 149.229 116.683 149.856C116.317 150.065 115.899 150.275 115.533 150.431C115.533 150.431 115.48 150.484 115.428 150.484C115.01 150.693 114.592 150.902 114.173 151.111C113.337 151.53 112.448 151.896 111.611 152.262C111.193 152.471 110.722 152.628 110.304 152.784C109.886 152.941 109.415 153.15 108.997 153.307C108.579 153.464 108.108 153.673 107.69 153.83C107.69 153.83 107.69 153.83 107.637 153.83C107.219 153.987 106.748 154.144 106.33 154.301C105.389 154.614 104.396 154.928 103.454 155.242C103.141 155.347 102.775 155.451 102.461 155.556C101.467 155.869 100.474 156.131 99.4805 156.34C99.1145 156.445 98.7485 156.497 98.3302 156.601C97.389 156.811 96.3955 157.02 95.4543 157.229C95.2452 157.281 95.0883 157.281 94.8792 157.333C94.5655 157.386 94.1994 157.438 93.8857 157.49C93.4151 157.543 92.9968 157.647 92.5262 157.699C92.3171 157.752 92.1079 157.752 91.8988 157.804C91.6374 157.856 91.3236 157.909 91.0099 157.909C90.1733 158.013 89.2844 158.118 88.4478 158.222C88.1864 158.275 87.8727 158.275 87.6112 158.327H87.5589C87.1929 158.379 86.8269 158.379 86.4609 158.431C86.0949 158.484 85.7289 158.484 85.3628 158.484C85.1537 158.484 84.8923 158.536 84.6831 158.536C84.2648 158.536 83.8988 158.588 83.5328 158.588C83.0099 158.588 82.5393 158.641 82.0164 158.641C81.4936 158.641 81.023 158.641 80.5001 158.641C80.1341 158.641 79.7681 158.641 79.4021 158.641C57.3367 158.327 37.5197 148.967 23.3498 134.118C23.3498 134.118 23.3498 134.065 23.2975 134.065C21.7289 132.654 23.0883 125.124 29.4151 120.366C37.3628 114.353 56.3955 110.588 56.3955 110.588C56.3955 110.588 63.7681 109.386 91.1145 115.085C107.114 118.431 119.297 123.294 126.095 136.471C127.507 139.19 128.918 143.373 123.951 145.569Z" fill="white"/>
<path d="M91.2713 114.51C101.311 116.549 112.03 118.745 120.291 125.386C123.062 127.634 124.892 130.928 126.409 134.118C127.141 135.687 127.873 137.307 128.448 139.033C128.762 140.183 129.232 141.49 128.971 142.85C128.918 143.216 128.605 143.687 128.343 143.948C127.141 145.151 125.833 145.883 124.526 146.824C116.84 152.157 108.003 155.922 98.853 157.909C78.4609 162.353 56.3955 158.902 38.4609 148.183C32.5001 144.575 27.0099 140.183 22.304 135.007C21.7811 134.379 21.7811 133.334 21.7811 132.654C21.8334 131.085 22.2517 129.569 22.7746 128.157C24.0295 124.915 25.6504 121.673 28.4217 119.425C30.4086 118.066 32.5524 116.915 34.7484 115.974C41.6504 113.046 48.9184 111.007 56.3955 110.17C57.023 110.118 57.1275 111.007 56.5001 111.111C49.3367 112.575 42.2256 114.771 35.585 117.752C33.1798 118.955 30.6177 120 28.6831 121.883C26.853 123.87 25.5458 126.327 24.5001 128.837C23.8203 130.353 23.3498 132.758 23.5589 133.961C26.853 137.883 30.7223 141.334 34.9053 144.314C57.8073 160.314 92.5785 161.36 116.945 148.026C119.141 146.824 121.284 145.464 123.324 144.053C124.317 143.373 125.363 142.798 126.147 142.013C126.199 141.961 126.147 142.013 126.147 142.066C126.147 142.118 126.095 142.17 126.095 142.17C126.147 141.543 125.938 140.706 125.677 139.87C124.735 136.837 123.219 133.647 121.598 130.876C119.036 126.745 114.696 124.131 110.304 122.039C107.271 120.628 104.082 119.53 100.84 118.484C97.5981 117.438 94.304 116.549 91.0099 115.765C90.1733 115.556 90.4347 114.353 91.2713 114.51Z" fill="black"/>
<path d="M141.311 177.987H9.07544C9.07544 177.987 16.8663 161.569 20.3173 142.85C22.7225 129.882 24.5003 122.301 31.2454 118.118C36.0035 115.19 49.3892 110.954 58.9055 109.595C62.7748 109.072 70.4611 108.497 77.1016 109.02C82.1212 109.647 92.4741 112.575 96.448 113.673C102.409 115.346 115.324 120.314 121.023 125.543C123.272 127.634 128.605 138.092 132.056 153.255C136.03 170.51 141.311 177.987 141.311 177.987Z" fill="black"/>
<path d="M142.513 178.614C103.873 178.98 47.2975 179.765 9.12756 179.608C7.97724 179.66 7.14064 178.353 7.66351 177.307C12.6831 166.222 16.5001 154.405 18.8531 142.431C20.7877 133.072 21.9903 121.255 31.4544 116.34C36.108 113.987 41.023 112.418 45.9903 110.954C54.7223 108.392 63.9772 107.137 73.0753 107.399C74.487 107.451 75.9511 107.503 77.4151 107.608C80.5524 108.078 83.6374 108.863 86.6701 109.647C89.389 110.327 92.1602 111.111 94.8269 111.895C95.1406 112.052 95.2452 112.68 95.4021 112.993C95.6112 113.359 95.8727 113.307 96.2387 113.15C96.3955 113.098 96.5524 112.993 96.7093 113.046C97.0753 113.098 97.5981 113.307 97.9642 113.412C106.069 116.026 114.226 119.111 121.075 124.288C122.069 125.02 122.853 126.013 123.48 127.059C124.735 129.046 125.781 131.085 126.722 133.176C129.546 139.399 131.637 145.935 133.206 152.575C135.245 160.889 137.65 169.255 141.99 176.68L142.199 176.993L142.304 177.15C142.618 177.412 142.722 178.196 142.513 178.614ZM140.108 177.359C139.847 177.673 139.899 178.353 140.108 178.614L140.056 178.51L139.951 178.301C137.546 174.536 135.768 170.353 134.252 166.222C132.683 161.987 131.48 157.49 130.435 153.098C128.918 146.614 126.931 140.235 124.265 134.17C123.114 131.608 121.964 129.046 120.239 126.902C119.245 125.908 118.095 125.072 116.892 124.288C110.879 120.418 104.134 117.595 97.3367 115.399C97.0753 115.294 96.4478 115.137 96.1341 115.033C95.8204 114.928 95.8204 114.039 95.6112 113.83C95.1406 113.412 94.6178 114.562 94.1472 114.458C91.4805 113.725 88.7093 112.993 85.9903 112.366C82.7485 111.634 79.5589 110.797 76.3171 110.536C61.9903 109.595 47.5066 112.627 34.3302 118.327C27.9511 120.941 25.5459 126.85 24.0295 133.176C22.67 138.51 21.8857 144.314 20.6308 149.699C18.2256 159.686 14.8792 169.307 10.6439 178.719L9.17985 176.418C46.304 176.314 102.461 176.889 140.108 177.359Z" fill="black"/>
<path d="M96.1863 128.418C95.0882 133.804 87.9771 137.046 76.0033 132.183C63.5588 127.163 58.1732 115.189 56.8137 111.634C64.1863 97.8298 59.0621 88.2612 59.0621 88.2612C76.0556 86.7971 90.9052 106.666 90.9052 106.666L93.2059 116.496C93.415 117.333 93.8333 118.065 94.4608 118.588C95.5588 120.523 96.866 124.967 96.1863 128.418Z" fill="white"/>
<path d="M56.5525 111.791C57.5459 110.274 58.1734 108.497 58.5917 106.771C59.376 103.163 59.6375 99.503 59.6897 95.8429V94.4834C59.5329 93.124 59.0623 91.7122 58.5394 90.4573C57.8597 88.7841 60.3172 87.7383 61.1015 89.4115C61.2061 89.6207 61.2061 89.9867 61.2061 90.1959C61.3629 97.307 61.6767 106.457 57.1799 112.366C56.8662 112.68 56.2388 112.209 56.5525 111.791Z" fill="black"/>
<path d="M91.4804 106.562C92.2647 107.033 92.5261 107.66 92.6307 108.287C92.9444 109.542 92.8399 110.902 93.1536 112.209C93.415 113.464 94.1994 114.667 94.4085 115.974C94.6699 117.333 95.4542 120.209 95.768 121.621C95.8725 121.934 95.6634 122.3 95.2974 122.353C95.0882 122.405 94.9314 122.353 94.7745 122.248C94.0948 121.673 93.7811 121.098 93.3628 120.366C92.683 119.111 92.2124 117.961 91.7941 116.549C91.4281 115.294 91.585 113.934 91.2712 112.627C91.0098 111.372 90.2778 110.17 90.0163 108.863C89.8595 108.235 89.8072 107.555 90.2778 106.771C90.5915 106.457 91.1144 106.353 91.4804 106.562Z" fill="black"/>
<path d="M95.2453 120.366C85.2584 119.843 77.1015 116.706 69.1538 102.536C75.8466 108.444 83.742 110.693 92.0558 111.738L93.1538 116.549C93.363 117.385 94.6179 119.843 95.2453 120.366Z" fill="black"/>
<path d="M94.8272 118.431C96.605 121.778 97.6507 125.961 96.5527 129.673C95.7161 132.288 93.3109 134.222 90.6965 134.954C84.6311 136.575 77.6246 134.013 72.239 131.137C65.5984 127.425 60.6834 121.203 57.5461 114.405C57.337 113.882 58.069 113.464 58.3827 113.987C59.4808 116.183 60.7357 118.327 62.1475 120.261C63.5592 122.248 65.1801 124.078 67.0102 125.699C72.3435 130.51 79.5592 133.49 86.7749 133.49C94.1997 133.281 97.0233 129.359 95.2978 122.144C95.0363 120.993 94.618 119.791 94.0429 118.797C93.7292 118.379 94.5135 117.908 94.8272 118.431Z" fill="black"/>
<path d="M115.062 55.634C116.003 60.0262 115.271 62.9543 114.853 75.085C114.644 80.8367 113.755 82.9804 113.494 89.4118C113.389 92.3399 111.245 96.3661 110.461 98.719C109.415 101.909 108.369 106.196 105.964 109.281C104.709 110.85 103.193 111.791 100.683 112.209C99.8466 112.366 99.01 111.111 98.3303 111.373C90.1211 114.98 81.1277 113.307 72.9708 106.196C69.4152 103.059 64.0819 95.4772 61.8335 90.2484C61.363 89.1504 59.2714 91.451 56.2911 88.1569C52.1603 83.6602 47.193 74.6144 49.6505 58.6144C53.6244 32.6798 74.1734 29.6471 89.3891 32.5229C104.709 35.3987 112.553 44.0785 115.062 55.634Z" fill="white"/>
<path d="M58.9054 92.758C57.7028 90.7711 56.1342 88.9933 54.7224 87.1109C52.6309 84.2351 51.0623 80.941 50.0165 77.5423C44.6309 60.7057 49.7551 37.856 68.5786 32.4181C75.4806 30.3266 82.8009 30.4835 89.8074 31.7907C99.2192 33.4116 108.631 38.222 113.232 46.9541C114.905 50.1959 116.16 53.6992 116.526 57.307C116.735 59.7122 116.317 62.1175 116.056 64.4704C115.742 66.8234 115.69 69.124 115.585 71.4769C115.324 74.9802 114.853 78.4312 114.696 81.9345C114.487 84.2874 114.644 86.6403 114.278 88.9933C113.494 93.6992 111.716 98.0913 110.252 102.536C109.102 105.934 107.951 110.117 104.448 111.843C101.938 113.359 98.9054 113.412 96.1342 113.202C95.7159 113.202 95.4022 113.098 95.0884 113.202C88.3433 114.51 82.0688 113.359 76.4218 109.281C73.7028 107.137 70.461 105.098 68.4218 102.274C68.2126 101.961 68.6309 101.595 68.8924 101.856C70.5133 103.477 72.4479 104.732 74.4348 105.934C76.4741 107.189 78.3041 108.497 80.3433 109.385C84.6832 111.477 89.546 111.791 94.2518 110.954C94.5133 110.902 95.0361 110.797 95.2976 110.849C97.0231 110.954 98.6963 111.111 100.369 110.849C102.409 110.536 104.396 109.647 105.546 107.974C106.749 106.3 107.376 104 108.213 101.804C109.834 97.4639 111.768 93.1763 112.762 88.6796C113.18 86.7449 113.285 83.8168 113.441 81.7776C113.807 77.124 114.644 72.5227 114.644 67.8168C114.696 65.4639 114.749 63.1109 114.696 60.8103C114.069 49.0979 107.324 39.0586 96.1865 34.9279C83.7943 30.2743 67.2714 30.5881 58.1734 41.4116C53.7812 46.5881 51.742 53.3854 50.8009 60.026C49.0231 70.5881 49.7028 81.0456 58.1211 88.7318L60.5786 91.2939C61.5198 92.6534 59.742 94.0129 58.9054 92.758Z" fill="black"/>
<path d="M65.0754 76.1308C65.0754 76.1308 63.4545 68.2876 55.8205 69.2288C49.2322 70.0654 46.9316 85.8562 61.8858 90.2484" fill="white"/>
<path d="M61.2061 83.3985C60.0035 82.7187 59.1669 81.5684 59.1146 80.1566C59.1669 79.1109 59.3237 77.9083 59.0623 76.8625C58.9054 75.869 57.8597 75.6076 57.0754 75.6599C56.2388 75.8168 55.7159 76.8625 55.559 77.6991C55.559 77.7514 55.5067 77.9083 55.5067 77.9606C55.4544 78.222 55.0361 78.222 54.9316 77.9606C54.2518 75.9213 55.7682 73.673 57.9642 73.9344C61.0492 74.1436 61.4675 77.3854 60.8923 79.8429C60.5786 80.8887 60.9969 81.8298 61.5721 82.7187L61.6767 82.8756C61.9381 83.1893 61.5198 83.6076 61.2061 83.3985Z" fill="black"/>
<path d="M103.036 70.5882C103.82 74.3006 105.285 77.7516 107.115 80.9934C108.735 84.9672 104.552 88.732 100.84 88.5751C100.422 88.5751 100.369 87.9999 100.735 87.8954C103.088 87.1633 105.232 85.5947 105.598 83.1895C105.755 82.4575 105.546 81.83 105.18 81.2025C103.454 77.9607 102.409 74.2483 102.67 70.5882C102.67 70.3267 103.036 70.3267 103.036 70.5882Z" fill="black"/>
<path d="M64.8137 76.1827C63.6111 73.0978 60.9967 70.1697 57.4934 70.222C57.1797 70.1697 56.6568 70.2742 56.3431 70.2742C55.4542 70.3265 54.7222 70.6403 54.0425 71.2677C50.6961 74.6141 51.2712 80.5226 53.9902 84.235C54.9314 85.5422 56.134 86.6926 57.4934 87.6337C58.8529 88.5749 60.3693 89.3069 61.9902 89.9344C62.3562 90.039 62.1993 90.6141 61.8333 90.5618C58.33 89.8298 54.9836 88.1043 52.683 85.2285C49.1274 80.9409 48.3954 73.7775 52.6307 69.5945C53.5719 68.7579 54.8791 68.1305 56.1863 68.1305C56.6046 68.1305 57.232 68.0259 57.6503 68.1305C59.8464 68.235 61.9379 69.3331 63.2974 71.0586C64.5 72.5226 65.1797 74.3004 65.3889 76.0782C65.3889 76.3919 64.9183 76.4965 64.8137 76.1827Z" fill="black"/>
<path d="M94.095 111.268C96.5002 110.745 97.9119 108.392 97.7028 105.987C97.6505 105.621 98.2257 105.516 98.278 105.882C99.1669 108.862 97.5459 112.104 94.6701 113.255C93.1538 113.83 92.5263 111.529 94.095 111.268Z" fill="black"/>
<path d="M97.8593 93.5949C97.9116 95.3204 95.3495 99.7126 90.4345 97.6734C85.6763 95.7387 84.2646 86.6407 91.0619 90.9805C94.5129 93.2812 96.709 93.6472 97.8593 93.5949Z" fill="white"/>
<path d="M98.9573 93.6473C97.5456 94.1179 96.1861 93.6996 94.8789 93.229C92.9443 92.5493 91.3757 91.2943 89.5456 90.4055C87.0358 89.2028 86.0423 90.8238 86.7221 93.1767C87.4018 95.6865 89.5979 97.8826 92.3168 97.9872C94.7221 98.2486 97.2841 96.0525 97.075 93.595C96.8658 92.5493 98.3822 92.2355 98.6436 93.229C98.5913 95.0068 97.4933 96.2617 96.343 97.3074C94.0423 99.1898 90.539 98.7715 88.2384 97.046C86.4606 95.6342 84.9966 93.3859 85.3103 90.9806C85.4149 89.9349 86.4083 88.7323 87.5064 88.68C90.0685 88.4708 91.5848 90.1963 93.5717 91.3466C95.1404 92.2355 96.9181 93.3336 98.7482 93.1767C99.0619 93.0721 99.2711 93.4904 98.9573 93.6473Z" fill="black"/>
<path d="M86.8264 91.7123C87.663 92.915 88.9702 93.5424 90.3297 93.8561C90.6434 93.9607 90.9048 93.9607 91.1663 93.9607C91.6369 93.9607 92.1074 94.3267 92.3689 94.5882C93.6238 95.5816 95.3493 95.7385 96.9179 95.7908C97.2839 95.7908 97.2839 96.4182 96.9179 96.3659C95.2447 96.2614 93.4669 96.1045 91.8983 95.3202C91.5846 95.2156 91.4277 95.111 91.1663 95.111C90.1728 95.2156 89.3885 94.5882 88.6565 94.1699C87.8199 93.6993 86.9833 93.2287 85.9898 93.0195C85.5192 92.915 85.2578 92.4967 85.3101 92.0261C85.4146 91.294 86.4604 91.0849 86.8264 91.7123Z" fill="black"/>
<path d="M85.9902 72.2092C85.9902 72.2615 85.9902 72.3138 85.9902 72.3138L85.9379 73.7778C85.8856 75.0327 84.8399 75.9739 83.585 75.9216C82.3301 75.8693 81.3889 74.7713 81.4935 73.5687L81.5458 72.1046C81.5458 71.8432 81.6503 71.5295 81.7549 71.3203L85.9379 71.5295C85.9379 71.7386 85.9902 71.9478 85.9902 72.2092Z" fill="black"/>
<path d="M107.846 73.3591L107.794 74.7186C107.742 75.869 106.748 76.7578 105.598 76.7056C104.448 76.6533 103.559 75.6598 103.611 74.5095L103.663 73.15C103.663 72.8886 103.715 72.6271 103.82 72.418L107.742 72.5748C107.794 72.8363 107.846 73.0977 107.846 73.3591Z" fill="black"/>
<path d="M91.2188 65.0456C92.3691 65.2025 93.258 63.9998 92.8397 62.8495C92.6305 62.2221 92.2645 61.6469 91.6893 61.2809C89.9116 60.1829 83.271 60.0783 79.7678 62.5881C76.6305 64.8887 85.99 64.3136 91.2188 65.0456Z" fill="black"/>
<path d="M105.702 65.6207C104.761 65.6207 104.186 64.4181 104.657 63.4246C104.918 62.9017 105.284 62.4311 105.807 62.1697C107.428 61.3854 111.768 61.856 113.702 64.5226C115.428 66.8756 110.042 65.5684 105.702 65.6207Z" fill="black"/>
<path d="M89.3362 72.2092L80.7087 72.0523C79.663 72 79.7153 70.4314 80.761 70.4837L89.3885 71.1112C90.1205 71.1634 90.0682 72.2092 89.3362 72.2092Z" fill="black"/>
<path d="M110.043 73.0978L103.663 73.2024C102.618 73.2024 102.565 71.6861 103.611 71.6338C103.663 71.6338 103.663 71.6338 103.716 71.6338L110.095 72.3135C110.565 72.3658 110.513 73.0456 110.043 73.0978Z" fill="black"/>
<path d="M109.415 20.8628C109.363 20.8628 109.311 20.8628 109.206 20.9151C109.206 20.9151 109.206 20.9151 109.154 20.9151C108.892 20.9674 108.579 21.0197 108.317 21.1242C101.572 22.7451 99.6374 26.5621 99.4282 29.9085C96.1341 29.2811 92.9446 28.5491 90.1733 27.6602C78.4086 23.8955 65.389 21.3857 56.8138 35.5033C56.8138 35.5033 52.1079 36.1308 48.9707 38.8497C44.6308 42.6667 44.9446 56 45.206 64.5752C45.5197 76.6014 55.1929 89.6732 55.7158 90.2484C59.0099 94.2223 60.8923 98.3007 60.3694 94.6406C60.2125 93.3857 59.4282 91.5556 60.1602 89.6732C47.0883 84.6536 49.4413 70.0654 55.8204 69.2288C62.5132 68.3922 64.6047 74.353 64.9707 75.817C64.9707 75.817 65.1798 80.1569 65.9642 81.4118C66.7485 82.6667 71.9249 84.7582 71.9249 84.7582C71.9249 84.7582 71.4544 75.9739 71.3498 75.085C71.2452 74.1961 66.7485 72.5229 65.9642 62.9543C65.6504 55.8432 67.1668 42.8236 86.4609 51.6602C91.0099 53.7517 101.154 56.3138 111.036 55.0589C111.036 55.0589 122.696 55.5817 128.134 45.1765C133.624 34.8236 124.003 18.0393 109.415 20.8628Z" fill="black"/>
<path d="M72.1343 85.9609C72.1343 85.9609 67.2715 83.0851 66.8532 83.4511C66.4349 83.7649 72.5526 87.2681 72.1343 85.9609Z" fill="black"/>
<path d="M72.1338 86.7451C72.1338 86.7451 68.9443 85.3334 68.4737 85.5948C67.9508 85.8562 72.709 88.2092 72.1338 86.7451Z" fill="black"/>
<path d="M59.219 77.7515C59.219 77.7515 55.036 77.124 55.3497 82.9802C55.5066 85.9606 55.5066 87.5815 55.4543 88.4181C55.402 88.9933 55.768 89.5162 56.2909 89.7253C56.9183 89.9868 57.5981 89.7253 57.9118 89.0979C58.3824 88.2613 58.9052 87.111 58.9052 86.1698C58.9052 84.6011 60.5784 83.1894 60.5784 83.1894C60.5784 83.1894 59.0621 81.8822 59.219 77.7515Z" fill="white"/>
<path d="M59.0621 77.9084C59.0621 77.9607 59.1144 78.0129 59.1667 78.0129C59.1667 78.0129 59.1667 78.0129 59.1144 78.0129H59.0098C56.5 78.2221 55.7157 80.4182 55.8203 82.6665C55.8726 84.1306 55.9771 85.5946 55.9248 87.0064C56.0294 87.7907 55.5588 88.8365 56.3431 89.2548C56.8137 89.5162 57.4412 89.3071 57.6503 88.7842C58.1209 87.843 58.5915 86.9018 58.5915 85.8561C58.8007 84.6535 59.585 83.7123 60.4216 82.9803V83.3986C59.3235 82.2482 59.0621 80.6796 58.9052 79.2156C58.9575 78.8495 58.9575 78.2744 59.0621 77.9084ZM59.4281 77.5424C59.585 79.0064 59.585 80.5227 60.2124 81.8299C60.3693 82.196 60.6307 82.6143 60.9444 82.8757C61.1536 83.0326 61.1536 83.3463 60.9444 83.5031C60.2124 84.1829 59.585 85.0195 59.4804 85.9607C59.4804 87.111 59.0098 88.209 58.4869 89.2025C58.0686 90.0914 56.866 90.562 55.9771 90.0391C55.402 89.7254 54.9837 89.0979 54.9837 88.4182C54.9837 87.8953 55.036 87.477 55.036 86.9541C55.036 85.4901 54.9314 84.0783 54.8791 82.6143C54.8791 81.6731 54.9314 80.575 55.3497 79.6339C55.8726 78.1698 57.4935 77.1763 59.0621 77.4378C59.219 77.4378 59.3758 77.4901 59.4281 77.5424Z" fill="black"/>
<path d="M58.5392 139.66C60.2647 132.131 58.0164 123.66 56.0817 116.131C55.2974 113.15 54.5131 110.327 54.1471 107.869C53.4673 103.738 53.9379 99.8168 55.6111 96.1567C57.6503 91.6077 57.3366 87.7384 57.3366 87.5815L56.2909 87.6861C56.2909 87.7384 56.6046 91.5031 54.6699 95.7384C52.9445 99.5554 52.4216 103.686 53.1013 108.026C53.5196 110.536 54.2516 113.412 55.036 116.392C56.9706 123.765 59.1667 132.131 57.4935 139.399C56.5523 143.425 58.3824 150.013 60.9967 156.601C61.415 156.653 61.7811 156.706 62.1994 156.758C59.5327 150.17 57.6503 143.529 58.5392 139.66Z" fill="black"/>
<path d="M55.5066 86.0132C55.5588 87.1636 55.5066 87.9479 55.5066 88.4185C55.4543 88.9936 55.8203 89.5165 56.3432 89.7256C56.9706 89.9871 57.6503 89.7256 57.9641 89.0982C58.4347 88.2616 58.9575 87.1113 58.9575 86.1701C58.9575 86.1178 58.9575 86.0132 58.9575 85.9609C57.9118 86.3792 56.6569 86.693 55.5066 86.0132Z" fill="white"/>
<path d="M55.6634 86.2221C55.7157 86.9542 55.768 87.6339 55.768 88.3659C55.7157 88.6796 55.8203 88.9934 56.0295 89.2548C56.7092 89.9345 57.6504 89.5162 57.9118 88.6796C58.3301 87.843 58.6961 86.9542 58.6961 86.013L59.0621 86.2744C57.9118 86.4836 56.7092 86.7973 55.6112 86.3267C55.6112 86.3267 55.6634 86.2744 55.6634 86.2221ZM55.402 85.7515C55.5066 85.7515 55.7157 85.8038 55.8203 85.9084C56.7615 86.5881 57.9641 86.2744 58.9053 85.7515C59.0621 85.647 59.3236 85.8038 59.2713 86.013C59.219 87.2156 58.7484 88.3659 58.121 89.4117C57.5458 90.196 56.3432 90.2483 55.6634 89.5685C55.3497 89.2548 55.1929 88.7319 55.2451 88.3136C55.2451 87.4247 55.3497 86.5881 55.402 85.7515Z" fill="black"/>
<path d="M104.761 120.784C105.65 114.614 104.814 110.222 104.5 108.915C104.343 109.02 104.239 109.176 104.082 109.281C103.925 109.438 103.768 109.542 103.611 109.699C103.925 111.373 104.5 115.346 103.716 120.627C103.35 123.085 103.245 126.954 103.193 131.451C103.088 135.791 101.729 146.614 100.108 156.863C100.474 156.758 100.84 156.654 101.206 156.601C102.827 146.458 104.134 135.843 104.239 131.503C104.343 127.007 104.395 123.19 104.761 120.784Z" fill="black"/>
<path d="M151.193 44.0785C182.931 105.203 127.141 174.17 60.6307 157.333C30.7745 149.909 6.7745 124.026 1.80718 93.6471C-3.83988 63.4249 9.80718 30.9543 35.3235 13.8563C70.3039 -10.196 118.775 -2.19602 143.82 32.2092C143.977 32.3661 143.925 32.6275 143.716 32.7844C143.559 32.9412 143.297 32.889 143.141 32.6798C139.69 28.2354 135.768 24.2092 131.48 20.6014C124.422 14.5883 116.16 9.88241 107.428 6.69287C62.9837 -9.41171 14.1993 17.3595 4.47385 63.8432C-6.50654 115.922 37.781 163.869 90.5915 156.706C131.324 151.582 161.598 113.987 158.252 73.0981C157.52 63.2157 154.905 53.438 150.565 44.4445C150.461 44.2876 150.565 44.0785 150.722 43.9739C150.879 43.8693 151.088 43.9216 151.193 44.0785Z" fill="black"/>
</g>
</svg>
