<svg width="141" height="140" viewBox="0 0 141 140" fill="none" xmlns="http://www.w3.org/2000/svg">
<mask id="mask0_235_2804" style="mask-type:alpha" maskUnits="userSpaceOnUse" x="0" y="0" width="141" height="140">
<circle cx="70.2705" cy="69.7705" r="69.7705" fill="#D9D9D9"/>
</mask>
<g mask="url(#mask0_235_2804)">
<path d="M108.52 127.372C108.2 127.601 107.834 127.83 107.513 128.059C107.147 128.287 106.827 128.516 106.461 128.699C106.141 128.882 105.866 129.065 105.546 129.248C105.5 129.294 105.455 129.294 105.409 129.34C104.356 129.98 103.258 130.575 102.16 131.124C101.84 131.307 101.474 131.49 101.154 131.627C101.154 131.627 101.108 131.673 101.062 131.673C100.696 131.856 100.33 132.039 99.9643 132.222C99.2323 132.588 98.4545 132.908 97.7225 133.229C97.3565 133.412 96.9447 133.549 96.5787 133.686C96.2127 133.823 95.8009 134.006 95.4349 134.144C95.0689 134.281 94.6571 134.464 94.2911 134.601C94.2911 134.601 94.2911 134.601 94.2454 134.601C93.8794 134.738 93.4676 134.876 93.1016 135.013C92.2781 135.287 91.4088 135.562 90.5853 135.836C90.3107 135.928 89.9905 136.019 89.716 136.111C88.8467 136.385 87.9774 136.614 87.1081 136.797C86.7879 136.889 86.4676 136.934 86.1016 137.026C85.2781 137.209 84.4088 137.392 83.5853 137.575C83.4022 137.621 83.265 137.621 83.082 137.667C82.8075 137.712 82.4872 137.758 82.2127 137.804C81.8009 137.85 81.4349 137.941 81.0232 137.987C80.8402 138.033 80.6571 138.033 80.4741 138.078C80.2454 138.124 79.9709 138.17 79.6964 138.17C78.9643 138.261 78.1866 138.353 77.4545 138.444C77.2258 138.49 76.9513 138.49 76.7225 138.536H76.6768C76.3565 138.582 76.0362 138.582 75.716 138.627C75.3957 138.673 75.0755 138.673 74.7552 138.673C74.5722 138.673 74.3434 138.719 74.1604 138.719C73.7944 138.719 73.4741 138.765 73.1539 138.765C72.6964 138.765 72.2846 138.81 71.8271 138.81C71.3696 138.81 70.9578 138.81 70.5003 138.81C70.18 138.81 69.8598 138.81 69.5395 138.81C50.2323 138.536 32.8924 130.346 20.4938 117.353C20.4938 117.353 20.4937 117.307 20.448 117.307C19.0754 116.072 20.265 109.484 25.8009 105.32C32.7552 100.059 49.4088 96.7646 49.4088 96.7646C49.4088 96.7646 55.8598 95.7123 79.7879 100.699C93.7879 103.627 104.448 107.882 110.396 119.412C111.631 121.791 112.866 125.451 108.52 127.372Z" fill="white"/>
<path d="M79.925 100.196C88.7093 101.98 98.0884 103.902 105.317 109.712C107.742 111.679 109.343 114.562 110.67 117.353C111.311 118.725 111.951 120.144 112.454 121.653C112.729 122.66 113.141 123.804 112.912 124.993C112.866 125.313 112.592 125.725 112.363 125.954C111.311 127.006 110.167 127.647 109.023 128.47C102.298 133.137 94.5655 136.431 86.559 138.17C68.7159 142.059 49.4087 139.039 33.7159 129.66C28.5002 126.503 23.6963 122.66 19.5786 118.13C19.1211 117.581 19.1211 116.666 19.1211 116.072C19.1668 114.699 19.5329 113.372 19.9904 112.137C21.0884 109.3 22.5067 106.464 24.9316 104.496C26.6701 103.307 28.5459 102.3 30.4675 101.477C36.5067 98.9148 42.8662 97.1305 49.4087 96.3984C49.9577 96.3527 50.0492 97.1305 49.5002 97.222C43.2322 98.503 37.01 100.425 31.1995 103.032C29.0949 104.085 26.8531 105 25.1603 106.647C23.559 108.385 22.4152 110.536 21.5002 112.732C20.9054 114.059 20.4936 116.163 20.6766 117.215C23.559 120.647 26.9446 123.666 30.6048 126.274C50.644 140.274 81.0688 141.189 102.389 129.523C104.311 128.47 106.186 127.281 107.971 126.045C108.84 125.451 109.755 124.947 110.441 124.261C110.487 124.215 110.441 124.261 110.441 124.307C110.441 124.353 110.396 124.398 110.396 124.398C110.441 123.849 110.258 123.117 110.03 122.385C109.206 119.732 107.879 116.941 106.461 114.516C104.219 110.902 100.422 108.614 96.5786 106.784C93.925 105.549 91.1342 104.588 88.2976 103.673C85.461 102.758 82.5786 101.98 79.6963 101.294C78.9642 101.111 79.193 100.059 79.925 100.196Z" fill="black"/>
<path d="M123.709 155.739H8.00293C8.00293 155.739 9.87875 136.889 17.016 121.837C19.6238 116.347 20.4931 108.295 25.6631 104.772C30.9702 101.157 42.2709 98.275 46.2055 97.8175C48.4016 97.543 47.8984 97.36 49.4539 96.9482C49.9572 98.3208 55.0356 111.772 67.2055 116.713C77.6827 120.968 83.9049 118.131 84.8657 113.419C85.4604 110.399 83.5846 105.458 82.6238 103.857C82.0748 103.399 81.7088 102.713 81.5258 102.027L81.1598 100.517C81.9833 100.334 82.7611 100.105 83.5846 99.8764C83.9964 99.9679 84.4539 99.9221 84.8199 100.151C88.6631 102.255 100.238 105.229 106.277 111.589C108.657 114.059 112.362 122.844 112.957 128.563C114.65 144.255 123.709 155.739 123.709 155.739Z" fill="white"/>
<path d="M124.35 156.014C90.036 156.105 41.8595 156.517 8.04903 156.38C7.63727 156.38 7.31701 156.014 7.36276 155.602C7.77452 152.354 8.32354 149.197 8.96406 145.994C10.6569 137.256 13.219 128.654 17.0621 120.648C18.6177 116.896 19.3954 112.962 21.2713 109.301C22.3693 107.105 24.0163 105.001 26.2124 103.765C29.7353 101.661 33.6242 100.334 37.5131 99.1446C39.8464 98.4583 42.2255 97.8178 44.6046 97.3603C45.7941 97.0858 46.9837 97.1315 48.0817 96.674C48.6765 96.4452 49.8203 95.759 50.1863 96.6282C53.5262 105.275 59.9771 113.465 68.9902 116.53C73.6569 118.223 81.7549 119.641 84.134 113.922C84.866 111.772 84.1797 109.439 83.5392 107.288C83.1732 106.19 82.7157 105.047 82.1667 104.132L82.3039 104.269C81.4804 103.582 81.0229 102.484 80.8856 101.478L80.6569 100.563C80.5654 100.197 80.7941 99.8308 81.1601 99.7393C81.9837 99.6021 82.8072 99.3276 83.6307 99.0988C84.0882 99.0988 84.8203 99.1903 85.415 99.5106C90.4477 101.844 96.1667 103.537 100.971 106.465C103.67 108.066 106.415 109.942 108.154 112.641C111.356 117.994 113.415 124.079 114.01 130.256C115.291 139.086 118.859 147.55 123.984 154.824L124.167 155.053L124.258 155.145L124.304 155.19C124.304 155.19 124.304 155.145 124.35 155.282C124.395 155.556 124.395 155.877 124.35 156.014ZM123.114 155.419C123.023 155.556 123.023 155.877 123.114 156.014C123.206 156.105 123.16 156.06 123.16 156.06L123.114 156.014L123.023 155.877L122.84 155.648C119.958 151.256 117.578 146.543 115.84 141.648C114.467 138.033 113.461 134.282 112.912 130.439C112.729 129.066 112.5 127.236 112.18 125.909C111.127 121.517 109.435 117.125 107.01 113.328C106.232 112.092 105.088 111.132 103.944 110.216C100.33 107.471 96.0752 105.779 91.866 104.132L87.5654 102.53C86.1471 101.981 84.4543 101.386 83.585 100.517H83.951C83.1275 100.792 82.3039 101.02 81.4804 101.203L81.9837 100.38L82.2124 101.295C82.3954 102.118 82.5784 102.85 83.219 103.399C83.2647 103.445 83.3105 103.491 83.3562 103.537C84.5915 105.779 85.3235 108.112 85.6895 110.628C86.4673 114.975 83.7222 118.406 79.5131 119.23C73.7026 120.373 66.7484 117.857 61.9445 114.609C55.9052 110.354 51.5588 104.04 48.9052 97.223L49.7288 97.6348C49.317 97.772 49.0425 97.9093 48.6307 98.0923C48.219 98.321 47.7157 98.4583 47.2582 98.5498C47.3039 98.8243 47.1667 98.0008 47.3497 99.0988C46.4804 99.1903 45.7941 99.2361 44.9706 99.4191C42.6373 99.7851 40.3039 100.334 38.0164 100.975C34.951 101.798 31.9314 102.805 29.0948 104.132C27.6765 104.818 26.3039 105.55 25.2516 106.511C24.1536 107.471 23.2843 108.752 22.5523 110.125C20.402 114.288 19.3497 119.275 17.1536 123.484C12.5784 133.687 10.0164 144.805 8.78106 155.922L8.09478 155.19C41.3105 155.053 89.3497 155.236 123.114 155.419Z" fill="black"/>
<path d="M86.5592 125.818C84.9579 126.275 79.3762 120.465 78.2324 119.458C77.1801 120.648 69.7684 129.02 66.1082 128.471C62.0821 127.876 51.788 120.968 46.5723 110.125C43.6899 104.177 43.5984 100.563 43.9187 98.5954C44.056 97.6804 44.3305 97.0856 44.4677 96.7653C44.9252 95.7131 48.2194 91.6412 49.0429 91.6869V91.7327C49.4546 96.1248 50.8729 100.38 53.252 104.086C56.1801 108.615 60.801 114.059 67.252 116.667C77.7292 120.922 83.1736 116.713 84.0886 112.001C84.6834 108.981 83.6311 105.412 82.6703 103.811C82.1213 103.354 81.7553 102.667 81.5723 101.981L81.2063 100.471C82.0298 100.288 82.8076 100.059 83.6311 99.8307C83.8599 99.7392 84.1344 99.6934 84.3631 99.6019C84.5004 99.7849 84.6834 99.968 84.8207 100.151C86.7422 102.347 88.7553 105.367 89.8533 110.491C91.6834 118.68 88.3435 125.269 86.5592 125.818Z" fill="black"/>
<path d="M78.0947 119.184C78.0947 119.184 81.4346 121.105 81.3431 122.706C81.2516 124.308 82.2124 129.386 82.2124 129.386" stroke="black" stroke-width="3" stroke-miterlimit="10" stroke-linecap="round" stroke-linejoin="round"/>
<path d="M78.0492 125.268C78.6556 125.268 79.1472 124.777 79.1472 124.17C79.1472 123.564 78.6556 123.072 78.0492 123.072C77.4428 123.072 76.9512 123.564 76.9512 124.17C76.9512 124.777 77.4428 125.268 78.0492 125.268Z" fill="black"/>
<path d="M78.4145 129.569C79.0209 129.569 79.5125 129.078 79.5125 128.471C79.5125 127.865 79.0209 127.373 78.4145 127.373C77.808 127.373 77.3164 127.865 77.3164 128.471C77.3164 129.078 77.808 129.569 78.4145 129.569Z" fill="black"/>
<path d="M30.6506 155.739L28.5918 138.765" stroke="#544D4D" stroke-width="3" stroke-miterlimit="10" stroke-linecap="round" stroke-linejoin="round"/>
<path d="M110.579 133C110.579 133 109.206 136.34 109.618 139.68C110.03 143.02 111.219 147.915 109.526 155.739" stroke="#544D4D" stroke-width="3" stroke-miterlimit="10" stroke-linecap="round" stroke-linejoin="round"/>
<path d="M49.0419 91.6867C49.0419 91.6867 63.8197 87.1115 84.4079 99.556C84.4079 99.556 90.0811 114.837 86.5582 117.17C83.0354 119.504 71.9635 119.732 64.2314 117.17C56.4537 114.654 46.4798 102.072 49.0419 91.6867Z" fill="black"/>
<path d="M84.2254 112.366C83.2646 117.078 77.0424 119.915 66.5653 115.66C55.6764 111.268 50.964 100.791 49.7744 97.6796C56.2254 85.6012 51.7417 77.2286 51.7417 77.2286C66.611 75.9476 79.6045 93.3332 79.6045 93.3332L81.6176 101.934C81.8006 102.667 82.1666 103.307 82.7156 103.765C83.6764 105.457 84.8202 109.346 84.2254 112.366Z" fill="white"/>
<path d="M49.5455 97.8165C50.4148 96.4897 50.9638 94.9341 51.3298 93.4243C52.0161 90.2675 52.2449 87.0649 52.2906 83.8622V82.6727C52.1534 81.4832 51.7416 80.2479 51.2841 79.1498C50.6893 77.6858 52.8396 76.7707 53.5259 78.2348C53.6174 78.4178 53.6174 78.7381 53.6174 78.9211C53.7547 85.1433 54.0292 93.1498 50.0945 98.3198C49.82 98.5943 49.271 98.1825 49.5455 97.8165Z" fill="black"/>
<path d="M80.107 93.2417C80.7933 93.6535 81.0221 94.2025 81.1136 94.7515C81.3881 95.8495 81.2966 97.0391 81.5711 98.1829C81.7998 99.2809 82.4861 100.333 82.6691 101.477C82.8979 102.667 83.5841 105.183 83.8587 106.418C83.9502 106.693 83.7672 107.013 83.4469 107.059C83.2639 107.104 83.1266 107.059 82.9894 106.967C82.3946 106.464 82.1201 105.961 81.7541 105.32C81.1593 104.222 80.7475 103.216 80.3815 101.98C80.0613 100.882 80.1985 99.6927 79.924 98.5489C79.6953 97.4508 79.0547 96.3986 78.826 95.2548C78.6887 94.7057 78.643 94.111 79.0547 93.4247C79.3292 93.1502 79.7868 93.0587 80.107 93.2417Z" fill="black"/>
<path d="M83.4014 105.32C74.6628 104.863 67.5255 102.117 60.5713 89.7188C66.4275 94.8887 73.336 96.856 80.6105 97.771L81.5713 101.98C81.7543 102.712 82.8523 104.863 83.4014 105.32Z" fill="black"/>
<path d="M83.0361 103.627C84.5917 106.556 85.5067 110.216 84.5459 113.464C83.8139 115.752 81.7093 117.444 79.4217 118.085C74.1145 119.503 67.9838 117.261 63.2714 114.745C57.4609 111.497 53.1603 106.052 50.4152 100.105C50.2322 99.6471 50.8727 99.2811 51.1472 99.7386C52.108 101.66 53.206 103.536 54.4413 105.229C55.6766 106.967 57.0949 108.569 58.6962 109.987C63.3629 114.196 69.6766 116.804 75.9903 116.804C82.4871 116.621 84.9577 113.19 83.4479 106.876C83.2191 105.869 82.8531 104.817 82.3498 103.948C82.0753 103.582 82.7616 103.17 83.0361 103.627Z" fill="black"/>
<path d="M100.742 48.6791C101.566 52.5222 99.9642 54.2608 99.9642 64.5549C99.9642 69.7248 100.422 73.019 98.912 79.2869C98.2257 82.1693 96.0753 85.6922 94.6113 88.3458C93.1472 90.9994 94.108 95.4373 91.6374 97.4961C84.2257 103.673 75.2584 101.934 67.1146 96.7183C66.7943 96.5353 65.01 94.4307 64.461 94.019C62.5852 92.6007 59.474 91.0909 58.559 90.1758C55.9969 87.6595 57.9185 83.2216 56.3629 80.6137C54.3499 77.2739 51.925 79.9732 49.3172 77.0909C45.7028 73.1562 41.3564 65.2412 43.5067 51.2412C46.9838 28.5484 64.9642 25.8948 78.278 28.4111C91.6832 30.9732 98.5459 38.568 100.742 48.6791Z" fill="white"/>
<path d="M51.6048 81.1629C50.5525 79.4243 49.2257 77.9145 47.9904 76.2675C46.1604 73.7511 44.7878 70.9603 43.8728 68.0322C39.9382 55.4505 42.0885 39.0714 53.8009 31.2936C64.5068 24.0649 85.3238 26.3524 94.6114 35.274C98.729 38.9799 102.709 46.7119 101.84 52.2936C101.062 56.274 100.376 60.2087 100.513 64.2806C100.513 66.2936 100.742 68.3067 100.742 70.3655C100.879 74.4832 100.147 78.6466 98.5918 82.4897C97.814 84.4113 96.8532 86.2413 95.8009 88.0257C95.6179 88.3002 95.4806 88.7119 95.3891 89.2152C95.0231 90.6792 94.8401 92.1433 94.5199 93.6531C94.1538 95.2544 93.7421 97.0845 92.3695 98.274C88.5721 101.339 83.4937 102.254 78.7813 101.888C75.4872 101.614 72.2846 100.745 69.3107 99.3263C66.7029 97.7708 64.9643 95.2544 62.7682 93.2413C62.5395 93.0126 62.814 92.6466 63.0885 92.7838C64.6898 93.6531 66.6114 95.2087 68.0754 96.3525C69.6767 97.6793 71.3238 98.2283 73.1996 98.7773C75.0754 99.3263 76.997 99.7381 78.9185 99.8753C83.1735 100.196 87.7486 99.4178 91.18 96.7642C92.095 95.8949 92.4153 94.5224 92.7355 93.2413C93.1473 91.5028 93.3761 89.6727 93.9708 87.9799C94.0623 87.7054 94.2453 87.3394 94.3826 87.1564C95.4806 85.5093 96.4872 83.7707 97.3107 81.9864C99.0035 78.3721 99.8728 74.4374 99.8728 70.457C99.8728 68.444 99.6898 66.4309 99.644 64.4178C99.5983 61.3525 99.5525 58.2871 99.827 55.2217C99.9643 53.7119 100.193 52.2936 100.147 50.8296C99.5525 45.6139 97.082 40.4897 93.4218 36.7381C85.5068 28.6858 70.5003 26.3982 60.1146 30.2413C47.8532 34.8165 44.6506 47.2152 43.9643 59.0649C43.5068 66.1564 45.6571 73.1106 51.0101 78.006L53.1604 80.2479C53.8924 81.0714 52.3369 82.2609 51.6048 81.1629Z" fill="black"/>
<path d="M57.0036 66.6137C57.0036 66.6137 55.5853 59.7509 48.9055 60.5745C43.1408 61.3065 41.1278 75.1235 54.2127 78.9666" fill="white"/>
<path d="M53.618 72.9731C52.5657 72.3783 51.8337 71.3718 51.7879 70.1365C51.8337 69.2215 51.9709 68.1692 51.7422 67.2541C51.6049 66.3849 50.6899 66.1561 50.0036 66.2019C49.2716 66.3391 48.8141 67.2541 48.6768 67.9862C48.6768 68.0319 48.6311 68.1692 48.6311 68.2149C48.5853 68.4437 48.2193 68.4437 48.1278 68.2149C47.533 66.4306 48.8598 64.4633 50.7814 64.6921C53.4808 64.8751 53.8468 67.7117 53.3435 69.862C53.069 70.777 53.435 71.6006 53.9383 72.3783L54.0298 72.5156C54.2585 72.7901 53.8925 73.1561 53.618 72.9731Z" fill="black"/>
<path d="M90.2194 61.7643C90.9057 65.0127 92.1868 68.0323 93.7881 70.8689C95.2064 74.346 91.5462 77.6402 88.2979 77.5029C87.9318 77.5029 87.8861 76.9996 88.2064 76.9081C90.2652 76.2676 92.141 74.8951 92.4613 72.7905C92.5985 72.15 92.4155 71.6009 92.0952 71.0519C90.5854 68.2153 89.6704 64.967 89.8992 61.7643C89.8992 61.5356 90.2194 61.5356 90.2194 61.7643Z" fill="black"/>
<path d="M56.7743 66.6597C55.722 63.9603 53.4344 61.3982 50.3691 61.444C50.0946 61.3982 49.637 61.4897 49.3625 61.4897C48.5848 61.5355 47.9442 61.81 47.3495 62.359C44.4214 65.2871 44.9246 70.4571 47.3037 73.7054C48.1272 74.8492 49.1795 75.8557 50.3691 76.6793C51.5586 77.5028 52.8854 78.1433 54.3037 78.6923C54.624 78.7838 54.4867 79.2871 54.1665 79.2414C51.1011 78.6008 48.173 77.091 46.1599 74.5747C43.0488 70.8231 42.4083 64.5551 46.1142 60.895C46.9377 60.1629 48.0815 59.6139 49.2253 59.6139C49.5913 59.6139 50.1403 59.5224 50.5063 59.6139C52.4279 59.7054 54.258 60.6662 55.4475 62.176C56.4998 63.457 57.0946 65.0126 57.2776 66.5682C57.2776 66.8427 56.8658 66.9342 56.7743 66.6597Z" fill="black"/>
<path d="M86.7422 82.0784C83.8141 84.8693 78.2782 82.6274 76.8141 79.2418C76.6311 78.83 77.0886 78.464 77.4546 78.647C78.2324 79.0588 78.9187 79.4706 79.6507 79.7908C81.7553 80.7516 83.9514 81.5294 86.2847 81.3006C86.7422 81.2091 87.0625 81.7581 86.7422 82.0784Z" fill="#040404"/>
<path d="M75.3039 63.1831C75.3039 63.2288 75.3039 63.2746 75.3039 63.2746L75.2581 64.5556C75.2124 65.6536 74.2974 66.4772 73.1993 66.4314C72.1013 66.3857 71.2777 65.4249 71.3692 64.3726L71.415 63.0915C71.415 62.8628 71.5065 62.5883 71.598 62.4053L75.2581 62.5883C75.2581 62.7713 75.3039 62.9543 75.3039 63.1831Z" fill="black"/>
<path d="M94.4285 64.1897L94.3828 65.3793C94.337 66.3858 93.4677 67.1636 92.4612 67.1178C91.4546 67.0721 90.6769 66.2028 90.7226 65.1963L90.7684 64.0067C90.7684 63.778 90.8141 63.5492 90.9056 63.3662L94.337 63.5035C94.3828 63.7322 94.4285 63.961 94.4285 64.1897Z" fill="black"/>
<path d="M79.8792 56.9154C80.8857 57.0526 81.6635 56.0004 81.2975 54.9938C81.1145 54.4448 80.7942 53.9415 80.2909 53.6213C78.7354 52.6605 72.9249 52.569 69.8596 54.7651C67.1145 56.7781 75.304 56.2749 79.8792 56.9154Z" fill="black"/>
<path d="M92.5519 57.4184C91.7284 57.4184 91.2251 56.3661 91.6369 55.4968C91.8656 55.0393 92.1859 54.6276 92.6434 54.3988C94.0617 53.7125 97.8591 54.1243 99.5519 56.4576C101.062 58.5164 96.3493 57.3726 92.5519 57.4184Z" fill="black"/>
<path d="M78.2324 63.1838L70.6834 63.0465C69.7683 63.0008 69.8141 61.6282 70.7291 61.674L78.2781 62.223C78.9186 62.2687 78.8729 63.1838 78.2324 63.1838Z" fill="black"/>
<path d="M96.3499 63.9607L90.7682 64.0522C89.8531 64.0522 89.8074 62.7254 90.7224 62.6797C90.7682 62.6797 90.7682 62.6797 90.8139 62.6797L96.3956 63.2745C96.8074 63.3202 96.7616 63.915 96.3499 63.9607Z" fill="black"/>
<path d="M99.554 74.4381C99.6455 77.1375 99.7828 78.876 99.7828 78.876L104.953 77.4577C104.953 77.4577 103.397 68.4904 104.175 60.7584C105.685 46.1179 104.175 42.0002 104.175 42.0002C103.397 38.2028 100.881 34.8172 95.2991 33.8107C93.6063 32.7584 91.7305 31.9348 89.6717 31.2486C82.3057 28.6407 66.1096 23.1963 53.6651 31.3858C41.2207 39.5754 40.7632 54.8107 39.0704 64.9675C37.3776 75.1244 26.3057 82.5362 26.3057 82.5362L28.8678 86.1963C30.2403 87.2028 33.9462 82.6734 34.541 82.5362C35.1357 82.3989 31.2011 87.1571 31.2011 87.1571C32.2076 91.229 36.5083 93.6081 36.5083 93.6081C36.5083 93.6081 43.188 89.3074 41.8155 91.2747C40.4429 93.242 37.8808 94.7976 37.8808 94.7976C37.8808 94.7976 44.5606 100.7 47.3057 100.196C50.0508 99.693 53.9854 93.425 53.6651 94.7976C53.3906 96.1701 51.1488 101.203 51.1488 101.203L54.7632 103.262C66.1553 99.6015 57.0965 85.2355 63.5932 76.4054C70.0442 67.5754 61.8089 62.8629 66.9789 59.9348C68.3057 59.1571 69.5867 58.3335 70.7305 57.4185L78.1423 58.6996C78.1423 58.6996 82.9462 58.608 81.5736 49.0002C81.0704 45.4773 82.2599 41.7257 82.7174 40.4904C82.7632 40.4904 82.7632 40.4904 82.8089 40.4904C82.6259 41.7257 82.3057 45.3858 83.358 50.0982C84.822 56.7322 80.2468 59.2943 80.2468 59.2943L84.8678 60.7584C89.5802 58.425 85.7828 50.9675 84.8678 45.0198C84.5932 43.0982 84.9593 41.9087 85.5998 41.2224C88.8024 42.1832 90.8612 43.2812 91.0442 42.3205C98.5932 44.1963 98.6847 54.1244 98.9135 54.3989C98.822 56.229 98.5932 59.3401 98.5475 63.3662C98.5475 65.242 98.7305 68.8564 98.5932 70.961C98.456 73.5231 98.2272 75.9022 97.8612 78.2812C97.1749 81.9414 96.1227 85.7845 94.6129 88.1636C91.5932 92.876 89.2142 96.8564 84.8678 98.8695C80.5671 100.837 75.6717 101.249 75.6717 101.249C75.6717 101.249 77.0442 102.118 80.2926 102.301C83.541 102.484 85.8743 101.203 88.2534 100.837C90.6325 100.425 96.0769 101.935 96.0769 101.935C96.6717 100.883 96.2599 96.9937 96.8547 97.7714C97.4495 98.5492 97.358 101.935 97.358 101.935L102.253 102.804C103.306 100.334 103.443 95.9414 103.443 95.9414C103.443 95.2094 103.397 94.4773 103.351 93.6538C102.574 85.876 99.5083 84.5492 99.554 74.4381Z" fill="black"/>
<path d="M80.5659 72.1039C78.4613 72.1496 71.9646 72.1954 69.9515 72.2411C66.4744 72.2869 63.8665 69.2673 64.1868 65.8359C64.2325 64.6921 64.1868 63.0908 64.2325 61.947C64.324 58.9732 66.9776 56.4568 69.9515 56.5483L77.6835 56.6398C78.2783 56.6398 79.9711 56.6856 80.5659 56.6856C83.0365 56.6398 85.3698 58.4699 85.9188 60.8947C86.1018 61.581 86.0561 62.313 86.0561 62.9078V66.7967C86.0103 69.679 83.4482 72.1496 80.5659 72.1039ZM80.5659 71.0973C82.9449 71.1888 85.141 69.13 85.1868 66.7509C85.2325 65.5156 85.1868 64.1888 85.1868 62.9078C85.4613 60.1169 83.3567 57.5549 80.5201 57.6464C78.5528 57.6921 71.9646 57.7379 69.9057 57.7836C67.4351 57.7836 65.3306 60.0254 65.5136 62.496C65.5136 62.8163 65.5136 63.6398 65.5136 63.9601C65.5593 64.9666 65.4221 66.7052 65.6508 67.6202C66.1083 69.5418 67.9384 71.0058 69.9057 71.0058H70.8665C72.1933 71.0058 79.1933 71.0973 80.5659 71.0973Z" fill="black"/>
<path d="M99.0039 57.8754L95.3895 57.9212C94.3829 57.9669 93.1934 57.7839 92.3241 58.3787C91.5006 58.9277 91.1346 59.9343 91.1803 60.8951C91.1803 62.0846 91.1803 63.3199 91.1346 64.5094L91.0888 64.3264C91.7293 66.5683 92.5986 68.7186 93.9254 70.5944L93.4679 70.3199C93.8339 70.4114 94.4744 70.4114 94.8405 70.4114C96.213 70.4571 97.8143 70.5486 99.1869 70.5486C100.468 70.5486 101.703 69.5879 101.978 68.3068C102.069 67.9408 102.069 67.3003 102.069 66.9343C102.069 64.967 102.115 63.0454 102.023 61.0781C102.115 59.3395 100.788 57.7839 99.0039 57.8754ZM99.0039 56.5029C101.429 56.5029 103.121 58.8362 102.71 61.1238C102.618 63.0911 102.664 65.0127 102.664 66.98C102.893 69.2676 101.52 71.3264 99.1411 71.5094C98.1346 71.5552 97.1738 71.5552 96.213 71.6009C95.7097 71.6009 94.4744 71.6924 94.0169 71.6924C93.7882 71.7382 93.4222 71.6924 93.1934 71.6924C93.0104 71.6924 92.8274 71.5552 92.7359 71.4179C91.3176 69.3134 90.311 66.98 89.7163 64.5552C89.7163 62.9996 89.579 61.4441 89.7163 59.8885C89.9908 58.0585 91.6378 56.5029 93.5137 56.4571C94.7947 56.4114 97.7228 56.5029 99.0039 56.5029Z" fill="black"/>
<path d="M85.5531 60.7117C86.7884 60.1627 88.161 59.934 89.5335 60.0255C89.991 60.0712 90.4485 60.2085 90.8603 60.5745L91.4551 61.0778C92.0498 61.581 91.3178 62.4503 90.723 61.947C89.991 61.3065 89.1217 61.398 88.2525 61.4438C87.3832 61.5353 86.5596 61.7183 85.7361 62.0385C84.9583 62.3588 84.4551 61.215 85.1871 60.849L85.5531 60.7117Z" fill="black"/>
<path d="M64.9646 62.3589C64.6443 63.0909 64.2783 63.1824 63.6835 63.1367L62.3567 63.1824C59.7031 63.1824 57.0038 63.1367 54.3502 62.7249C53.4352 62.6791 53.3894 61.3981 54.3045 61.3523L64.9188 60.9863C65.2391 60.9863 65.4679 61.3066 65.3306 61.5811L64.9646 62.3589Z" fill="black"/>
<path d="M132.356 38.5689C160.128 92.0525 111.311 152.399 53.1146 137.667C26.9904 131.17 5.99041 108.523 1.64401 81.9414C-3.29717 55.497 8.64401 27.0852 30.9708 12.1244C61.5786 -8.92133 103.99 -1.92134 125.905 28.1832C126.043 28.3205 125.997 28.5493 125.814 28.6865C125.677 28.8238 125.448 28.778 125.311 28.595C122.291 24.7061 118.86 21.1832 115.108 18.0264C108.932 12.7649 101.703 8.64729 94.0623 5.85644C55.1734 -8.23506 12.4871 15.1898 3.97734 55.863C-5.6305 101.432 33.1211 143.386 79.3303 137.118C114.971 132.634 141.461 99.7388 138.533 63.961C137.892 55.314 135.605 46.7584 131.807 38.8891C131.716 38.7519 131.807 38.5689 131.945 38.4774C132.082 38.3859 132.265 38.4316 132.356 38.5689Z" fill="black"/>
</g>
</svg>
