<svg width="161" height="160" viewBox="0 0 161 160" fill="none" xmlns="http://www.w3.org/2000/svg">
<mask id="mask0_426_10312" style="mask-type:alpha" maskUnits="userSpaceOnUse" x="0" y="0" width="160" height="160">
<circle cx="80.2377" cy="79.7377" r="79.7377" fill="#D9D9D9"/>
</mask>
<g mask="url(#mask0_426_10312)">
<path d="M123.951 145.569C123.585 145.83 123.167 146.092 122.801 146.353C122.382 146.614 122.016 146.876 121.598 147.085C121.232 147.294 120.918 147.503 120.552 147.713C120.5 147.765 120.448 147.765 120.396 147.817C119.193 148.549 117.938 149.229 116.683 149.856C116.317 150.065 115.899 150.275 115.533 150.431C115.533 150.431 115.48 150.484 115.428 150.484C115.01 150.693 114.592 150.902 114.173 151.111C113.337 151.53 112.448 151.896 111.611 152.262C111.193 152.471 110.722 152.628 110.304 152.784C109.886 152.941 109.415 153.15 108.997 153.307C108.579 153.464 108.108 153.673 107.69 153.83C107.69 153.83 107.69 153.83 107.637 153.83C107.219 153.987 106.748 154.144 106.33 154.301C105.389 154.614 104.396 154.928 103.454 155.242C103.141 155.347 102.775 155.451 102.461 155.556C101.467 155.869 100.474 156.131 99.4805 156.34C99.1145 156.445 98.7485 156.497 98.3302 156.601C97.389 156.811 96.3955 157.02 95.4543 157.229C95.2452 157.281 95.0883 157.281 94.8792 157.333C94.5655 157.386 94.1994 157.438 93.8857 157.49C93.4151 157.543 92.9968 157.647 92.5262 157.699C92.3171 157.752 92.1079 157.752 91.8988 157.804C91.6374 157.856 91.3236 157.909 91.0099 157.909C90.1733 158.013 89.2844 158.118 88.4478 158.222C88.1864 158.275 87.8727 158.275 87.6112 158.327H87.5589C87.1929 158.379 86.8269 158.379 86.4609 158.431C86.0949 158.484 85.7289 158.484 85.3628 158.484C85.1537 158.484 84.8923 158.536 84.6831 158.536C84.2648 158.536 83.8988 158.588 83.5328 158.588C83.0099 158.588 82.5393 158.641 82.0164 158.641C81.4936 158.641 81.023 158.641 80.5001 158.641C80.1341 158.641 79.7681 158.641 79.4021 158.641C57.3367 158.327 37.5197 148.967 23.3498 134.118C23.3498 134.118 23.3498 134.065 23.2975 134.065C21.7289 132.654 23.0883 125.124 29.4151 120.366C37.3628 114.353 56.3955 110.588 56.3955 110.588C56.3955 110.588 63.7681 109.386 91.1145 115.085C107.114 118.431 119.297 123.294 126.095 136.471C127.507 139.19 128.918 143.373 123.951 145.569Z" fill="white"/>
<path d="M91.2713 114.51C101.311 116.549 112.03 118.745 120.291 125.386C123.062 127.634 124.892 130.928 126.409 134.118C127.141 135.687 127.873 137.307 128.448 139.033C128.762 140.183 129.232 141.49 128.971 142.85C128.918 143.216 128.605 143.687 128.343 143.948C127.141 145.151 125.833 145.883 124.526 146.824C116.84 152.157 108.003 155.922 98.853 157.909C78.4609 162.353 56.3955 158.902 38.4609 148.183C32.5001 144.575 27.0099 140.183 22.304 135.007C21.7811 134.379 21.7811 133.334 21.7811 132.654C21.8334 131.085 22.2517 129.569 22.7746 128.157C24.0295 124.915 25.6504 121.673 28.4217 119.425C30.4086 118.066 32.5524 116.915 34.7484 115.974C41.6504 113.046 48.9184 111.007 56.3955 110.17C57.023 110.118 57.1275 111.007 56.5001 111.111C49.3367 112.575 42.2256 114.771 35.585 117.752C33.1798 118.955 30.6177 120 28.6831 121.883C26.853 123.87 25.5458 126.327 24.5001 128.837C23.8203 130.353 23.3498 132.758 23.5589 133.961C26.853 137.883 30.7223 141.334 34.9053 144.314C57.8073 160.314 92.5785 161.36 116.945 148.026C119.141 146.824 121.284 145.464 123.324 144.053C124.317 143.373 125.363 142.798 126.147 142.013C126.199 141.961 126.147 142.013 126.147 142.066C126.147 142.118 126.095 142.17 126.095 142.17C126.147 141.543 125.938 140.706 125.677 139.87C124.735 136.837 123.219 133.647 121.598 130.876C119.036 126.745 114.696 124.131 110.304 122.039C107.271 120.628 104.082 119.53 100.84 118.484C97.5981 117.438 94.304 116.549 91.0099 115.765C90.1733 115.556 90.4347 114.353 91.2713 114.51Z" fill="black"/>
<path d="M141.311 177.987H9.07544C9.07544 177.987 16.8663 161.569 20.3173 142.85C22.7225 129.882 24.5003 122.301 31.2454 118.118C36.0035 115.19 49.3892 110.954 58.9055 109.595C62.7748 109.072 70.4611 108.497 77.1016 109.02C82.1212 109.647 92.4741 112.575 96.448 113.673C102.409 115.346 115.324 120.314 121.023 125.543C123.272 127.634 128.605 138.092 132.056 153.255C136.03 170.51 141.311 177.987 141.311 177.987Z" fill="black"/>
<path d="M142.513 178.614C103.873 178.98 47.2975 179.765 9.12756 179.608C7.97724 179.66 7.14064 178.353 7.66351 177.307C12.6831 166.222 16.5001 154.405 18.8531 142.431C20.7877 133.072 21.9903 121.255 31.4544 116.34C36.108 113.987 41.023 112.418 45.9903 110.954C54.7223 108.392 63.9772 107.137 73.0753 107.399C74.487 107.451 75.9511 107.503 77.4151 107.608C80.5524 108.078 83.6374 108.863 86.6701 109.647C89.389 110.327 92.1602 111.111 94.8269 111.895C95.1406 112.052 95.2452 112.68 95.4021 112.993C95.6112 113.359 95.8727 113.307 96.2387 113.15C96.3955 113.098 96.5524 112.993 96.7093 113.046C97.0753 113.098 97.5981 113.307 97.9642 113.412C106.069 116.026 114.226 119.111 121.075 124.288C122.069 125.02 122.853 126.013 123.48 127.059C124.735 129.046 125.781 131.085 126.722 133.176C129.546 139.399 131.637 145.935 133.206 152.575C135.245 160.889 137.65 169.255 141.99 176.68L142.199 176.993L142.304 177.15C142.618 177.412 142.722 178.196 142.513 178.614ZM140.108 177.359C139.847 177.673 139.899 178.353 140.108 178.614L140.056 178.51L139.951 178.301C137.546 174.536 135.768 170.353 134.252 166.222C132.683 161.987 131.48 157.49 130.435 153.098C128.918 146.614 126.931 140.235 124.265 134.17C123.114 131.608 121.964 129.046 120.239 126.902C119.245 125.908 118.095 125.072 116.892 124.288C110.879 120.418 104.134 117.595 97.3367 115.399C97.0753 115.294 96.4478 115.137 96.1341 115.033C95.8204 114.928 95.8204 114.039 95.6112 113.83C95.1406 113.412 94.6178 114.562 94.1472 114.458C91.4805 113.725 88.7093 112.993 85.9903 112.366C82.7485 111.634 79.5589 110.797 76.3171 110.536C61.9903 109.595 47.5066 112.627 34.3302 118.327C27.9511 120.941 25.5459 126.85 24.0295 133.176C22.67 138.51 21.8857 144.314 20.6308 149.699C18.2256 159.686 14.8792 169.307 10.6439 178.719L9.17985 176.418C46.304 176.314 102.461 176.889 140.108 177.359Z" fill="black"/>
<path d="M96.1859 128.418C95.0879 133.804 87.9768 137.046 76.0029 132.183C63.5585 127.163 58.1728 115.189 56.8134 111.634C64.1859 97.8298 59.0617 88.2612 59.0617 88.2612C76.0552 86.7971 90.9049 106.666 90.9049 106.666L93.2055 116.496C93.4147 117.333 93.833 118.065 94.4604 118.588C95.5585 120.523 96.8656 124.967 96.1859 128.418Z" fill="white"/>
<path d="M56.5522 111.791C57.5456 110.274 58.1731 108.497 58.5914 106.771C59.3757 103.163 59.6371 99.503 59.6894 95.8429V94.4834C59.5326 93.124 59.062 91.7122 58.5391 90.4573C57.8594 88.7841 60.3169 87.7383 61.1012 89.4115C61.2058 89.6207 61.2058 89.9867 61.2058 90.1959C61.3626 97.307 61.6764 106.457 57.1796 112.366C56.8659 112.68 56.2385 112.209 56.5522 111.791Z" fill="black"/>
<path d="M91.4801 106.562C92.2644 107.033 92.5258 107.66 92.6304 108.287C92.9441 109.542 92.8396 110.902 93.1533 112.209C93.4147 113.464 94.1991 114.667 94.4082 115.974C94.6696 117.333 95.4539 120.209 95.7677 121.621C95.8722 121.934 95.6631 122.3 95.2971 122.353C95.0879 122.405 94.9311 122.353 94.7742 122.248C94.0945 121.673 93.7808 121.098 93.3624 120.366C92.6827 119.111 92.2121 117.961 91.7938 116.549C91.4278 115.294 91.5847 113.934 91.2709 112.627C91.0095 111.372 90.2775 110.17 90.016 108.863C89.8592 108.235 89.8069 107.555 90.2775 106.771C90.5912 106.457 91.1141 106.353 91.4801 106.562Z" fill="black"/>
<path d="M95.2449 120.366C85.258 119.843 77.1012 116.706 69.1534 102.536C75.8463 108.444 83.7417 110.693 92.0554 111.738L93.1534 116.549C93.3626 117.385 94.6175 119.843 95.2449 120.366Z" fill="black"/>
<path d="M94.8268 118.431C96.6046 121.778 97.6504 125.961 96.5523 129.673C95.7157 132.288 93.3105 134.222 90.6961 134.954C84.6308 136.575 77.6242 134.013 72.2386 131.137C65.5981 127.425 60.683 121.203 57.5458 114.405C57.3366 113.882 58.0687 113.464 58.3824 113.987C59.4804 116.183 60.7353 118.327 62.1471 120.261C63.5589 122.248 65.1798 124.078 67.0098 125.699C72.3432 130.51 79.5589 133.49 86.7745 133.49C94.1994 133.281 97.0229 129.359 95.2974 122.144C95.036 120.993 94.6177 119.791 94.0425 118.797C93.7288 118.379 94.5131 117.908 94.8268 118.431Z" fill="black"/>
<path d="M115.062 55.6341C116.003 60.0262 112.866 64.7321 112.866 76.4445C112.866 88.4184 110.67 101.438 101.624 110.484C93.8332 118.275 84.8921 117.961 74.3823 109.752C72.9182 108.601 67.794 104.732 66.4868 103.425C64.9705 101.909 64.1339 100.811 63.4019 99.6602C62.7744 98.6145 62.9313 92.5491 62.0424 91.1374C59.7417 87.3204 59.2711 91.4511 56.2907 88.1047C52.16 83.6079 47.1927 74.5622 49.6502 58.5622C53.6241 32.6275 74.1731 29.5949 89.3888 32.4707C104.709 35.3988 112.552 44.0785 115.062 55.6341Z" fill="white"/>
<path d="M58.9051 92.7581C57.7025 90.7712 56.1861 88.9934 54.7744 87.1634C53.3626 85.2287 52.2123 83.1895 51.2711 80.9934C45.9377 68.0784 46.7221 51.1895 56.1861 40.3137C62.6698 32.8889 72.9181 30.4314 82.3299 30.9542C91.7417 31.5294 101.519 33.9346 108.474 40.732C112.5 44.6536 115.062 49.8823 116.212 55.3202C116.578 57.0457 116.317 58.9281 115.899 60.549C114.696 65.098 113.546 69.4379 113.441 74.1438C113.493 81.1503 113.284 88.3137 111.245 95.0588C109.781 99.5555 108.055 104.052 105.336 107.974C102.513 111.948 98.2776 115.137 93.4149 116.078C83.6371 118.065 74.4868 111.895 68.0031 105.203C67.7417 104.889 68.1077 104.523 68.4214 104.732C72.1338 107.556 75.9508 110.17 80.0815 111.948C92.0031 117.438 101.885 112.366 107.114 100.863C111.506 92.4967 112.761 83.451 112.395 74.0915C112.395 71.7385 112.5 69.3856 112.814 67.0327C113.127 63.634 114.278 60.2353 114.225 56.8889C113.336 51.451 110.827 46.2222 107.062 42.1961C98.1208 32.732 80.9704 29.9608 68.9443 34.2483C54.7743 39.268 50.9574 53.5425 50.173 67.1895C49.6502 75.3464 52.0554 83.3464 58.2253 88.9412L60.6828 91.5033C61.5194 92.6536 59.7417 94.0131 58.9051 92.7581Z" fill="black"/>
<path d="M65.075 76.1308C65.075 76.1308 63.4541 68.2876 55.8201 69.2288C49.2319 70.0654 46.9312 85.8562 61.8855 90.2484" fill="white"/>
<path d="M61.2058 83.3985C60.0032 82.7187 59.1666 81.5684 59.1143 80.1566C59.1666 79.1109 59.3234 77.9083 59.062 76.8625C58.9051 75.869 57.8594 75.6076 57.075 75.6599C56.2384 75.8168 55.7156 76.8625 55.5587 77.6991C55.5587 77.7514 55.5064 77.9083 55.5064 77.9605C55.4541 78.222 55.0358 78.222 54.9313 77.9605C54.2515 75.9213 55.7679 73.673 57.9639 73.9344C61.0489 74.1436 61.4672 77.3854 60.892 79.8429C60.5783 80.8886 60.9966 81.8298 61.5718 82.7187L61.6764 82.8756C61.9378 83.1893 61.5195 83.6076 61.2058 83.3985Z" fill="black"/>
<path d="M103.036 70.5882C103.82 74.3006 105.284 77.7516 107.114 80.9934C108.735 84.9672 104.552 88.732 100.84 88.5751C100.421 88.5751 100.369 87.9999 100.735 87.8954C103.088 87.1633 105.232 85.5947 105.598 83.1895C105.755 82.4575 105.546 81.83 105.18 81.2025C103.454 77.9607 102.408 74.2483 102.67 70.5882C102.67 70.3267 103.036 70.3267 103.036 70.5882Z" fill="black"/>
<path d="M64.8138 76.1827C63.6112 73.0978 60.9968 70.1697 57.4936 70.222C57.1798 70.1697 56.657 70.2742 56.3432 70.2742C55.4544 70.3265 54.7223 70.6403 54.0426 71.2677C50.6962 74.6141 51.2713 80.5226 53.9903 84.235C54.9315 85.5422 56.1341 86.6926 57.4936 87.6337C58.853 88.5749 60.3694 89.3069 61.9903 89.9344C62.3563 90.039 62.1994 90.6141 61.8334 90.5618C58.3302 89.8298 54.9838 88.1043 52.6831 85.2285C49.1276 80.9409 48.3955 73.7775 52.6308 69.5945C53.572 68.7579 54.8792 68.1305 56.1864 68.1305C56.6047 68.1305 57.2321 68.0259 57.6504 68.1305C59.8465 68.235 61.938 69.3331 63.2975 71.0586C64.5001 72.5226 65.1798 74.3004 65.389 76.0782C65.389 76.3919 64.9184 76.4965 64.8138 76.1827Z" fill="black"/>
<path d="M99.5325 93.5427C98.6436 94.1702 97.3364 93.6473 96.3953 94.0656C95.7155 94.2748 94.6175 95.2159 93.0489 95.1114C91.7939 95.0068 91.1665 94.3794 90.1207 93.9088C89.0227 93.5427 87.8724 92.863 87.1404 91.9741C86.9835 91.8173 86.9835 91.6081 87.1404 91.4512C87.3495 91.2421 87.5587 91.399 87.7678 91.5035C88.2384 91.765 88.6044 91.9741 88.9704 92.0787C89.3364 92.1833 89.7024 92.0787 90.2776 92.0787C90.8528 92.0264 91.6894 92.2878 92.2122 92.7061C92.5783 92.9676 92.9966 93.1244 93.3103 93.1767C94.1469 93.3336 95.1926 92.6539 96.0815 92.5493C96.709 92.4447 97.3887 92.497 97.9116 92.6539C98.4345 92.8107 98.8005 92.9153 99.2188 92.8107C99.6894 92.7061 99.9508 93.3336 99.5325 93.5427Z" fill="black"/>
<path d="M85.9902 72.2092C85.9902 72.2615 85.9902 72.3138 85.9902 72.3138L85.9379 73.7778C85.8856 75.0327 84.8398 75.9739 83.5849 75.9216C82.33 75.8693 81.3888 74.7713 81.4934 73.5687L81.5457 72.1046C81.5457 71.8432 81.6503 71.5295 81.7548 71.3203L85.9379 71.5295C85.9379 71.7386 85.9902 71.9478 85.9902 72.2092Z" fill="black"/>
<path d="M107.846 73.3591L107.794 74.7186C107.742 75.869 106.748 76.7578 105.598 76.7056C104.447 76.6533 103.559 75.6598 103.611 74.5095L103.663 73.15C103.663 72.8886 103.715 72.6271 103.82 72.418L107.742 72.5748C107.794 72.8363 107.846 73.0977 107.846 73.3591Z" fill="black"/>
<path d="M91.2187 65.0456C92.369 65.2025 93.2579 63.9998 92.8396 62.8495C92.6305 62.2221 92.2644 61.6469 91.6893 61.2809C89.9115 60.1829 83.271 60.0783 79.7677 62.5881C76.6305 64.8887 85.9899 64.3136 91.2187 65.0456Z" fill="black"/>
<path d="M105.702 65.6207C104.761 65.6207 104.186 64.4181 104.657 63.4246C104.918 62.9017 105.284 62.4311 105.807 62.1697C107.428 61.3854 111.768 61.856 113.702 64.5226C115.428 66.8756 110.042 65.5684 105.702 65.6207Z" fill="black"/>
<path d="M89.3362 72.2092L80.7087 72.0523C79.663 72 79.7153 70.4314 80.761 70.4837L89.3885 71.1112C90.1205 71.1634 90.0682 72.2092 89.3362 72.2092Z" fill="black"/>
<path d="M110.042 73.0978L103.663 73.2024C102.618 73.2024 102.565 71.6861 103.611 71.6338C103.663 71.6338 103.663 71.6338 103.716 71.6338L110.095 72.3135C110.565 72.3658 110.513 73.0456 110.042 73.0978Z" fill="black"/>
<path d="M119.036 43.1896C122.749 29.7517 107.69 21.3334 103.664 27.3987C100.735 31.7909 89.4413 28.3922 72.291 28.0785C55.1407 27.7125 50.5394 36.8105 50.3302 46.5883C50.3302 46.5883 42.8008 50.5621 43.2714 64.5752C43.742 79.1112 58.6963 90.8236 60.5263 98.1961C60.5263 98.1961 60.7355 99.1373 58.7485 89.0458C47.3498 83.5556 49.7551 70.0131 55.8727 69.2288C60.5263 68.6536 62.9838 71.3726 64.1342 73.5687C64.6047 74.1961 69.0492 79.634 69.1538 61.8563C69.2061 49.7255 81.023 45.7517 94.461 50.6667C101.467 53.2288 108.84 55.1112 113.912 51.451C114.749 53.8563 115.637 56.5229 114.958 59.7648C116.997 57.8824 118.722 55.1112 119.193 51.7125C119.507 49.6732 118.984 47.8955 117.834 46.3268C118.304 45.438 118.722 44.3399 119.036 43.1896Z" fill="black"/>
<path d="M151.193 44.0785C182.931 105.203 127.141 174.17 60.6308 157.333C30.7746 149.909 6.77457 124.026 1.80725 93.6471C-3.83981 63.4249 9.80725 30.9543 35.3236 13.8563C70.304 -10.196 118.775 -2.19602 143.82 32.2092C143.977 32.3661 143.925 32.6275 143.716 32.7844C143.559 32.9412 143.297 32.889 143.141 32.6798C139.69 28.2354 135.768 24.2092 131.48 20.6014C124.422 14.5883 116.16 9.88241 107.428 6.69287C62.9837 -9.41171 14.1994 17.3595 4.47391 63.8432C-6.50648 115.922 37.7811 163.869 90.5916 156.706C131.324 151.582 161.598 113.987 158.252 73.0981C157.52 63.2157 154.905 53.438 150.565 44.4445C150.461 44.2876 150.565 44.0785 150.722 43.9739C150.879 43.8693 151.088 43.9216 151.193 44.0785Z" fill="black"/>
</g>
</svg>
