<svg width="161" height="160" viewBox="0 0 161 160" fill="none" xmlns="http://www.w3.org/2000/svg">
<mask id="mask0_426_9766" style="mask-type:alpha" maskUnits="userSpaceOnUse" x="0" y="0" width="160" height="160">
<circle cx="80.2377" cy="79.7377" r="79.7377" fill="#D9D9D9"/>
</mask>
<g mask="url(#mask0_426_9766)">
<path d="M123.951 145.569C123.585 145.83 123.167 146.092 122.801 146.353C122.382 146.614 122.016 146.876 121.598 147.085C121.232 147.294 120.918 147.503 120.552 147.713C120.5 147.765 120.448 147.765 120.396 147.817C119.193 148.549 117.938 149.229 116.683 149.856C116.317 150.065 115.899 150.275 115.533 150.431C115.533 150.431 115.48 150.484 115.428 150.484C115.01 150.693 114.592 150.902 114.173 151.111C113.337 151.53 112.448 151.896 111.611 152.262C111.193 152.471 110.722 152.628 110.304 152.784C109.886 152.941 109.415 153.15 108.997 153.307C108.579 153.464 108.108 153.673 107.69 153.83C107.69 153.83 107.69 153.83 107.637 153.83C107.219 153.987 106.748 154.144 106.33 154.301C105.389 154.614 104.396 154.928 103.454 155.242C103.141 155.347 102.775 155.451 102.461 155.556C101.467 155.869 100.474 156.131 99.4805 156.34C99.1145 156.445 98.7485 156.497 98.3302 156.601C97.389 156.811 96.3955 157.02 95.4543 157.229C95.2452 157.281 95.0883 157.281 94.8792 157.333C94.5655 157.386 94.1994 157.438 93.8857 157.49C93.4151 157.543 92.9968 157.647 92.5262 157.699C92.3171 157.752 92.1079 157.752 91.8988 157.804C91.6374 157.856 91.3236 157.909 91.0099 157.909C90.1733 158.013 89.2844 158.118 88.4478 158.222C88.1864 158.275 87.8727 158.275 87.6112 158.327H87.5589C87.1929 158.379 86.8269 158.379 86.4609 158.431C86.0949 158.484 85.7289 158.484 85.3628 158.484C85.1537 158.484 84.8923 158.536 84.6831 158.536C84.2648 158.536 83.8988 158.588 83.5328 158.588C83.0099 158.588 82.5393 158.641 82.0164 158.641C81.4936 158.641 81.023 158.641 80.5001 158.641C80.1341 158.641 79.7681 158.641 79.4021 158.641C57.3367 158.327 37.5197 148.967 23.3498 134.118C23.3498 134.118 23.3498 134.065 23.2975 134.065C21.7289 132.654 23.0883 125.124 29.4151 120.366C37.3628 114.353 56.3955 110.588 56.3955 110.588C56.3955 110.588 63.7681 109.386 91.1145 115.085C107.114 118.431 119.297 123.294 126.095 136.471C127.507 139.19 128.918 143.373 123.951 145.569Z" fill="white"/>
<path d="M91.2713 114.51C101.311 116.549 112.03 118.745 120.291 125.386C123.062 127.634 124.892 130.928 126.409 134.118C127.141 135.687 127.873 137.307 128.448 139.033C128.762 140.183 129.232 141.49 128.971 142.85C128.918 143.216 128.605 143.687 128.343 143.948C127.141 145.151 125.833 145.883 124.526 146.824C116.84 152.157 108.003 155.922 98.853 157.909C78.4609 162.353 56.3955 158.902 38.4609 148.183C32.5001 144.575 27.0099 140.183 22.304 135.007C21.7811 134.379 21.7811 133.334 21.7811 132.654C21.8334 131.085 22.2517 129.569 22.7746 128.157C24.0295 124.915 25.6504 121.673 28.4217 119.425C30.4086 118.066 32.5524 116.915 34.7484 115.974C41.6504 113.046 48.9184 111.007 56.3955 110.17C57.023 110.118 57.1275 111.007 56.5001 111.111C49.3367 112.575 42.2256 114.771 35.585 117.752C33.1798 118.955 30.6177 120 28.6831 121.883C26.853 123.87 25.5458 126.327 24.5001 128.837C23.8203 130.353 23.3498 132.758 23.5589 133.961C26.853 137.883 30.7223 141.334 34.9053 144.314C57.8073 160.314 92.5785 161.36 116.945 148.026C119.141 146.824 121.284 145.464 123.324 144.053C124.317 143.373 125.363 142.798 126.147 142.013C126.199 141.961 126.147 142.013 126.147 142.066C126.147 142.118 126.095 142.17 126.095 142.17C126.147 141.543 125.938 140.706 125.677 139.87C124.735 136.837 123.219 133.647 121.598 130.876C119.036 126.745 114.696 124.131 110.304 122.039C107.271 120.628 104.082 119.53 100.84 118.484C97.5981 117.438 94.304 116.549 91.0099 115.765C90.1733 115.556 90.4347 114.353 91.2713 114.51Z" fill="black"/>
<path d="M141.311 177.987H9.07544C9.07544 177.987 16.8663 161.569 20.3173 142.85C22.7225 129.882 24.5003 122.301 31.2454 118.118C36.0035 115.19 49.3892 110.954 58.9055 109.595C62.7748 109.072 70.4611 108.497 77.1016 109.02C82.1212 109.647 92.4741 112.575 96.448 113.673C102.409 115.346 115.324 120.314 121.023 125.543C123.272 127.634 128.605 138.092 132.056 153.255C136.03 170.51 141.311 177.987 141.311 177.987Z" fill="black"/>
<path d="M142.513 178.614C103.873 178.98 47.2975 179.765 9.12756 179.608C7.97724 179.66 7.14064 178.353 7.66351 177.307C12.6831 166.222 16.5001 154.405 18.8531 142.431C20.7877 133.072 21.9903 121.255 31.4544 116.34C36.108 113.987 41.023 112.418 45.9903 110.954C54.7223 108.392 63.9772 107.137 73.0753 107.399C74.487 107.451 75.9511 107.503 77.4151 107.608C80.5524 108.078 83.6374 108.863 86.6701 109.647C89.389 110.327 92.1602 111.111 94.8269 111.895C95.1406 112.052 95.2452 112.68 95.4021 112.993C95.6112 113.359 95.8727 113.307 96.2387 113.15C96.3955 113.098 96.5524 112.993 96.7093 113.046C97.0753 113.098 97.5981 113.307 97.9642 113.412C106.069 116.026 114.226 119.111 121.075 124.288C122.069 125.02 122.853 126.013 123.48 127.059C124.735 129.046 125.781 131.085 126.722 133.176C129.546 139.399 131.637 145.935 133.206 152.575C135.245 160.889 137.65 169.255 141.99 176.68L142.199 176.993L142.304 177.15C142.618 177.412 142.722 178.196 142.513 178.614ZM140.108 177.359C139.847 177.673 139.899 178.353 140.108 178.614L140.056 178.51L139.951 178.301C137.546 174.536 135.768 170.353 134.252 166.222C132.683 161.987 131.48 157.49 130.435 153.098C128.918 146.614 126.931 140.235 124.265 134.17C123.114 131.608 121.964 129.046 120.239 126.902C119.245 125.908 118.095 125.072 116.892 124.288C110.879 120.418 104.134 117.595 97.3367 115.399C97.0753 115.294 96.4478 115.137 96.1341 115.033C95.8204 114.928 95.8204 114.039 95.6112 113.83C95.1406 113.412 94.6178 114.562 94.1472 114.458C91.4805 113.725 88.7093 112.993 85.9903 112.366C82.7485 111.634 79.5589 110.797 76.3171 110.536C61.9903 109.595 47.5066 112.627 34.3302 118.327C27.9511 120.941 25.5459 126.85 24.0295 133.176C22.67 138.51 21.8857 144.314 20.6308 149.699C18.2256 159.686 14.8792 169.307 10.6439 178.719L9.17985 176.418C46.304 176.314 102.461 176.889 140.108 177.359Z" fill="black"/>
<path d="M96.1858 128.419C95.0877 133.804 87.9766 137.046 76.0028 132.183C63.5583 127.164 58.1727 115.19 56.8132 111.634C64.1858 97.8303 59.0616 88.2617 59.0616 88.2617C76.0551 86.7976 90.9047 106.667 90.9047 106.667L93.2054 116.497C93.4145 117.334 93.8328 118.066 94.4603 118.588C95.5583 120.523 96.8655 124.968 96.1858 128.419Z" fill="white"/>
<path d="M56.5521 111.791C57.5455 110.275 58.173 108.497 58.5913 106.772C59.3756 103.164 59.637 99.5035 59.6893 95.8434V94.4839C59.5324 93.1244 59.0619 91.7127 58.539 90.4578C57.8592 88.7846 60.3168 87.7388 61.1011 89.412C61.2057 89.6212 61.2056 89.9872 61.2056 90.1963C61.3625 97.3075 61.6762 106.458 57.1795 112.366C56.8658 112.68 56.2383 112.209 56.5521 111.791Z" fill="black"/>
<path d="M91.48 106.562C92.2643 107.033 92.5257 107.66 92.6303 108.288C92.944 109.543 92.8394 110.902 93.1532 112.209C93.4146 113.464 94.1989 114.667 94.4081 115.974C94.6695 117.334 95.4538 120.209 95.7676 121.621C95.8721 121.935 95.663 122.301 95.297 122.353C95.0878 122.406 94.931 122.353 94.7741 122.249C94.0944 121.674 93.7806 121.098 93.3623 120.366C92.6826 119.111 92.212 117.961 91.7937 116.549C91.4277 115.294 91.5845 113.935 91.2708 112.628C91.0094 111.373 90.2774 110.17 90.0159 108.863C89.8591 108.236 89.8068 107.556 90.2774 106.772C90.5911 106.458 91.114 106.353 91.48 106.562Z" fill="black"/>
<path d="M95.2448 120.366C85.2579 119.843 77.101 116.706 69.1533 102.536C75.8461 108.445 83.7416 110.693 92.0553 111.739L93.1533 116.549C93.3625 117.386 94.6174 119.843 95.2448 120.366Z" fill="black"/>
<path d="M94.8268 118.432C96.6046 121.778 97.6504 125.961 96.5523 129.674C95.7157 132.288 93.3105 134.223 90.6961 134.955C84.6308 136.576 77.6242 134.014 72.2386 131.138C65.5981 127.425 60.683 121.203 57.5458 114.406C57.3366 113.883 58.0687 113.464 58.3824 113.987C59.4804 116.183 60.7353 118.327 62.1471 120.262C63.5589 122.249 65.1798 124.079 67.0098 125.7C72.3432 130.51 79.5589 133.491 86.7745 133.491C94.1994 133.281 97.0229 129.36 95.2974 122.144C95.036 120.994 94.6177 119.791 94.0425 118.798C93.7288 118.38 94.5131 117.909 94.8268 118.432Z" fill="black"/>
<path d="M115.062 55.634C116.003 60.0262 115.271 62.9543 114.853 75.085C114.434 87.0066 110.983 103.843 106.748 108.078C103.506 111.268 93.1011 113.778 83.8462 111.425C79.1403 110.222 75.1665 107.503 71.9246 105.569C67.8462 103.111 64.2906 95.5295 61.3625 90.6667C59.0619 86.8497 59.271 91.451 56.2906 88.1569C52.1599 83.6602 47.1926 74.6144 49.6501 58.6144C53.624 32.6798 74.173 29.6471 89.3887 32.5229C104.709 35.3987 112.552 44.0785 115.062 55.634Z" fill="white"/>
<path d="M58.9052 92.7584C57.7026 90.7715 56.134 88.9937 54.7222 87.1114C52.6307 84.2356 51.0621 80.9414 50.0164 77.5427C45.4673 63.0068 48.2386 43.9741 61.9902 35.399C74.4869 27.4512 98.7484 30.3271 108.892 41.2029C112.709 45.1244 115.167 50.2486 116.212 55.582C116.265 55.8957 116.422 56.4709 116.474 56.7846C116.526 57.046 116.683 57.3597 116.631 57.6735C116.526 58.8238 116.317 59.9741 116.212 61.1244C115.428 68.0787 115.637 75.1898 114.748 82.1441C113.964 89.4643 112.918 96.7846 110.722 103.843C110.043 105.987 108.735 107.922 107.01 109.334C103.141 112.575 98.0687 113.673 93.2059 113.883C83.4804 114.353 73.5981 110.902 67.951 102.693C67.7418 102.379 68.1601 102.013 68.4216 102.327C73.1275 107.399 79.5066 110.641 86.3039 111.373C93.8334 112.262 105.18 111.582 108.474 103.53C112.291 92.131 114.278 80.0525 114.487 68.0787C114.487 65.1506 114.33 62.2225 114.33 59.2421C114.33 58.8761 114.382 58.0395 114.382 57.6735C114.382 57.6212 114.382 57.6735 114.382 57.6735C114.382 57.7258 114.382 57.7258 114.382 57.6735C113.964 56.6277 113.807 55.4774 113.493 54.4316C112.343 50.0918 110.252 45.961 107.271 42.6669C97.3889 31.582 75.3758 28.8107 63.036 37.1244C53.2582 43.6081 50.6438 56.0525 49.9641 67.0329C49.3889 75.2421 51.7941 83.2944 58.0164 88.9414L60.4739 91.5035C61.5196 92.6539 59.7418 94.0133 58.9052 92.7584Z" fill="black"/>
<path d="M65.0754 76.1308C65.0754 76.1308 63.4545 68.2876 55.8205 69.2288C49.2322 70.0654 46.9316 85.8562 61.8858 90.2484" fill="white"/>
<path d="M61.2056 83.3989C60.003 82.7192 59.1664 81.5689 59.1141 80.1571C59.1664 79.1114 59.3233 77.9087 59.0619 76.863C58.905 75.8695 57.8592 75.6081 57.0749 75.6604C56.2383 75.8172 55.7155 76.863 55.5586 77.6996C55.5586 77.7519 55.5063 77.9088 55.5063 77.961C55.454 78.2225 55.0357 78.2225 54.9311 77.961C54.2514 75.9218 55.7677 73.6735 57.9638 73.9349C61.0488 74.144 61.4671 77.3859 60.8919 79.8434C60.5782 80.8891 60.9965 81.8303 61.5717 82.7192L61.6762 82.8761C61.9377 83.1898 61.5194 83.6081 61.2056 83.3989Z" fill="black"/>
<path d="M103.036 70.5887C103.821 74.3011 105.285 77.7521 107.115 80.9939C108.736 84.9677 104.553 88.7324 100.84 88.5756C100.422 88.5756 100.37 88.0004 100.736 87.8958C103.089 87.1638 105.232 85.5952 105.598 83.19C105.755 82.4579 105.546 81.8305 105.18 81.203C103.455 77.9612 102.409 74.2488 102.67 70.5887C102.67 70.3272 103.036 70.3272 103.036 70.5887Z" fill="black"/>
<path d="M64.8137 76.1832C63.6111 73.0983 60.9967 70.1702 57.4934 70.2225C57.1797 70.1702 56.6568 70.2747 56.3431 70.2747C55.4542 70.327 54.7222 70.6408 54.0425 71.2682C50.6961 74.6146 51.2712 80.5231 53.9902 84.2355C54.9314 85.5427 56.134 86.693 57.4934 87.6342C58.8529 88.5754 60.3693 89.3074 61.9902 89.9349C62.3562 90.0394 62.1993 90.6146 61.8333 90.5623C58.33 89.8303 54.9836 88.1048 52.683 85.229C49.1274 80.9414 48.3954 73.778 52.6307 69.595C53.5719 68.7584 54.8791 68.131 56.1863 68.131C56.6046 68.131 57.232 68.0264 57.6503 68.131C59.8464 68.2355 61.9379 69.3336 63.2974 71.0591C64.5 72.5231 65.1797 74.3009 65.3889 76.0787C65.3889 76.3924 64.9183 76.497 64.8137 76.1832Z" fill="black"/>
<path d="M99.0621 93.804C95.7157 96.9936 89.3889 94.4315 87.7157 90.5622C87.5066 90.0916 88.0294 89.6733 88.4477 89.8825C89.3366 90.353 90.1209 90.8236 90.9575 91.1897C93.3628 92.2877 95.8726 93.1766 98.5392 92.9151C99.0621 92.8106 99.4281 93.438 99.0621 93.804Z" fill="black"/>
<path d="M88.1342 73.0983C85.3106 72.8891 82.6962 71.6865 80.5002 69.9088C80.0819 69.595 80.5524 68.9676 80.9707 69.2813C82.5917 70.3271 84.3694 71.0591 86.3041 71.3728C86.9315 71.4774 87.6113 71.5297 88.1864 71.5297C89.2322 71.5297 89.2322 73.1506 88.1342 73.0983Z" fill="black"/>
<path d="M103.506 72.366C105.127 72.1568 107.01 71.8954 108.264 70.7451C108.369 70.5882 108.63 70.5882 108.735 70.7451C109.206 71.2157 108.003 72 107.689 72.2614C106.487 73.0457 105.127 73.5686 103.768 73.9346C103.349 74.0392 102.931 73.7778 102.827 73.3595C102.67 72.8889 103.036 72.4183 103.506 72.366Z" fill="black"/>
<path d="M90.6438 68.2878C91.6372 68.8629 92.8921 68.0786 92.9444 66.876C92.9444 66.2485 92.8398 65.5688 92.4215 64.9936C91.1666 63.3204 85.049 60.7583 80.8137 61.8564C77.1536 62.7976 86.0947 65.6734 90.6438 68.2878Z" fill="black"/>
<path d="M106.696 68.915C105.964 69.4902 104.761 68.8104 104.604 67.7124C104.5 67.1372 104.552 66.5098 104.813 65.9869C105.65 64.4182 109.519 62.2745 112.657 63.3202C115.376 64.3137 110.199 66.3529 106.696 68.915Z" fill="black"/>
<path d="M82.2255 70.5361C81.8072 70.9021 81.5457 71.4773 81.4934 72.0525L81.4412 73.5165C81.3889 74.7714 82.3301 75.8172 83.5327 75.8695C84.7876 75.9218 85.8333 74.9806 85.8856 73.778L85.9379 72.3139C85.9379 72.2616 85.9379 72.2093 85.9379 72.157C84.5261 72.0525 83.3758 71.4773 82.2255 70.5361Z" fill="black"/>
<path d="M103.663 73.0458C103.663 73.098 103.663 73.098 103.663 73.1503L103.611 74.5098C103.559 75.6601 104.448 76.6536 105.598 76.7059C106.748 76.7582 107.742 75.8693 107.794 74.719L107.846 73.3595C107.899 72.8366 107.689 72.366 107.428 72C106.278 72.6797 104.97 72.8366 103.663 73.0458Z" fill="black"/>
<path d="M79.8203 29.9087C48.9183 29.2812 45.781 55.1636 47.7157 70.5884C49.8595 87.7387 60.1078 94.4838 60.1078 94.4838L60.7876 89.9348C60.7876 89.9348 58.3301 89.0982 55.9771 87.3727C47.8202 81.2028 50.3301 69.9609 55.8725 69.2812C61.415 68.5492 63.8203 72.5753 64.6569 74.7714C67.585 65.0982 63.4542 62.693 67.585 55.8433C80.5 41.8825 89.4935 51.2943 95.8203 53.1243C102.722 55.059 107.271 52.8629 109.833 50.4054C111.663 48.6276 114.016 51.974 114.016 51.974C114.016 51.974 110.618 30.5361 79.8203 29.9087Z" fill="black"/>
<path d="M59.219 77.7515C59.219 77.7515 55.036 77.124 55.3497 82.9802C55.5066 85.9606 55.5066 87.5815 55.4543 88.4181C55.402 88.9933 55.768 89.5162 56.2909 89.7253C56.9183 89.9868 57.5981 89.7253 57.9118 89.0979C58.3824 88.2613 58.9052 87.111 58.9052 86.1698C58.9052 84.6011 60.5784 83.1894 60.5784 83.1894C60.5784 83.1894 59.0621 81.8822 59.219 77.7515Z" fill="white"/>
<path d="M59.0622 77.9084C59.0622 77.9607 59.1144 78.0129 59.1667 78.0129C59.1667 78.0129 59.1667 78.0129 59.1144 78.0129H59.0099C56.5001 78.2221 55.7158 80.4182 55.8203 82.6665C55.8726 84.1306 55.9772 85.5946 55.9249 87.0064C56.0295 87.7907 55.5589 88.8365 56.3432 89.2548C56.8138 89.5162 57.4412 89.3071 57.6504 88.7842C58.121 87.843 58.5916 86.9018 58.5916 85.8561C58.8007 84.6535 59.585 83.7123 60.4216 82.9803V83.3986C59.3236 82.2482 59.0622 80.6796 58.9053 79.2156C58.9576 78.8495 58.9576 78.2744 59.0622 77.9084ZM59.4282 77.5424C59.585 79.0064 59.585 80.5227 60.2125 81.8299C60.3693 82.196 60.6308 82.6143 60.9445 82.8757C61.1537 83.0326 61.1537 83.3463 60.9445 83.5031C60.2125 84.1829 59.585 85.0195 59.4805 85.9607C59.4805 87.111 59.0099 88.209 58.487 89.2025C58.0687 90.0914 56.8661 90.562 55.9772 90.0391C55.402 89.7254 54.9837 89.0979 54.9837 88.4182C54.9837 87.8953 55.036 87.477 55.036 86.9541C55.036 85.4901 54.9314 84.0783 54.8792 82.6143C54.8792 81.6731 54.9314 80.575 55.3497 79.6339C55.8726 78.1698 57.4935 77.1763 59.0622 77.4378C59.219 77.4378 59.3759 77.4901 59.4282 77.5424Z" fill="black"/>
<path d="M58.5393 139.66C60.2648 132.131 58.0164 123.66 56.0818 116.131C55.2975 113.15 54.5131 110.327 54.1471 107.869C53.4674 103.738 53.938 99.8168 55.6112 96.1567C57.6504 91.6077 57.3367 87.7384 57.3367 87.5815L56.2909 87.6861C56.2909 87.7384 56.6047 91.5031 54.67 95.7384C52.9445 99.5554 52.4216 103.686 53.1014 108.026C53.5197 110.536 54.2517 113.412 55.036 116.392C56.9707 123.765 59.1667 132.131 57.4935 139.399C56.5524 143.425 58.3824 150.013 60.9968 156.601C61.4151 156.653 61.7811 156.706 62.1994 156.758C59.5328 150.17 57.6504 143.529 58.5393 139.66Z" fill="black"/>
<path d="M55.5066 86.0132C55.5588 87.1636 55.5066 87.9479 55.5066 88.4185C55.4543 88.9936 55.8203 89.5165 56.3432 89.7256C56.9706 89.9871 57.6503 89.7256 57.9641 89.0982C58.4347 88.2616 58.9575 87.1113 58.9575 86.1701C58.9575 86.1178 58.9575 86.0132 58.9575 85.9609C57.9118 86.3792 56.6569 86.693 55.5066 86.0132Z" fill="white"/>
<path d="M55.6634 86.2221C55.7157 86.9542 55.768 87.6339 55.768 88.3659C55.7157 88.6796 55.8203 88.9934 56.0295 89.2548C56.7092 89.9345 57.6504 89.5162 57.9118 88.6796C58.3301 87.843 58.6961 86.9542 58.6961 86.013L59.0621 86.2744C57.9118 86.4836 56.7092 86.7973 55.6112 86.3267C55.6112 86.3267 55.6634 86.2744 55.6634 86.2221ZM55.402 85.7515C55.5066 85.7515 55.7157 85.8038 55.8203 85.9084C56.7615 86.5881 57.9641 86.2744 58.9053 85.7515C59.0621 85.647 59.3236 85.8038 59.2713 86.013C59.219 87.2156 58.7484 88.3659 58.121 89.4117C57.5458 90.196 56.3432 90.2483 55.6634 89.5685C55.3497 89.2548 55.1929 88.7319 55.2451 88.3136C55.2451 87.4247 55.3497 86.5881 55.402 85.7515Z" fill="black"/>
<path d="M104.762 120.784C105.65 114.614 104.814 110.222 104.5 108.915C104.343 109.02 104.239 109.176 104.082 109.281C103.925 109.438 103.768 109.542 103.611 109.699C103.925 111.373 104.5 115.346 103.716 120.627C103.35 123.085 103.245 126.954 103.193 131.451C103.088 135.791 101.729 146.614 100.108 156.863C100.474 156.758 100.84 156.654 101.206 156.601C102.827 146.458 104.134 135.843 104.239 131.503C104.343 127.007 104.395 123.19 104.762 120.784Z" fill="black"/>
<path d="M151.193 44.0785C182.931 105.203 127.141 174.17 60.6308 157.333C30.7746 149.909 6.77457 124.026 1.80725 93.6471C-3.83981 63.4249 9.80725 30.9543 35.3236 13.8563C70.304 -10.196 118.775 -2.19602 143.82 32.2092C143.977 32.3661 143.925 32.6275 143.716 32.7844C143.559 32.9412 143.297 32.889 143.141 32.6798C139.69 28.2354 135.768 24.2092 131.48 20.6014C124.422 14.5883 116.16 9.88241 107.428 6.69287C62.9837 -9.41171 14.1994 17.3595 4.47391 63.8432C-6.50648 115.922 37.7811 163.869 90.5916 156.706C131.324 151.582 161.598 113.987 158.252 73.0981C157.52 63.2157 154.905 53.438 150.565 44.4445C150.461 44.2876 150.565 44.0785 150.722 43.9739C150.879 43.8693 151.088 43.9216 151.193 44.0785Z" fill="black"/>
</g>
</svg>
