<svg width="161" height="160" viewBox="0 0 161 160" fill="none" xmlns="http://www.w3.org/2000/svg">
<mask id="mask0_426_10228" style="mask-type:alpha" maskUnits="userSpaceOnUse" x="0" y="0" width="160" height="160">
<circle cx="80.2377" cy="79.7377" r="79.7377" fill="#D9D9D9"/>
</mask>
<g mask="url(#mask0_426_10228)">
<path d="M123.951 145.569C123.585 145.83 123.167 146.092 122.801 146.353C122.382 146.614 122.016 146.876 121.598 147.085C121.232 147.294 120.918 147.503 120.552 147.713C120.5 147.765 120.448 147.765 120.396 147.817C119.193 148.549 117.938 149.229 116.683 149.856C116.317 150.065 115.899 150.275 115.533 150.431C115.533 150.431 115.48 150.484 115.428 150.484C115.01 150.693 114.592 150.902 114.173 151.111C113.337 151.53 112.448 151.896 111.611 152.262C111.193 152.471 110.722 152.628 110.304 152.784C109.886 152.941 109.415 153.15 108.997 153.307C108.579 153.464 108.108 153.673 107.69 153.83C107.69 153.83 107.69 153.83 107.637 153.83C107.219 153.987 106.748 154.144 106.33 154.301C105.389 154.614 104.396 154.928 103.454 155.242C103.141 155.347 102.775 155.451 102.461 155.556C101.467 155.869 100.474 156.131 99.4805 156.34C99.1145 156.445 98.7485 156.497 98.3302 156.601C97.389 156.811 96.3955 157.02 95.4543 157.229C95.2452 157.281 95.0883 157.281 94.8792 157.333C94.5655 157.386 94.1994 157.438 93.8857 157.49C93.4151 157.543 92.9968 157.647 92.5262 157.699C92.3171 157.752 92.1079 157.752 91.8988 157.804C91.6374 157.856 91.3236 157.909 91.0099 157.909C90.1733 158.013 89.2844 158.118 88.4478 158.222C88.1864 158.275 87.8727 158.275 87.6112 158.327H87.5589C87.1929 158.379 86.8269 158.379 86.4609 158.431C86.0949 158.484 85.7289 158.484 85.3628 158.484C85.1537 158.484 84.8923 158.536 84.6831 158.536C84.2648 158.536 83.8988 158.588 83.5328 158.588C83.0099 158.588 82.5393 158.641 82.0164 158.641C81.4936 158.641 81.023 158.641 80.5001 158.641C80.1341 158.641 79.7681 158.641 79.4021 158.641C57.3367 158.327 37.5197 148.967 23.3498 134.118C23.3498 134.118 23.3498 134.065 23.2975 134.065C21.7289 132.654 23.0883 125.124 29.4151 120.366C37.3628 114.353 56.3955 110.588 56.3955 110.588C56.3955 110.588 63.7681 109.386 91.1145 115.085C107.114 118.431 119.297 123.294 126.095 136.471C127.507 139.19 128.918 143.373 123.951 145.569Z" fill="white"/>
<path d="M91.2713 114.51C101.311 116.549 112.03 118.745 120.291 125.386C123.062 127.634 124.892 130.928 126.409 134.118C127.141 135.687 127.873 137.307 128.448 139.033C128.762 140.183 129.232 141.49 128.971 142.85C128.918 143.216 128.605 143.687 128.343 143.948C127.141 145.151 125.833 145.883 124.526 146.824C116.84 152.157 108.003 155.922 98.853 157.909C78.4609 162.353 56.3955 158.902 38.4609 148.183C32.5001 144.575 27.0099 140.183 22.304 135.007C21.7811 134.379 21.7811 133.334 21.7811 132.654C21.8334 131.085 22.2517 129.569 22.7746 128.157C24.0295 124.915 25.6504 121.673 28.4217 119.425C30.4086 118.066 32.5524 116.915 34.7484 115.974C41.6504 113.046 48.9184 111.007 56.3955 110.17C57.023 110.118 57.1275 111.007 56.5001 111.111C49.3367 112.575 42.2256 114.771 35.585 117.752C33.1798 118.955 30.6177 120 28.6831 121.883C26.853 123.87 25.5458 126.327 24.5001 128.837C23.8203 130.353 23.3498 132.758 23.5589 133.961C26.853 137.883 30.7223 141.334 34.9053 144.314C57.8073 160.314 92.5785 161.36 116.945 148.026C119.141 146.824 121.284 145.464 123.324 144.053C124.317 143.373 125.363 142.798 126.147 142.013C126.199 141.961 126.147 142.013 126.147 142.066C126.147 142.118 126.095 142.17 126.095 142.17C126.147 141.543 125.938 140.706 125.677 139.87C124.735 136.837 123.219 133.647 121.598 130.876C119.036 126.745 114.696 124.131 110.304 122.039C107.271 120.628 104.082 119.53 100.84 118.484C97.5981 117.438 94.304 116.549 91.0099 115.765C90.1733 115.556 90.4347 114.353 91.2713 114.51Z" fill="black"/>
<path d="M131.114 152.994C130.121 145.255 125.729 132.235 123.062 128.732C120.134 124.915 118.931 123.712 109.153 120.418C108.631 117.804 106.696 111.216 104.395 108.445C100.892 103.163 91.3233 101.961 88.4475 102.588C88.4475 102.588 72.9704 97.1504 55.1403 97.1504C49.4933 98.4053 42.9573 100.967 39.4018 106.353C36.9965 109.909 39.7155 111.059 38.5129 114.301C38.1991 115.137 30.8789 119.32 27.8985 121.83C26.539 122.928 25.0227 125.699 23.9769 129.307C21.8854 136.68 24.1338 146.876 21.5194 155.765C16.4998 172.915 6.30371 178.039 6.30371 178.039H141.415C141.31 177.987 133.258 169.307 131.114 152.994Z" fill="white"/>
<path d="M130.33 153.098C129.284 146.248 127.193 139.451 124.526 133.072C123.219 129.987 121.232 127.007 118.461 125.177C117.049 124.288 115.48 123.608 113.859 122.928C112.239 122.301 110.565 121.726 108.944 121.15C108.683 121.046 108.474 120.837 108.422 120.575C108.212 119.529 107.951 118.536 107.637 117.49C106.278 113.255 104.814 108.549 100.84 106.092C97.8072 104.262 94.1993 103.373 90.696 103.216C90.0163 103.216 89.2843 103.216 88.6568 103.32H88.4477C88.3954 103.32 88.2908 103.32 88.2385 103.268C85.7287 102.065 82.9575 101.333 80.2385 100.601C72.0817 98.719 63.5588 97.9347 55.1928 97.8824C50.0686 99.085 42.9052 101.909 39.7679 107.137C39.2451 107.974 38.9836 108.811 39.0882 109.752C39.1928 110.797 39.5588 111.948 39.2974 113.046C39.1928 113.516 39.0882 114.039 38.8791 114.458C38.4608 115.033 37.781 115.399 37.2581 115.765C34.5392 117.543 31.7679 119.111 29.1536 120.941C28.2647 121.569 27.4281 122.144 26.8006 123.033C24.9706 125.647 23.8725 128.784 23.4019 131.922C22.5653 138.301 23.4019 144.784 22.5653 151.163C21.6241 157.543 19.1666 163.712 15.7157 169.15C13.3104 172.811 10.3823 176.209 6.6699 178.562L6.30389 177.098H141.415L140.84 178.405C139.271 176.628 138.016 174.693 136.866 172.654C133.31 166.693 131.219 159.948 130.33 153.098ZM131.899 152.889C132.474 157.333 133.572 161.726 135.245 165.909C136.918 170.039 139.01 174.065 141.938 177.464C142.356 177.935 141.99 178.824 141.363 178.771H6.2516C5.8333 178.771 5.46729 178.405 5.46729 177.987C5.46729 177.673 5.62415 177.412 5.88559 177.307C6.72219 176.837 7.55879 176.157 8.3431 175.477C15.1928 169.307 19.4804 160.157 20.8921 151.059C22.0947 142.536 19.8464 133.333 23.6634 125.229C24.5523 123.346 25.6503 121.36 27.4281 120.157C30.6699 117.752 34.2255 115.974 37.415 113.621C37.4673 113.621 37.4673 113.569 37.4673 113.569C37.415 113.621 37.3627 113.726 37.3627 113.778C37.6764 113.046 37.781 112.418 37.6764 111.582C37.5196 110.536 37.2581 109.124 37.6241 108.026C37.781 107.399 38.0947 106.824 38.4085 106.353C42.1732 100.706 48.8137 98.1962 55.1405 96.7844C56.9183 96.8367 58.7483 96.5229 60.5261 96.5229C62.9836 96.5229 65.4934 96.889 67.9509 97.2027C75.0098 98.3007 81.8072 100.183 88.7614 101.699L88.2908 101.647C89.9117 101.333 91.4281 101.49 92.9967 101.699C103.036 103.216 106.435 107.608 109.154 116.967C109.467 118.013 109.729 119.059 109.99 120.157L109.467 119.529C114.487 121.307 120.134 122.928 123.323 127.582C124.474 128.994 125.31 130.667 126.042 132.34C128.709 139.033 130.801 145.778 131.899 152.889Z" fill="black"/>
<path d="M48.7092 118.588C52.5785 126.85 58.5916 133.856 65.755 139.399C66.0164 139.608 65.755 140.026 65.4412 139.869C59.0622 136.837 53.6765 131.66 50.487 125.386C49.4412 123.294 48.5523 121.046 48.2386 118.693C48.134 118.432 48.5523 118.327 48.7092 118.588Z" fill="black"/>
<path d="M109.938 120.314C110.095 129.046 106.539 137.987 99.742 143.634C99.5851 143.791 99.376 143.739 99.2191 143.582C99.0622 143.425 99.1145 143.216 99.2714 143.059C100.788 141.595 102.304 140.079 103.454 138.301C105.86 134.85 107.324 130.771 108.003 126.641C108.317 124.601 108.526 122.405 108.369 120.366C108.317 119.373 109.886 119.268 109.938 120.314Z" fill="black"/>
<path d="M79.1405 141.072C77.9379 145.307 76.9444 149.909 77.5196 154.301C77.6764 155.294 76.1601 155.556 75.951 154.51C75.6895 152.105 76.0032 149.752 76.4215 147.451C76.8921 145.15 77.4673 142.954 78.2516 140.758C78.4607 140.235 79.3496 140.497 79.1405 141.072Z" fill="black"/>
<path d="M95.7679 140.288C97.4934 144 98.696 147.869 99.6372 151.791C99.7418 152.209 99.4804 152.628 99.0621 152.732C98.6438 152.837 98.2255 152.575 98.1209 152.157C97.598 149.229 96.9183 146.301 95.9771 143.425C95.6634 142.484 95.3496 141.543 94.9836 140.601C94.7745 140.131 95.5065 139.765 95.7679 140.288Z" fill="black"/>
<path d="M39.611 114.092C41.5457 124.654 48.9705 133.595 57.9117 139.294C60.9444 141.229 64.1862 142.902 67.5326 144.262C67.7417 144.366 67.8463 144.575 67.7417 144.784C67.6895 144.994 67.428 145.098 67.2712 144.994C63.8202 143.739 60.4738 142.17 57.3365 140.288C50.9574 136.523 45.3627 131.294 41.5979 124.915C39.6633 121.621 38.147 118.17 37.4149 114.405C37.3104 113.778 37.7287 113.203 38.3561 113.098C38.9313 112.941 39.5587 113.412 39.611 114.092Z" fill="black"/>
<path d="M76.003 155.451C74.539 155.294 73.4932 153.935 73.8069 152.471L74.3821 149.7C74.5913 148.602 75.637 147.817 76.735 147.974C77.8331 148.079 78.722 149.02 78.722 150.17V152.994C78.7743 154.458 77.5194 155.608 76.003 155.451Z" fill="black"/>
<path d="M100.108 153.517C98.696 154.039 97.1797 153.203 96.8137 151.739L96.1339 148.967C95.8725 147.869 96.4477 146.771 97.5457 146.353C98.5915 145.987 99.7941 146.458 100.265 147.451L101.52 150.013C102.147 151.425 101.52 153.046 100.108 153.517Z" fill="black"/>
<path d="M124.265 151.948C124.265 151.948 127.193 168.366 126.042 177.987" stroke="black" stroke-width="5.1257" stroke-miterlimit="10" stroke-linecap="round" stroke-linejoin="round"/>
<path d="M55.9769 112.209C55.2449 110.118 54.9312 107.974 55.088 105.778C55.088 105.569 55.2449 105.464 55.4541 105.464C55.6109 105.464 55.7678 105.621 55.7678 105.778C55.9246 107.765 56.4998 109.804 57.441 111.53C57.9116 112.575 56.3429 113.255 55.9769 112.209Z" fill="black"/>
<path d="M91.3233 114.98C89.8592 111.686 86.2514 110.013 83.0618 108.863C81.0749 108.235 78.8788 107.765 76.7873 107.451C71.7154 106.667 64.552 105.464 59.4801 104.941C59.4278 104.941 59.4278 104.837 59.4801 104.837C60.9442 104.68 62.4082 104.68 63.8723 104.68C68.2644 104.784 72.6566 105.255 76.9965 105.935C81.3363 106.614 85.9899 107.922 89.2841 111.059C90.3298 112.157 91.271 113.412 91.5324 114.928C91.5847 115.085 91.3756 115.137 91.3233 114.98Z" fill="black"/>
<path d="M96.1859 128.418C95.0879 133.804 87.9767 137.046 76.0029 132.183C63.5585 127.163 58.1728 115.189 56.8134 111.634C64.1859 97.8298 59.0617 88.2612 59.0617 88.2612C76.0552 86.7971 90.9049 106.666 90.9049 106.666L93.2055 116.496C93.4147 117.333 93.833 118.065 94.4604 118.588C95.5584 120.523 96.8656 124.967 96.1859 128.418Z" fill="white"/>
<path d="M56.5522 111.791C57.5456 110.274 58.1731 108.497 58.5914 106.771C59.3757 103.163 59.6371 99.503 59.6894 95.8429V94.4834C59.5326 93.124 59.062 91.7122 58.5391 90.4573C57.8594 88.7841 60.3169 87.7383 61.1012 89.4115C61.2058 89.6207 61.2058 89.9867 61.2058 90.1959C61.3626 97.307 61.6764 106.457 57.1796 112.366C56.8659 112.68 56.2385 112.209 56.5522 111.791Z" fill="black"/>
<path d="M91.4801 106.562C92.2644 107.033 92.5258 107.66 92.6304 108.287C92.9441 109.542 92.8396 110.902 93.1533 112.209C93.4147 113.464 94.1991 114.667 94.4082 115.974C94.6696 117.333 95.4539 120.209 95.7677 121.621C95.8722 121.934 95.6631 122.3 95.2971 122.353C95.0879 122.405 94.9311 122.353 94.7742 122.248C94.0945 121.673 93.7808 121.098 93.3624 120.366C92.6827 119.111 92.2121 117.961 91.7938 116.549C91.4278 115.294 91.5847 113.934 91.2709 112.627C91.0095 111.372 90.2775 110.17 90.016 108.863C89.8592 108.235 89.8069 107.555 90.2775 106.771C90.5912 106.457 91.1141 106.353 91.4801 106.562Z" fill="black"/>
<path d="M95.2449 120.366C85.258 119.843 77.1012 116.706 69.1534 102.536C75.8463 108.444 83.7417 110.693 92.0554 111.738L93.1534 116.549C93.3626 117.385 94.6175 119.843 95.2449 120.366Z" fill="black"/>
<path d="M94.8268 118.431C96.6046 121.778 97.6504 125.961 96.5523 129.673C95.7157 132.288 93.3105 134.222 90.6961 134.954C84.6307 136.575 77.6242 134.013 72.2386 131.137C65.5981 127.425 60.683 121.203 57.5458 114.405C57.3366 113.882 58.0687 113.464 58.3824 113.987C59.4804 116.183 60.7353 118.327 62.1471 120.261C63.5589 122.248 65.1798 124.078 67.0098 125.699C72.3432 130.51 79.5589 133.49 86.7745 133.49C94.1994 133.281 97.0229 129.359 95.2974 122.144C95.036 120.993 94.6177 119.791 94.0425 118.797C93.7288 118.379 94.5131 117.908 94.8268 118.431Z" fill="black"/>
<path d="M115.062 55.6336C116.003 60.0258 116.474 63.5813 113.912 75.2937C111.402 86.9539 117.52 89.3591 103.036 108.026C97.1274 115.66 82.8006 113.516 71.1927 105.621C67.2711 102.954 65.5979 96.1042 62.6698 91.2414C60.3692 87.4244 59.3234 91.3983 56.2908 88.1042C52.16 83.6075 47.1927 74.5617 49.6502 58.5617C53.6241 32.6271 74.1731 29.5944 89.3888 32.4702C104.709 35.3983 112.552 44.078 115.062 55.6336Z" fill="white"/>
<path d="M58.9052 92.758C57.7025 90.7188 56.1339 88.941 54.6699 87.0586C53.2581 85.124 52.1078 82.9802 51.1666 80.7841C44.9444 65.5161 47.3496 44.0259 62.6176 35.0325C68.9444 31.3723 76.5784 30.4835 83.6895 31.0586C98.9052 32.1567 112.866 39.1632 116.16 55.2678C117.938 62.3789 115.533 69.6992 114.173 76.6534C113.546 80.1044 114.069 83.6599 114.016 87.2155C113.964 90.8233 112.971 94.4312 111.611 97.7776C110.774 100.078 109.31 102.117 107.794 104C105.284 107.032 102.774 110.117 99.5849 112.47C98.8529 112.993 97.5457 113.255 96.6568 113.359C94.1993 113.725 91.794 113.83 89.3365 113.673C79.7156 113.255 69.415 108.601 65.5457 99.2939C65.3888 98.9279 65.9117 98.6665 66.1208 98.9802C71.1404 106.928 80.3431 110.849 89.4934 111.372C92.3169 111.529 95.1927 111.477 97.964 110.902C99.3235 110.222 100.526 109.019 101.676 107.921C104.5 105.098 107.376 102.065 109.415 98.6142C111.872 93.9606 113.232 88.8887 112.814 83.6076C112.709 81.2547 112.657 78.7972 113.127 76.4442C113.546 74.0913 114.069 71.8429 114.382 69.4377C114.696 67.1371 114.853 64.7841 114.853 62.4835C114.591 55.7384 112.395 48.7841 108.108 43.5554C98.6437 31.7906 76.2646 28.7057 63.6633 36.758C55.7156 41.673 52.0032 50.8756 50.8006 59.8168C48.9705 70.5358 49.4934 81.0978 58.0163 88.8887L60.5261 91.5031C61.5195 92.6534 59.7418 94.0129 58.9052 92.758Z" fill="black"/>
<path d="M65.0749 76.1303C65.0749 76.1303 63.454 68.2871 55.82 69.2283C49.2317 70.0649 46.9311 85.8558 61.8853 90.2479" fill="white"/>
<path d="M61.2058 83.3985C60.0032 82.7187 59.1666 81.5684 59.1143 80.1566C59.1666 79.1109 59.3234 77.9083 59.062 76.8625C58.9051 75.869 57.8594 75.6076 57.075 75.6599C56.2384 75.8168 55.7156 76.8625 55.5587 77.6991C55.5587 77.7514 55.5064 77.9083 55.5064 77.9605C55.4541 78.222 55.0358 78.222 54.9313 77.9605C54.2515 75.9213 55.7679 73.673 57.9639 73.9344C61.0489 74.1436 61.4672 77.3854 60.892 79.8429C60.5783 80.8886 60.9966 81.8298 61.5718 82.7187L61.6764 82.8756C61.9378 83.1893 61.5195 83.6076 61.2058 83.3985Z" fill="black"/>
<path d="M103.036 70.5882C103.82 74.3006 105.284 77.7516 107.114 80.9934C108.735 84.9672 104.552 88.732 100.84 88.5751C100.421 88.5751 100.369 87.9999 100.735 87.8954C103.088 87.1633 105.232 85.5947 105.598 83.1895C105.755 82.4575 105.546 81.83 105.18 81.2025C103.454 77.9607 102.408 74.2483 102.67 70.5882C102.67 70.3267 103.036 70.3267 103.036 70.5882Z" fill="black"/>
<path d="M64.8137 76.1827C63.6111 73.0978 60.9967 70.1697 57.4934 70.222C57.1797 70.1697 56.6568 70.2742 56.3431 70.2742C55.4542 70.3265 54.7222 70.6403 54.0425 71.2677C50.6961 74.6141 51.2712 80.5226 53.9902 84.235C54.9314 85.5422 56.134 86.6926 57.4934 87.6337C58.8529 88.5749 60.3693 89.3069 61.9902 89.9344C62.3562 90.039 62.1993 90.6141 61.8333 90.5618C58.33 89.8298 54.9836 88.1043 52.683 85.2285C49.1274 80.9409 48.3954 73.7775 52.6307 69.5945C53.5719 68.7579 54.8791 68.1305 56.1863 68.1305C56.6046 68.1305 57.232 68.0259 57.6503 68.1305C59.8464 68.235 61.9379 69.3331 63.2974 71.0586C64.5 72.5226 65.1797 74.3004 65.3889 76.0782C65.3889 76.3919 64.9183 76.4965 64.8137 76.1827Z" fill="black"/>
<path d="M99.0621 93.804C95.7157 96.9936 89.3889 94.4315 87.7157 90.5622C87.5066 90.0916 88.0294 89.6733 88.4477 89.8825C89.3366 90.353 90.1209 90.8236 90.9575 91.1897C93.3628 92.2877 95.8726 93.1766 98.5392 92.9151C99.0621 92.8106 99.4281 93.438 99.0621 93.804Z" fill="black"/>
<path d="M83.5328 75.9213C82.2779 75.869 81.3367 74.8233 81.4413 73.5684L81.4936 72.1043C81.5459 70.8494 82.5916 69.9082 83.8465 70.0128C85.1014 70.0651 86.0426 71.1109 85.938 72.3658L85.8857 73.8298C85.8334 75.0324 84.7877 75.9736 83.5328 75.9213Z" fill="black"/>
<path d="M105.546 76.7058C104.395 76.6535 103.507 75.6601 103.559 74.5097L103.611 73.1502C103.663 71.9999 104.657 71.111 105.807 71.1633C106.958 71.2156 107.846 72.2091 107.794 73.3594L107.742 74.7189C107.69 75.8692 106.696 76.7581 105.546 76.7058Z" fill="black"/>
<path d="M88.2388 73.0977C86.5133 71.9474 84.6309 71.1631 82.5394 71.5814C81.8597 71.686 81.1799 71.8951 80.7616 72.3657C80.6048 72.5749 80.2388 72.5226 80.2388 72.2089C80.2911 71.1631 81.1799 70.4834 82.0165 70.0651C83.6375 69.2285 85.8858 69.3853 87.3499 70.4834C87.8728 70.7971 89.6505 72.7317 88.7094 73.15C88.5002 73.2546 88.3956 73.2023 88.2388 73.0977Z" fill="black"/>
<path d="M103.193 73.3594C103.193 71.1633 105.912 70.379 107.585 71.1633C108.526 71.5816 109.206 72.4182 109.468 73.4117C109.572 73.7254 109.101 73.9868 108.892 73.7254C108.003 72.6797 106.487 72.1568 105.284 72.7842C104.918 72.9934 104.866 73.1502 104.762 73.3594C104.762 74.4051 103.245 74.3529 103.193 73.3594Z" fill="black"/>
<path d="M90.7485 64.4704C91.8466 64.8364 92.9446 63.843 92.7354 62.6403C92.6309 62.0129 92.3694 61.3854 91.8466 60.9148C90.2779 59.5031 83.7943 58.2482 79.8727 60.0782C76.4217 61.7515 85.7289 62.7972 90.7485 64.4704Z" fill="black"/>
<path d="M106.383 65.307C105.494 65.6208 104.553 64.6796 104.71 63.5815C104.762 63.0064 104.971 62.4312 105.389 62.0129C106.644 60.758 110.932 59.7646 113.651 61.6992C116.004 63.3201 110.461 63.7907 106.383 65.307Z" fill="black"/>
<path d="M115.481 57.5686C115.376 56.9411 115.219 56.3137 115.115 55.6339C114.539 53.0718 113.703 50.6666 112.605 48.4182L106.435 50.9803C104.657 51.7123 102.67 51.9215 100.735 51.6078L76.2649 47.3725C73.2845 46.8496 70.4087 48.5751 69.4152 51.3986C68.6832 53.4378 67.5329 56.3136 66.5917 58.3529C59.1669 59.5555 56.7093 57.7777 50.7486 55.0065C50.278 54.7973 49.5982 54.1176 49.0754 53.8561C50.0165 49.098 46.4087 29.2287 50.9054 24.0522C52.4218 22.3267 53.9381 22.1176 55.4022 22.6404C58.8008 23.8431 57.3891 23.1633 59.8466 20.5489C61.8335 18.5097 64.3433 16.732 67.4283 16.6797C68.9446 16.6274 70.1473 16.9411 71.1407 17.5163C74.278 19.2418 78.095 18.6666 80.9185 16.5228C81.8074 15.8954 82.7486 15.4771 83.7943 15.4771C85.3107 15.4771 86.6701 16.1045 87.7682 16.9411C89.8597 18.5097 92.6309 18.8757 95.193 18.3529C95.3499 18.3006 95.5067 18.3006 95.6636 18.3006C96.291 18.3006 96.9708 18.4574 97.5459 18.7189C99.742 19.6601 102.2 19.7646 104.396 18.8235C105.441 18.4052 106.696 18.4052 107.951 19.6078C109.52 21.1241 111.559 22.1176 113.755 22.1699C114.33 22.1699 115.062 22.4313 115.951 23.0065C116.369 23.3202 116.735 23.8954 116.997 24.6797C117.415 25.8823 118.409 26.7712 119.664 27.1372C120.448 27.3986 121.023 28.1829 121.18 29.9607C121.651 35.5555 116.788 53.0195 115.481 57.5686Z" fill="black"/>
<path d="M119.559 27.0326C117.259 27.8693 116.84 27.3987 114.226 26.7189C111.612 26.0392 109.311 28.9673 107.429 25.9346C104.71 21.4902 99.69 24.5228 98.6966 23.6862C97.7031 22.8496 94.6181 20.0784 90.2782 23.0065C87.4024 24.9411 83.7423 21.4902 79.141 21.4902C69.9384 21.4902 68.2652 28.2353 65.0756 25.1503C61.8861 22.1176 63.7162 24.1568 59.0103 24.9934C54.3044 25.83 51.8992 23.0065 51.8992 23.0065C53.0495 22.2222 54.1998 22.2222 55.2979 22.5882C58.6966 23.7908 57.2848 23.1111 59.7423 20.4967C61.7292 18.4575 64.239 16.6797 67.324 16.6274C68.8403 16.5751 70.043 16.8889 71.0364 17.464C74.1737 19.1895 77.9907 18.6143 80.8142 16.4706C81.7031 15.8431 82.6443 15.4248 83.69 15.4248C85.2064 15.4248 86.5658 16.0523 87.6639 16.8889C89.7554 18.4575 92.5266 18.8235 95.0887 18.3006C95.2456 18.2483 95.4024 18.2483 95.5593 18.2483C96.1867 18.2483 96.8665 18.4052 97.4416 18.6666C99.6377 19.6078 102.095 19.7124 104.291 18.7712C105.337 18.3529 106.592 18.3529 107.847 19.5555C109.416 21.0719 111.455 22.0653 113.651 22.1176C114.226 22.1176 114.958 22.3791 115.847 22.9542C116.265 23.2679 116.631 23.8431 116.893 24.6274C117.311 25.7777 118.304 26.6666 119.559 27.0326Z" fill="black"/>
<path d="M64.6572 73.3597C64.6572 73.6735 64.2389 73.8303 64.082 73.5166C62.8794 71.3205 60.4742 68.6539 55.8729 69.229C50.3304 69.9088 47.8206 81.1506 55.9774 87.3205C57.9121 88.7323 59.9513 89.5166 60.5787 89.778C60.7356 89.8303 60.7879 89.9872 60.7879 90.0918L60.265 93.7519C60.2127 93.9611 60.0036 94.1702 59.8467 94.0133C58.0167 91.9218 57.2846 90.7715 52.8925 86.2225C49.7029 82.9284 46.0951 78.2748 45.6245 70.5362C45.2585 63.7388 46.8794 58.4055 48.9186 54.0656C48.9709 53.9088 49.1801 53.8565 49.3369 53.9088C56.2389 57.0983 58.801 58.9284 66.2258 57.8303C66.4872 57.778 66.6441 58.0395 66.5395 58.2486C65.7029 59.8696 64.8663 61.1767 63.9774 61.8042C61.4153 63.7911 64.3957 68.6016 64.6572 73.3597Z" fill="#D6D6D6"/>
<path d="M65.0232 73.3073C65.0755 74.1439 63.9774 74.3008 63.6637 73.5687C62.6179 71.6864 60.8924 70.17 58.8009 69.7517C56.3957 69.2812 53.9905 69.804 52.6833 72.1047C50.2781 76.2877 51.5853 81.987 54.9839 85.2812C56.6571 86.7975 58.2781 88.889 60.631 89.5164C60.8924 89.5687 61.0493 89.8825 60.997 90.0916V90.1439V90.2485V90.5099V90.9805C60.997 91.7648 60.997 92.8629 60.9447 93.6472C60.9447 94.4838 59.8467 95.1112 59.2715 94.3792C58.6441 93.7517 57.7029 92.4968 57.1277 91.7648C53.9382 87.791 49.8075 84.34 47.6637 79.5818C44.4219 72.4707 45.1016 64.1047 47.716 56.9413C48.1343 55.8955 48.5003 54.7975 49.0754 53.8563C49.2323 53.7517 49.3892 53.804 49.546 53.9086C52.9447 55.4249 56.5526 57.5165 60.3173 57.987C62.2519 58.1962 64.1866 58.0916 66.0689 57.8302C66.2258 57.8302 66.3826 57.7256 66.5395 57.8302C67.0101 58.0916 66.3826 58.8236 66.2781 59.1897C65.8075 60.2354 65.2323 61.3334 64.3957 62.1178C62.7225 63.7387 64.814 67.1374 65.0232 69.2289C65.1277 70.6406 64.9186 72.0001 65.0232 73.3073ZM64.2389 73.3596C64.1866 72.1047 63.4023 70.9544 62.8794 69.804C62.0951 67.5557 61.2585 64.9936 62.1473 62.5883C62.4611 61.8563 63.0885 61.2812 63.716 60.8629C64.5526 60.0785 65.2846 59.0328 65.8075 57.987C65.6506 58.1962 65.8598 58.7714 66.2781 58.7191C59.2192 59.9217 55.4022 57.7256 49.1277 54.7452L49.0232 54.6929C49.2323 54.7975 49.4937 54.6929 49.5983 54.4838V54.4315C49.4415 54.7975 49.2323 55.1635 49.0754 55.5818C45.8859 62.9021 45.0493 71.8432 48.6571 79.1635C50.9055 83.7648 55.0362 86.9544 58.1735 90.9282C58.6964 91.5557 59.7944 92.8629 60.3173 93.5426C60.1604 93.3334 59.6375 93.2812 59.533 93.5426L59.4807 93.6472C59.533 93.3857 59.5853 93.072 59.6898 92.8106C59.899 91.974 60.2127 90.9282 60.4219 90.0393C60.4219 89.987 60.4219 89.987 60.4219 89.987C59.9513 89.7779 59.4284 89.5687 58.9578 89.3596C57.7552 88.8367 56.3957 88.5753 55.2454 87.8432C51.3761 85.1766 49.2323 80.0001 50.1735 75.2942C50.7487 71.9478 53.2062 68.3923 56.9709 68.706C60.0558 68.6537 62.9317 70.4838 64.3434 73.2027L64.3957 73.3073C64.3434 73.255 64.2911 73.255 64.2389 73.3596Z" fill="black"/>
<path d="M64.7095 61.1763C64.4481 61.4377 64.2389 61.6992 63.9775 61.856C63.35 62.3266 63.0363 63.0064 62.9317 63.7907C59.6899 63.9475 55.0363 62.5881 53.4154 62.0652C53.0494 61.9606 52.8402 61.6469 52.8402 61.2809V61.0194C52.8402 60.4443 53.3631 60.0783 53.886 60.1828C57.5461 61.1763 64.5003 61.1763 64.7095 61.1763Z" fill="black"/>
<path d="M63.6639 68.1829C60.788 67.9737 58.0168 67.4508 56.7619 67.1894C56.3436 67.0848 56.0822 66.7711 56.0822 66.3528C56.0822 65.8299 56.5527 65.4639 57.0756 65.5162C59.4286 65.8822 61.9384 65.8299 63.141 65.7776C63.1933 66.5097 63.4024 67.294 63.6639 68.1829Z" fill="black"/>
<path d="M151.193 44.0785C182.931 105.203 127.141 174.17 60.6308 157.333C30.7746 149.909 6.77457 124.026 1.80725 93.6471C-3.83981 63.4249 9.80725 30.9543 35.3236 13.8563C70.304 -10.196 118.775 -2.19602 143.82 32.2092C143.977 32.3661 143.925 32.6275 143.716 32.7844C143.559 32.9412 143.297 32.889 143.141 32.6798C139.69 28.2354 135.768 24.2092 131.48 20.6014C124.422 14.5883 116.16 9.88241 107.428 6.69287C62.9837 -9.41171 14.1994 17.3595 4.47391 63.8432C-6.50648 115.922 37.7811 163.869 90.5916 156.706C131.324 151.582 161.598 113.987 158.252 73.0981C157.52 63.2157 154.905 53.438 150.565 44.4445C150.461 44.2876 150.565 44.0785 150.722 43.9739C150.879 43.8693 151.088 43.9216 151.193 44.0785Z" fill="black"/>
</g>
</svg>
