<svg width="161" height="160" viewBox="0 0 161 160" fill="none" xmlns="http://www.w3.org/2000/svg">
<mask id="mask0_426_9831" style="mask-type:alpha" maskUnits="userSpaceOnUse" x="0" y="0" width="160" height="160">
<circle cx="80.2377" cy="79.7377" r="79.7377" fill="#D9D9D9"/>
</mask>
<g mask="url(#mask0_426_9831)">
<path d="M123.951 145.569C123.585 145.83 123.167 146.092 122.801 146.353C122.382 146.614 122.016 146.876 121.598 147.085C121.232 147.294 120.918 147.503 120.552 147.713C120.5 147.765 120.448 147.765 120.396 147.817C119.193 148.549 117.938 149.229 116.683 149.856C116.317 150.065 115.899 150.275 115.533 150.431C115.533 150.431 115.48 150.484 115.428 150.484C115.01 150.693 114.592 150.902 114.173 151.111C113.337 151.53 112.448 151.896 111.611 152.262C111.193 152.471 110.722 152.628 110.304 152.784C109.886 152.941 109.415 153.15 108.997 153.307C108.579 153.464 108.108 153.673 107.69 153.83C107.69 153.83 107.69 153.83 107.637 153.83C107.219 153.987 106.748 154.144 106.33 154.301C105.389 154.614 104.396 154.928 103.454 155.242C103.141 155.347 102.775 155.451 102.461 155.556C101.467 155.869 100.474 156.131 99.4805 156.34C99.1145 156.445 98.7485 156.497 98.3302 156.601C97.389 156.811 96.3955 157.02 95.4543 157.229C95.2452 157.281 95.0883 157.281 94.8792 157.333C94.5655 157.386 94.1994 157.438 93.8857 157.49C93.4151 157.543 92.9968 157.647 92.5262 157.699C92.3171 157.752 92.1079 157.752 91.8988 157.804C91.6374 157.856 91.3236 157.909 91.0099 157.909C90.1733 158.013 89.2844 158.118 88.4478 158.222C88.1864 158.275 87.8727 158.275 87.6112 158.327H87.5589C87.1929 158.379 86.8269 158.379 86.4609 158.431C86.0949 158.484 85.7289 158.484 85.3628 158.484C85.1537 158.484 84.8923 158.536 84.6831 158.536C84.2648 158.536 83.8988 158.588 83.5328 158.588C83.0099 158.588 82.5393 158.641 82.0164 158.641C81.4936 158.641 81.023 158.641 80.5001 158.641C80.1341 158.641 79.7681 158.641 79.4021 158.641C57.3367 158.327 37.5197 148.967 23.3498 134.118C23.3498 134.118 23.3498 134.065 23.2975 134.065C21.7289 132.654 23.0883 125.124 29.4151 120.366C37.3628 114.353 56.3955 110.588 56.3955 110.588C56.3955 110.588 63.7681 109.386 91.1145 115.085C107.114 118.431 119.297 123.294 126.095 136.471C127.507 139.19 128.918 143.373 123.951 145.569Z" fill="white"/>
<path d="M91.2713 114.51C101.311 116.549 112.03 118.745 120.291 125.386C123.062 127.634 124.892 130.928 126.409 134.118C127.141 135.687 127.873 137.307 128.448 139.033C128.762 140.183 129.232 141.49 128.971 142.85C128.918 143.216 128.605 143.687 128.343 143.948C127.141 145.151 125.833 145.883 124.526 146.824C116.84 152.157 108.003 155.922 98.853 157.909C78.4609 162.353 56.3955 158.902 38.4609 148.183C32.5001 144.575 27.0099 140.183 22.304 135.007C21.7811 134.379 21.7811 133.334 21.7811 132.654C21.8334 131.085 22.2517 129.569 22.7746 128.157C24.0295 124.915 25.6504 121.673 28.4217 119.425C30.4086 118.066 32.5524 116.915 34.7484 115.974C41.6504 113.046 48.9184 111.007 56.3955 110.17C57.023 110.118 57.1275 111.007 56.5001 111.111C49.3367 112.575 42.2256 114.771 35.585 117.752C33.1798 118.955 30.6177 120 28.6831 121.883C26.853 123.87 25.5458 126.327 24.5001 128.837C23.8203 130.353 23.3498 132.758 23.5589 133.961C26.853 137.883 30.7223 141.334 34.9053 144.314C57.8073 160.314 92.5785 161.36 116.945 148.026C119.141 146.824 121.284 145.464 123.324 144.053C124.317 143.373 125.363 142.798 126.147 142.013C126.199 141.961 126.147 142.013 126.147 142.066C126.147 142.118 126.095 142.17 126.095 142.17C126.147 141.543 125.938 140.706 125.677 139.87C124.735 136.837 123.219 133.647 121.598 130.876C119.036 126.745 114.696 124.131 110.304 122.039C107.271 120.628 104.082 119.53 100.84 118.484C97.5981 117.438 94.304 116.549 91.0099 115.765C90.1733 115.556 90.4347 114.353 91.2713 114.51Z" fill="black"/>
<path d="M123.951 145.569C123.585 145.83 123.167 146.092 122.801 146.353C122.383 146.614 122.017 146.876 121.598 147.085C121.232 147.294 120.919 147.503 120.553 147.713C120.5 147.765 120.448 147.765 120.396 147.817C119.193 148.549 117.938 149.229 116.683 149.856C116.317 150.065 115.899 150.275 115.533 150.431C115.533 150.431 115.481 150.484 115.428 150.484C115.01 150.693 114.592 150.902 114.174 151.111C113.337 151.53 112.448 151.896 111.611 152.262C111.193 152.471 110.723 152.628 110.304 152.784C109.886 152.941 109.415 153.15 108.997 153.307C108.579 153.464 108.108 153.673 107.69 153.83C107.69 153.83 107.69 153.83 107.638 153.83C107.219 153.987 106.749 154.144 106.33 154.301C105.389 154.614 104.396 154.928 103.455 155.242C103.141 155.347 102.775 155.451 102.461 155.556C101.468 155.869 100.474 156.131 99.4808 156.34C99.1147 156.445 98.7487 156.497 98.3304 156.601C97.3893 156.811 96.3958 157.02 95.4546 157.229C95.2455 157.281 95.0886 157.281 94.8795 157.333C94.5657 157.386 94.1997 157.438 93.886 157.49C93.4154 157.543 92.9971 157.647 92.5265 157.699C92.3174 157.752 92.1082 157.752 91.8991 157.804C91.6376 157.856 91.3239 157.909 91.0102 157.909C90.1736 158.013 89.2847 158.118 88.4481 158.222C88.1866 158.275 87.8729 158.275 87.6115 158.327H87.5592C87.1932 158.379 86.8272 158.379 86.4611 158.431C86.0951 158.484 85.7291 158.484 85.3631 158.484C85.154 158.484 84.8925 158.536 84.6834 158.536C84.2651 158.536 83.8991 158.588 83.533 158.588C83.0102 158.588 82.5396 158.641 82.0167 158.641C81.4938 158.641 81.0232 158.641 80.5004 158.641C80.1344 158.641 79.7683 158.641 79.4023 158.641C57.337 158.327 37.52 148.967 23.35 134.118C23.35 134.118 23.35 134.065 23.2977 134.065C21.7291 133.281 22.8272 124.34 29.154 119.582C37.1017 113.569 56.3958 110.588 56.3958 110.588C56.3958 110.588 63.7683 109.386 91.1147 115.085C105.755 118.118 119.35 122.928 124.317 131.294C125.677 133.595 128.971 138.092 128.396 141.49C128.082 143.32 125.52 144.157 123.951 145.569Z" fill="white"/>
<path d="M91.2716 114.51C100.997 116.601 112.396 118.432 120.396 124.758C125.52 128.837 127.193 135.32 129.651 141.177C129.86 141.543 129.651 141.909 129.494 142.222C128.082 144.418 125.781 145.883 123.69 147.347C117.572 151.477 110.723 154.615 103.664 156.654C80.0297 163.503 53.3108 159.216 33.2846 144.837C29.2585 141.961 25.5461 138.667 22.252 135.007L22.5134 135.216C21.6768 134.641 21.4677 133.595 21.4677 132.706C21.7291 129.046 23.35 125.7 24.9709 122.458C25.4938 121.517 26.069 120.471 26.9056 119.739C34.5918 112.68 47.2454 109.961 57.3369 109.02C57.9644 108.968 58.0167 109.856 57.4415 109.961C48.082 111.686 38.3565 113.883 30.4088 119.32C29.3631 120.157 28.1082 120.994 27.3761 122.144C26.1735 124.026 21.9382 132.183 23.5069 133.856C34.435 146.876 50.8533 154.353 67.533 156.34C83.9513 158.536 101.258 156.288 115.951 148.497C118.043 147.399 120.082 146.196 122.017 144.837C123.794 143.634 125.572 142.484 126.932 140.863L126.879 140.968L126.827 141.909C126.67 139.974 125.677 138.092 125.049 136.262C124.317 134.432 123.533 132.497 122.592 130.824C120.709 127.425 117.468 125.02 114.069 123.19C110.566 121.307 106.749 119.948 102.827 118.798C98.9056 117.647 94.984 116.654 90.9578 115.765C90.1735 115.556 90.435 114.353 91.2716 114.51Z" fill="black"/>
<path d="M30.252 118.431C30.252 118.431 32.8663 118.745 36.4742 120.941C43.2193 125.072 53.7814 150.745 35.3761 166.118C35.3761 166.118 32.082 185.36 35.3761 189.02C35.3761 189.02 95.6114 192.052 121.598 189.02C121.598 189.02 125.049 177.726 123.376 165.647C121.285 150.327 121.912 134.222 111.821 120.471C107.219 114.196 84.1605 108.758 70.8271 108.863C57.3369 109.02 51.7421 110.431 48.1866 111.32C44.5787 112.262 30.5134 115.66 30.252 118.431Z" fill="black" stroke="black" stroke-width="5.1257" stroke-miterlimit="10" stroke-linecap="round" stroke-linejoin="round"/>
<path d="M31.8206 120.523C38.1474 114.719 37.4153 119.634 49.2846 117.7C53.8336 116.968 59.2192 113.203 66.1735 113.36C71.1931 113.464 76.631 117.229 83.0624 118.066C88.2388 118.745 94.4088 116.392 100.579 117.647C105.755 118.745 110.566 123.294 116.526 124.915" stroke="white" stroke-width="4" stroke-miterlimit="10" stroke-linecap="round" stroke-linejoin="round"/>
<path d="M32.2914 127.477C39.7162 123.033 38.3045 127.686 50.0692 126.066C54.7228 125.438 60.2652 121.569 67.1672 121.621C72.2914 121.673 77.8339 125.386 84.3175 126.013C89.5986 126.536 95.7685 123.974 101.991 125.02C107.324 125.961 112.291 130.458 118.304 131.869" stroke="white" stroke-width="4" stroke-miterlimit="10" stroke-linecap="round" stroke-linejoin="round"/>
<path d="M32.7617 134.484C40.9186 131.242 39.1408 135.634 50.8009 134.379C55.6114 133.857 61.2585 129.987 68.1604 129.987C73.3892 129.987 79.0885 133.647 85.5722 134.17C90.9578 134.589 97.18 131.765 103.402 132.654C108.84 133.438 114.017 137.83 120.134 139.033" stroke="white" stroke-width="4" stroke-miterlimit="10" stroke-linecap="round" stroke-linejoin="round"/>
<path d="M33.2323 141.595C41.8598 139.451 39.8728 143.582 51.4284 142.641C56.3434 142.222 62.1473 138.405 69.0493 138.353C74.4349 138.301 80.2911 141.961 86.7748 142.327C92.3173 142.641 98.4872 139.556 104.814 140.235C110.409 140.811 115.847 145.098 122.017 146.092" stroke="white" stroke-width="4" stroke-miterlimit="10" stroke-linecap="round" stroke-linejoin="round"/>
<path d="M33.5985 148.706C42.5397 147.451 40.3959 151.373 51.9515 150.798C57.0233 150.536 62.9841 146.719 69.9384 146.667C75.4286 146.615 81.4416 150.327 87.9776 150.536C93.6247 150.745 99.8469 147.451 106.226 147.87C111.978 148.288 117.677 152.419 123.899 153.098" stroke="white" stroke-width="4" stroke-miterlimit="10" stroke-linecap="round" stroke-linejoin="round"/>
<path d="M33.9641 155.818C43.1144 155.295 40.9184 159.112 52.4739 158.85C57.7027 158.746 63.8203 154.981 70.7746 154.981C76.4216 154.981 82.5393 158.693 89.1275 158.798C94.9314 158.903 101.206 155.399 107.585 155.608C113.494 155.818 119.454 159.791 125.781 160.157" stroke="white" stroke-width="4" stroke-miterlimit="10" stroke-linecap="round" stroke-linejoin="round"/>
<path d="M96.1858 128.419C95.0877 133.804 87.9766 137.046 76.0028 132.183C63.5583 127.164 58.1727 115.19 56.8132 111.634C64.1858 97.8303 59.0616 88.2617 59.0616 88.2617C76.0551 86.7976 90.9047 106.667 90.9047 106.667L93.2054 116.497C93.4145 117.334 93.8328 118.066 94.4603 118.588C95.5583 120.523 96.8655 124.968 96.1858 128.419Z" fill="white"/>
<path d="M56.5521 111.791C57.5455 110.275 58.173 108.497 58.5913 106.772C59.3756 103.164 59.637 99.5035 59.6893 95.8434V94.4839C59.5324 93.1244 59.0619 91.7127 58.539 90.4578C57.8592 88.7846 60.3168 87.7388 61.1011 89.412C61.2057 89.6212 61.2056 89.9872 61.2056 90.1963C61.3625 97.3075 61.6762 106.458 57.1795 112.366C56.8658 112.68 56.2383 112.209 56.5521 111.791Z" fill="black"/>
<path d="M91.48 106.562C92.2643 107.033 92.5257 107.66 92.6303 108.288C92.944 109.543 92.8394 110.902 93.1532 112.209C93.4146 113.464 94.1989 114.667 94.4081 115.974C94.6695 117.334 95.4538 120.209 95.7676 121.621C95.8721 121.935 95.663 122.301 95.297 122.353C95.0878 122.406 94.931 122.353 94.7741 122.249C94.0944 121.674 93.7806 121.098 93.3623 120.366C92.6826 119.111 92.212 117.961 91.7937 116.549C91.4277 115.294 91.5845 113.935 91.2708 112.628C91.0094 111.373 90.2774 110.17 90.0159 108.863C89.8591 108.236 89.8068 107.556 90.2774 106.772C90.5911 106.458 91.114 106.353 91.48 106.562Z" fill="black"/>
<path d="M95.2448 120.366C85.2579 119.843 77.101 116.706 69.1533 102.536C75.8461 108.445 83.7416 110.693 92.0553 111.739L93.1533 116.549C93.3625 117.386 94.6174 119.843 95.2448 120.366Z" fill="black"/>
<path d="M94.8268 118.432C96.6046 121.778 97.6504 125.961 96.5523 129.674C95.7157 132.288 93.3105 134.223 90.6961 134.955C84.6308 136.576 77.6242 134.014 72.2386 131.138C65.5981 127.425 60.683 121.203 57.5458 114.406C57.3366 113.883 58.0687 113.464 58.3824 113.987C59.4804 116.183 60.7353 118.327 62.1471 120.262C63.5589 122.249 65.1798 124.079 67.0098 125.7C72.3432 130.51 79.5589 133.491 86.7745 133.491C94.1994 133.281 97.0229 129.36 95.2974 122.144C95.036 120.994 94.6177 119.791 94.0425 118.798C93.7288 118.38 94.5131 117.909 94.8268 118.432Z" fill="black"/>
<path d="M115.062 55.634C116.003 60.0262 115.271 62.9543 114.853 75.085C114.434 87.0066 110.983 103.843 106.748 108.078C103.506 111.268 93.1011 113.778 83.8462 111.425C79.1403 110.222 75.1665 107.503 71.9246 105.569C67.8462 103.111 64.2906 95.5295 61.3625 90.6667C59.0619 86.8497 59.271 91.451 56.2906 88.1569C52.1599 83.6602 47.1926 74.6144 49.6501 58.6144C53.624 32.6798 74.173 29.6471 89.3887 32.5229C104.709 35.3987 112.552 44.0785 115.062 55.634Z" fill="white"/>
<path d="M58.9052 92.7584C57.7026 90.7715 56.134 88.9937 54.7222 87.1114C52.6307 84.2356 51.0621 80.9414 50.0164 77.5427C45.4673 63.0068 48.2386 43.9741 61.9902 35.399C74.4869 27.4512 98.7484 30.3271 108.892 41.2029C112.709 45.1244 115.167 50.2486 116.212 55.582C116.265 55.8957 116.422 56.4709 116.474 56.7846C116.526 57.046 116.683 57.3597 116.631 57.6735C116.526 58.8238 116.317 59.9741 116.212 61.1244C115.428 68.0787 115.637 75.1898 114.748 82.1441C113.964 89.4643 112.918 96.7846 110.722 103.843C110.043 105.987 108.735 107.922 107.01 109.334C103.141 112.575 98.0687 113.673 93.2059 113.883C83.4804 114.353 73.5981 110.902 67.951 102.693C67.7418 102.379 68.1601 102.013 68.4216 102.327C73.1275 107.399 79.5066 110.641 86.3039 111.373C93.8334 112.262 105.18 111.582 108.474 103.53C112.291 92.131 114.278 80.0525 114.487 68.0787C114.487 65.1506 114.33 62.2225 114.33 59.2421C114.33 58.8761 114.382 58.0395 114.382 57.6735C114.382 57.6212 114.382 57.6735 114.382 57.6735C114.382 57.7258 114.382 57.7258 114.382 57.6735C113.964 56.6277 113.807 55.4774 113.493 54.4316C112.343 50.0918 110.252 45.961 107.271 42.6669C97.3889 31.582 75.3758 28.8107 63.036 37.1244C53.2582 43.6081 50.6438 56.0525 49.9641 67.0329C49.3889 75.2421 51.7941 83.2944 58.0164 88.9414L60.4739 91.5035C61.5196 92.6539 59.7418 94.0133 58.9052 92.7584Z" fill="black"/>
<path d="M65.0754 76.1308C65.0754 76.1308 63.4545 68.2876 55.8205 69.2288C49.2322 70.0654 46.9316 85.8562 61.8858 90.2484" fill="white"/>
<path d="M61.2056 83.3989C60.003 82.7192 59.1664 81.5689 59.1141 80.1571C59.1664 79.1114 59.3233 77.9087 59.0619 76.863C58.905 75.8695 57.8592 75.6081 57.0749 75.6604C56.2383 75.8172 55.7155 76.863 55.5586 77.6996C55.5586 77.7519 55.5063 77.9088 55.5063 77.961C55.454 78.2225 55.0357 78.2225 54.9311 77.961C54.2514 75.9218 55.7677 73.6735 57.9638 73.9349C61.0488 74.144 61.4671 77.3859 60.8919 79.8434C60.5782 80.8891 60.9965 81.8303 61.5717 82.7192L61.6762 82.8761C61.9377 83.1898 61.5194 83.6081 61.2056 83.3989Z" fill="black"/>
<path d="M103.036 70.5887C103.821 74.3011 105.285 77.7521 107.115 80.9939C108.736 84.9677 104.553 88.7324 100.84 88.5756C100.422 88.5756 100.37 88.0004 100.736 87.8958C103.089 87.1638 105.232 85.5952 105.598 83.19C105.755 82.4579 105.546 81.8305 105.18 81.203C103.455 77.9612 102.409 74.2488 102.67 70.5887C102.67 70.3272 103.036 70.3272 103.036 70.5887Z" fill="black"/>
<path d="M64.8137 76.1832C63.6111 73.0983 60.9967 70.1702 57.4934 70.2225C57.1797 70.1702 56.6568 70.2747 56.3431 70.2747C55.4542 70.327 54.7222 70.6408 54.0425 71.2682C50.6961 74.6146 51.2712 80.5231 53.9902 84.2355C54.9314 85.5427 56.134 86.693 57.4934 87.6342C58.8529 88.5754 60.3693 89.3074 61.9902 89.9349C62.3562 90.0394 62.1993 90.6146 61.8333 90.5623C58.33 89.8303 54.9836 88.1048 52.683 85.229C49.1274 80.9414 48.3954 73.778 52.6307 69.595C53.5719 68.7584 54.8791 68.131 56.1863 68.131C56.6046 68.131 57.232 68.0264 57.6503 68.131C59.8464 68.2355 61.9379 69.3336 63.2974 71.0591C64.5 72.5231 65.1797 74.3009 65.3889 76.0787C65.3889 76.3924 64.9183 76.497 64.8137 76.1832Z" fill="black"/>
<path d="M99.5325 93.5427C98.6436 94.1702 97.3364 93.6473 96.3953 94.0656C95.7155 94.2748 94.6175 95.2159 93.0489 95.1114C91.7939 95.0068 91.1665 94.3794 90.1207 93.9088C89.0227 93.5427 87.8724 92.863 87.1404 91.9741C86.9835 91.8173 86.9835 91.6081 87.1404 91.4512C87.3495 91.2421 87.5587 91.399 87.7678 91.5035C88.2384 91.765 88.6044 91.9741 88.9704 92.0787C89.3364 92.1833 89.7024 92.0787 90.2776 92.0787C90.8528 92.0264 91.6894 92.2878 92.2122 92.7061C92.5783 92.9676 92.9966 93.1244 93.3103 93.1767C94.1469 93.3336 95.1926 92.6539 96.0815 92.5493C96.709 92.4447 97.3887 92.497 97.9116 92.6539C98.4345 92.8107 98.8005 92.9153 99.2188 92.8107C99.6894 92.7061 99.9508 93.3336 99.5325 93.5427Z" fill="black"/>
<path d="M83.5328 75.9213C82.2779 75.869 81.3367 74.8233 81.4413 73.5684L81.4936 72.1043C81.5459 70.8494 82.5916 69.9082 83.8465 70.0128C85.1014 70.0651 86.0426 71.1109 85.938 72.3658L85.8857 73.8298C85.8334 75.0324 84.7877 75.9736 83.5328 75.9213Z" fill="black"/>
<path d="M105.546 76.7058C104.395 76.6535 103.507 75.6601 103.559 74.5097L103.611 73.1502C103.663 71.9999 104.657 71.111 105.807 71.1633C106.958 71.2156 107.846 72.2091 107.794 73.3594L107.742 74.7189C107.69 75.8692 106.696 76.7581 105.546 76.7058Z" fill="black"/>
<path d="M88.2388 73.0977C86.5133 71.9474 84.6309 71.1631 82.5394 71.5814C81.8597 71.686 81.1799 71.8951 80.7616 72.3657C80.6048 72.5749 80.2388 72.5226 80.2388 72.2089C80.2911 71.1631 81.1799 70.4834 82.0165 70.0651C83.6375 69.2285 85.8858 69.3853 87.3499 70.4834C87.8728 70.7971 89.6505 72.7317 88.7094 73.15C88.5002 73.2546 88.3956 73.2023 88.2388 73.0977Z" fill="black"/>
<path d="M103.193 73.3594C103.193 71.1633 105.912 70.379 107.585 71.1633C108.526 71.5816 109.206 72.4182 109.468 73.4117C109.572 73.7254 109.101 73.9868 108.892 73.7254C108.003 72.6797 106.487 72.1568 105.284 72.7842C104.918 72.9934 104.866 73.1502 104.762 73.3594C104.762 74.4051 103.245 74.3529 103.193 73.3594Z" fill="black"/>
<path d="M90.7485 64.4704C91.8466 64.8364 92.9446 63.843 92.7354 62.6403C92.6309 62.0129 92.3694 61.3854 91.8466 60.9148C90.2779 59.5031 83.7943 58.2482 79.8727 60.0782C76.4217 61.7515 85.7289 62.7972 90.7485 64.4704Z" fill="black"/>
<path d="M106.383 65.307C105.494 65.6208 104.553 64.6796 104.71 63.5815C104.762 63.0064 104.971 62.4312 105.389 62.0129C106.644 60.758 110.932 59.7646 113.651 61.6992C116.004 63.3201 110.461 63.7907 106.383 65.307Z" fill="black"/>
<path d="M119.036 43.1896C122.749 29.7517 107.69 21.3334 103.664 27.3987C100.735 31.7909 89.4413 28.3922 72.291 28.0785C55.1407 27.7125 50.5394 36.8105 50.3302 46.5883C50.3302 46.5883 42.8008 50.5621 43.2714 64.5752C43.742 79.1112 58.6963 90.8236 60.5263 98.1961C60.5263 98.1961 60.7355 99.1373 58.7485 89.0458C47.3498 83.5556 49.7551 70.0131 55.8727 69.2288C60.5263 68.6536 62.9838 71.3726 64.1342 73.5687C64.6047 74.1961 69.0492 79.634 69.1538 61.8563C69.2061 49.7255 81.023 45.7517 94.461 50.6667C101.467 53.2288 108.84 55.1112 113.912 51.451C114.749 53.8563 115.637 56.5229 114.958 59.7648C116.997 57.8824 118.722 55.1112 119.193 51.7125C119.507 49.6732 118.984 47.8955 117.834 46.3268C118.304 45.438 118.722 44.3399 119.036 43.1896Z" fill="black"/>
<path d="M59.219 77.7515C59.219 77.7515 55.036 77.124 55.3497 82.9802C55.5066 85.9606 55.5066 87.5815 55.4543 88.4181C55.402 88.9933 55.768 89.5162 56.2909 89.7253C56.9183 89.9868 57.5981 89.7253 57.9118 89.0979C58.3824 88.2613 58.9052 87.111 58.9052 86.1698C58.9052 84.6011 60.5784 83.1894 60.5784 83.1894C60.5784 83.1894 59.0621 81.8822 59.219 77.7515Z" fill="white"/>
<path d="M59.0622 77.9084C59.0622 77.9607 59.1144 78.0129 59.1667 78.0129C59.1667 78.0129 59.1667 78.0129 59.1144 78.0129H59.0099C56.5001 78.2221 55.7158 80.4182 55.8203 82.6665C55.8726 84.1306 55.9772 85.5946 55.9249 87.0064C56.0295 87.7907 55.5589 88.8365 56.3432 89.2548C56.8138 89.5162 57.4412 89.3071 57.6504 88.7842C58.121 87.843 58.5916 86.9018 58.5916 85.8561C58.8007 84.6535 59.585 83.7123 60.4216 82.9803V83.3986C59.3236 82.2482 59.0622 80.6796 58.9053 79.2156C58.9576 78.8495 58.9576 78.2744 59.0622 77.9084ZM59.4282 77.5424C59.585 79.0064 59.585 80.5227 60.2125 81.8299C60.3693 82.196 60.6308 82.6143 60.9445 82.8757C61.1537 83.0326 61.1537 83.3463 60.9445 83.5031C60.2125 84.1829 59.585 85.0195 59.4805 85.9607C59.4805 87.111 59.0099 88.209 58.487 89.2025C58.0687 90.0914 56.8661 90.562 55.9772 90.0391C55.402 89.7254 54.9837 89.0979 54.9837 88.4182C54.9837 87.8953 55.036 87.477 55.036 86.9541C55.036 85.4901 54.9314 84.0783 54.8792 82.6143C54.8792 81.6731 54.9314 80.575 55.3497 79.6339C55.8726 78.1698 57.4935 77.1763 59.0622 77.4378C59.219 77.4378 59.3759 77.4901 59.4282 77.5424Z" fill="black"/>
<path d="M58.5393 139.66C60.2648 132.131 58.0164 123.66 56.0818 116.131C55.2975 113.15 54.5131 110.327 54.1471 107.869C53.4674 103.738 53.938 99.8168 55.6112 96.1567C57.6504 91.6077 57.3367 87.7384 57.3367 87.5815L56.2909 87.6861C56.2909 87.7384 56.6047 91.5031 54.67 95.7384C52.9445 99.5554 52.4216 103.686 53.1014 108.026C53.5197 110.536 54.2517 113.412 55.036 116.392C56.9707 123.765 59.1667 132.131 57.4935 139.399C56.5524 143.425 58.3824 150.013 60.9968 156.601C61.4151 156.653 61.7811 156.706 62.1994 156.758C59.5328 150.17 57.6504 143.529 58.5393 139.66Z" fill="black"/>
<path d="M55.5066 86.0132C55.5588 87.1636 55.5066 87.9479 55.5066 88.4185C55.4543 88.9936 55.8203 89.5165 56.3432 89.7256C56.9706 89.9871 57.6503 89.7256 57.9641 89.0982C58.4347 88.2616 58.9575 87.1113 58.9575 86.1701C58.9575 86.1178 58.9575 86.0132 58.9575 85.9609C57.9118 86.3792 56.6569 86.693 55.5066 86.0132Z" fill="white"/>
<path d="M55.6634 86.2221C55.7157 86.9542 55.768 87.6339 55.768 88.3659C55.7157 88.6796 55.8203 88.9934 56.0295 89.2548C56.7092 89.9345 57.6504 89.5162 57.9118 88.6796C58.3301 87.843 58.6961 86.9542 58.6961 86.013L59.0621 86.2744C57.9118 86.4836 56.7092 86.7973 55.6112 86.3267C55.6112 86.3267 55.6634 86.2744 55.6634 86.2221ZM55.402 85.7515C55.5066 85.7515 55.7157 85.8038 55.8203 85.9084C56.7615 86.5881 57.9641 86.2744 58.9053 85.7515C59.0621 85.647 59.3236 85.8038 59.2713 86.013C59.219 87.2156 58.7484 88.3659 58.121 89.4117C57.5458 90.196 56.3432 90.2483 55.6634 89.5685C55.3497 89.2548 55.1929 88.7319 55.2451 88.3136C55.2451 87.4247 55.3497 86.5881 55.402 85.7515Z" fill="black"/>
<path d="M104.762 120.784C105.65 114.614 104.814 110.222 104.5 108.915C104.343 109.02 104.239 109.176 104.082 109.281C103.925 109.438 103.768 109.542 103.611 109.699C103.925 111.373 104.5 115.346 103.716 120.627C103.35 123.085 103.245 126.954 103.193 131.451C103.088 135.791 101.729 146.614 100.108 156.863C100.474 156.758 100.84 156.654 101.206 156.601C102.827 146.458 104.134 135.843 104.239 131.503C104.343 127.007 104.395 123.19 104.762 120.784Z" fill="black"/>
<path d="M151.193 44.0785C182.931 105.203 127.141 174.17 60.6308 157.333C30.7746 149.909 6.77457 124.026 1.80725 93.6471C-3.83981 63.4249 9.80725 30.9543 35.3236 13.8563C70.304 -10.196 118.775 -2.19602 143.82 32.2092C143.977 32.3661 143.925 32.6275 143.716 32.7844C143.559 32.9412 143.297 32.889 143.141 32.6798C139.69 28.2354 135.768 24.2092 131.48 20.6014C124.422 14.5883 116.16 9.88241 107.428 6.69287C62.9837 -9.41171 14.1994 17.3595 4.47391 63.8432C-6.50648 115.922 37.7811 163.869 90.5916 156.706C131.324 151.582 161.598 113.987 158.252 73.0981C157.52 63.2157 154.905 53.438 150.565 44.4445C150.461 44.2876 150.565 44.0785 150.722 43.9739C150.879 43.8693 151.088 43.9216 151.193 44.0785Z" fill="black"/>
</g>
</svg>
