<svg width="449" height="361" viewBox="0 0 449 361" fill="none" xmlns="http://www.w3.org/2000/svg">
<rect x="1" y="1.00122" width="392.205" height="288.239" stroke="#C6C6C6" stroke-width="2" stroke-linejoin="round" stroke-dasharray="3 3"/>
<rect x="41.0293" y="39.512" width="407.659" height="307.824" fill="#F1F1F1"/>
<rect x="51.0137" y="84.4373" width="387.692" height="256.243" fill="white"/>
<rect x="412.083" y="59.4792" width="24.9587" height="6.65566" rx="3.32783" fill="#C4C4C4"/>
<circle cx="55.1735" cy="61.975" r="4.15979" fill="#C4C4C4"/>
<circle cx="66.819" cy="61.975" r="4.15979" fill="#C4C4C4"/>
<circle cx="78.4674" cy="61.975" r="4.15979" fill="#C4C4C4"/>
<path d="M121.569 155.005L364.712 272.777" stroke="#FFB422" stroke-width="4"/>
<path d="M230.226 298.611L249.221 111.695" stroke="#FFB422" stroke-width="4"/>
<path d="M117.772 286.454L363.954 154.245" stroke="#FFB422" stroke-width="4"/>
<g filter="url(#filter0_d_594_11136)">
<rect x="189.955" y="151.965" width="106.375" height="106.375" rx="50" fill="#5236FF"/>
</g>
<rect x="335.838" y="244.664" width="60.7856" height="60.7856" rx="30.3928" fill="#F1F1F1"/>
<rect x="89.6582" y="117.013" width="63.8249" height="63.8249" rx="31.9125" fill="#FFB422"/>
<rect x="92.6973" y="262.9" width="54.7071" height="54.7071" rx="27.3535" fill="#FF4E42"/>
<rect x="329.764" y="124.612" width="54.7071" height="54.7071" rx="27.3535" fill="#0C58F2"/>
<rect x="211.23" y="284.174" width="36.4714" height="36.4714" rx="18.2357" fill="#3820C6"/>
<rect x="230.986" y="92.6995" width="36.4714" height="36.4714" rx="18.2357" fill="#F1F1F1"/>
<g clip-path="url(#clip0_594_11136)">
<path d="M259.039 200.497C256.586 194.025 250.334 189.423 243.011 189.423C235.688 189.423 229.436 194.02 226.982 200.491C222.391 201.697 219 205.875 219 210.852C219 216.772 223.795 221.566 229.709 221.566H256.291C262.205 221.566 267 216.772 267 210.852C267 205.886 263.62 201.707 259.039 200.497ZM260.984 215.55C260.369 216.168 259.638 216.659 258.832 216.993C258.027 217.326 257.163 217.497 256.291 217.495H229.709C227.936 217.495 226.27 216.804 225.016 215.55C224.398 214.934 223.907 214.202 223.574 213.396C223.24 212.589 223.069 211.725 223.071 210.852C223.071 209.352 223.559 207.943 224.475 206.764C225.372 205.623 226.614 204.802 228.016 204.423L230.046 203.893L230.791 201.932C231.252 200.711 231.895 199.57 232.704 198.536C233.502 197.511 234.448 196.61 235.511 195.863C237.713 194.314 240.305 193.495 243.011 193.495C245.716 193.495 248.309 194.314 250.511 195.863C251.577 196.613 252.52 197.513 253.318 198.536C254.127 199.57 254.77 200.716 255.23 201.932L255.97 203.888L257.995 204.423C260.904 205.2 262.929 207.841 262.929 210.852C262.929 212.625 262.237 214.297 260.984 215.55Z" fill="white"/>
</g>
<defs>
<filter id="filter0_d_594_11136" x="173.955" y="140.965" width="148.375" height="148.375" filterUnits="userSpaceOnUse" color-interpolation-filters="sRGB">
<feFlood flood-opacity="0" result="BackgroundImageFix"/>
<feColorMatrix in="SourceAlpha" type="matrix" values="0 0 0 0 0 0 0 0 0 0 0 0 0 0 0 0 0 0 127 0" result="hardAlpha"/>
<feOffset dx="5" dy="10"/>
<feGaussianBlur stdDeviation="10.5"/>
<feComposite in2="hardAlpha" operator="out"/>
<feColorMatrix type="matrix" values="0 0 0 0 0.700272 0 0 0 0 0.700272 0 0 0 0 0.700272 0 0 0 0.25 0"/>
<feBlend mode="normal" in2="BackgroundImageFix" result="effect1_dropShadow_594_11136"/>
<feBlend mode="normal" in="SourceGraphic" in2="effect1_dropShadow_594_11136" result="shape"/>
</filter>
<clipPath id="clip0_594_11136">
<rect width="48" height="48" fill="white" transform="translate(219 181.501)"/>
</clipPath>
</defs>
</svg>
