<svg width="495" height="360" viewBox="0 0 495 360" fill="none" xmlns="http://www.w3.org/2000/svg">
<rect y="0.000488281" width="198.65" height="360" fill="#F1F1F1"/>
<rect x="4.86914" y="52.5386" width="188.92" height="299.676" fill="white"/>
<rect x="20.2734" y="91.4609" width="156.488" height="217.946" rx="4" fill="#0C58F2"/>
<rect x="180.812" y="23.353" width="12.1622" height="7.78378" rx="3.89189" fill="#C4C4C4"/>
<rect x="30" y="107.501" width="112.5" height="7.5" rx="3.5" fill="white"/>
<rect x="30" y="162.5" width="45" height="7.5" rx="3.5" fill="#FFB422"/>
<rect x="30" y="122.501" width="112.5" height="7.5" rx="3.5" fill="white"/>
<rect x="30" y="177.5" width="112.5" height="7.5" rx="3.5" fill="#FFB422"/>
<rect x="30" y="135" width="62.5" height="7.5" rx="3.5" fill="white"/>
<rect x="30" y="190.001" width="62.5" height="7.5" rx="3.5" fill="white"/>
<circle cx="8.75" cy="25.1548" r="3.75" fill="#C4C4C4"/>
<circle cx="21.25" cy="24.7505" r="3.75" fill="#C4C4C4"/>
<circle cx="33.75" cy="24.752" r="3.75" fill="#C4C4C4"/>
<rect x="144.434" y="100" width="317.838" height="240" fill="#A4C2FD"/>
<rect x="152.215" y="135.03" width="302.27" height="199.784" fill="white"/>
<rect x="176.865" y="160.975" width="250.378" height="145.297" rx="8" fill="#F1F1F1"/>
<rect x="433.727" y="115.568" width="19.4595" height="5.18919" rx="2.59459" fill="#FFFCFC"/>
<rect x="291.025" y="254.378" width="55.7838" height="5.18919" rx="2.59459" fill="white"/>
<rect x="191.135" y="185.623" width="55.7838" height="5.18919" rx="2.59459" fill="white"/>
<rect x="358.484" y="254.378" width="55.7838" height="5.18919" rx="2.59459" fill="white"/>
<rect x="291.025" y="263.46" width="55.7838" height="5.18919" rx="2.59459" fill="white"/>
<rect x="191.135" y="194.703" width="55.7838" height="5.18919" rx="2.59459" fill="white"/>
<rect x="358.484" y="263.46" width="55.7838" height="5.18919" rx="2.59459" fill="white"/>
<rect x="291.025" y="272.541" width="31.1351" height="5.18919" rx="2.59459" fill="white"/>
<rect x="191.135" y="203.785" width="31.1351" height="5.18919" rx="2.59459" fill="white"/>
<rect x="358.484" y="272.541" width="31.1351" height="5.18919" rx="2.59459" fill="white"/>
<circle cx="155.458" cy="117.514" r="3.24324" fill="white"/>
<circle cx="164.538" cy="117.514" r="3.24324" fill="white"/>
<circle cx="173.618" cy="117.514" r="3.24324" fill="white"/>
<g filter="url(#filter0_d_594_10967)">
<rect x="118" y="62.5005" width="161.032" height="24" rx="5" fill="#5236FF"/>
</g>
<rect x="184.578" y="72.5659" width="11.6129" height="3.09677" rx="1.54839" fill="white"/>
<rect x="199.291" y="72.5659" width="10.8387" height="3.09677" rx="1.54839" fill="white"/>
<rect x="127.289" y="69.468" width="9.29032" height="9.29032" rx="4.64516" fill="#7660FC"/>
<rect x="213.225" y="72.5659" width="11.6129" height="3.09677" rx="1.54839" fill="white"/>
<rect x="227.936" y="72.5659" width="11.6129" height="3.09677" rx="1.54839" fill="white"/>
<rect x="242.645" y="72.5659" width="11.6129" height="3.09677" rx="1.54839" fill="white"/>
<rect x="267.418" y="73.3394" width="3.09677" height="1.54839" rx="0.774194" fill="white"/>
<defs>
<filter id="filter0_d_594_10967" x="117" y="62.5005" width="175.032" height="38" filterUnits="userSpaceOnUse" color-interpolation-filters="sRGB">
<feFlood flood-opacity="0" result="BackgroundImageFix"/>
<feColorMatrix in="SourceAlpha" type="matrix" values="0 0 0 0 0 0 0 0 0 0 0 0 0 0 0 0 0 0 127 0" result="hardAlpha"/>
<feOffset dx="6" dy="7"/>
<feGaussianBlur stdDeviation="3.5"/>
<feComposite in2="hardAlpha" operator="out"/>
<feColorMatrix type="matrix" values="0 0 0 0 0.500272 0 0 0 0 0.500272 0 0 0 0 0.500272 0 0 0 0.25 0"/>
<feBlend mode="normal" in2="BackgroundImageFix" result="effect1_dropShadow_594_10967"/>
<feBlend mode="normal" in="SourceGraphic" in2="effect1_dropShadow_594_10967" result="shape"/>
</filter>
</defs>
</svg>
