<svg width="138" height="367" viewBox="0 0 138 367" fill="none" xmlns="http://www.w3.org/2000/svg">
<path fill-rule="evenodd" clip-rule="evenodd" d="M178.214 1.0505C216.03 -5.91813 252.106 23.0667 279.621 50.0667C304.612 74.5895 322.187 108.011 322.986 143.113C323.692 174.137 298.272 197.541 283.599 224.842C272.158 246.13 260.911 265.638 246.657 285.135C224.823 315 215.069 369.831 178.214 368.99C141.013 368.142 128.805 315.441 111.99 282.064C101.65 261.54 114.706 234.044 100.962 215.65C74.135 179.748 0.109586 177.093 9.41738e-05 132.187C-0.0936263 93.7488 69.7891 105.749 100.638 83.049C131.674 60.2115 140.385 8.02147 178.214 1.0505Z" fill="#E4FBFF"/>
</svg>
