<svg width="286" height="356" viewBox="0 0 286 356" fill="none" xmlns="http://www.w3.org/2000/svg">
<path fill-rule="evenodd" clip-rule="evenodd" d="M198.817 55.3251C232.678 61.2276 266.133 30.4173 298.513 41.9418C335.009 54.9312 369.994 82.8199 380.668 120.048C391.266 157.014 362.924 192.003 352.119 228.909C340.859 267.363 348.728 317.217 316.117 340.511C283.501 363.809 233.244 358.942 198.817 338.412C167.656 319.829 166.477 276.363 152.453 242.909C146.324 228.289 152.103 208.499 140.043 198.206C98.5304 162.773 21.6285 167.019 3.31541 115.614C-11.7874 73.2194 27.1792 15.4078 70.1964 2.14218C115.643 -11.8727 151.964 47.1577 198.817 55.3251Z" fill="#E4FBFF"/>
</svg>
