<svg width="498" height="625" viewBox="0 0 498 625" fill="none" xmlns="http://www.w3.org/2000/svg">
<g filter="url(#filter0_d_362_3294)">
<path fill-rule="evenodd" clip-rule="evenodd" d="M370.011 -13.5736C426.283 -15.0677 491.467 -30.3506 534.277 6.24959C577.252 42.9915 565.073 111.56 580.155 166.09C592.474 210.631 604.391 252.403 614.809 297.428C631.823 370.957 690.402 445.053 660.761 514.45C632.085 581.59 548.654 619.815 475.792 622.91C405.657 625.888 357.283 554.498 291.437 530.134C232.027 508.151 156.526 530.85 110.179 487.625C63.2651 443.871 68.6552 370.083 53.0614 307.815C35.4733 237.584 -21.572 162.541 12.8173 98.8468C47.6767 34.2824 141.324 36.8345 211.251 14.8262C263.595 -1.64827 315.161 -12.1173 370.011 -13.5736Z" fill="#0C58F2"/>
</g>
<defs>
<filter id="filter0_d_362_3294" x="0" y="-20" width="671" height="645" filterUnits="userSpaceOnUse" color-interpolation-filters="sRGB">
<feFlood flood-opacity="0" result="BackgroundImageFix"/>
<feColorMatrix in="SourceAlpha" type="matrix" values="0 0 0 0 0 0 0 0 0 0 0 0 0 0 0 0 0 0 127 0" result="hardAlpha"/>
<feMorphology radius="2" operator="dilate" in="SourceAlpha" result="effect1_dropShadow_362_3294"/>
<feOffset/>
<feColorMatrix type="matrix" values="0 0 0 0 0.0941176 0 0 0 0 0.564706 0 0 0 0 1 0 0 0 0.2 0"/>
<feBlend mode="normal" in2="BackgroundImageFix" result="effect1_dropShadow_362_3294"/>
<feBlend mode="normal" in="SourceGraphic" in2="effect1_dropShadow_362_3294" result="shape"/>
</filter>
</defs>
</svg>
