<svg width="320" height="416" viewBox="0 0 320 416" fill="none" xmlns="http://www.w3.org/2000/svg">
<path fill-rule="evenodd" clip-rule="evenodd" d="M103.942 1.55725C160.373 -8.77295 214.208 34.1937 255.268 74.218C292.56 110.57 318.786 160.113 319.979 212.148C321.032 258.138 283.099 292.831 261.203 333.302C244.13 364.859 227.347 393.778 206.077 422.679C173.494 466.952 158.938 548.232 103.942 546.986C48.4277 545.728 30.2107 467.605 5.11758 418.127C-10.3123 387.703 9.17099 346.944 -11.339 319.677C-51.3713 266.456 -161.836 262.521 -162 195.952C-162.14 138.972 -57.8566 156.761 -11.8214 123.111C34.4924 89.2566 47.4911 11.8909 103.942 1.55725Z" fill="#0050B3"/>
</svg>
