<svg width="334" height="479" viewBox="0 0 334 479" fill="none" xmlns="http://www.w3.org/2000/svg">
<path fill-rule="evenodd" clip-rule="evenodd" d="M235.863 96.1706C251.054 107.165 271.456 107.156 290.096 109.196C314.364 111.851 342.095 96.9646 362.706 110.047C382.039 122.318 371.811 158.415 389.853 172.514C424.096 199.272 500.399 181.228 508.447 223.936C515.999 264.008 444.183 272.592 413.847 299.84C397.057 314.921 373.889 327.533 368.666 349.49C359.212 389.238 400.481 440.567 373.15 470.935C350.594 495.998 307.942 454.663 274.225 454.428C246.985 454.237 219.921 479.854 194.648 469.689C167.651 458.83 158.778 424.773 141.779 401.155C129.069 383.498 114.274 367.268 106.345 347.009C99.0991 328.496 110.888 303.379 97.691 288.511C71.9938 259.56 -3.6342 265.879 0.136057 227.352C3.91889 188.696 88.2091 218.964 107.78 185.415C125.579 154.902 78.414 117.81 84.3512 82.9868C89.9722 50.0191 106.057 -2.78446 139.373 0.114524C184.973 4.08239 198.782 69.3346 235.863 96.1706Z" fill="#0C58F2"/>
</svg>
