<svg width="150" height="218" viewBox="0 0 150 218" fill="none" xmlns="http://www.w3.org/2000/svg">
<g style="mix-blend-mode:multiply" opacity="0.2">
<path d="M-33.9557 218C-37.4131 218 -41.5434 217.095 -47.0428 215.043C-61.6382 209.481 -76.6049 192.776 -92.4069 175.11C-101.108 165.408 -110.088 155.374 -119.115 147.151C-132.295 132.294 -154.64 122.056 -176.267 112.133C-192.069 104.889 -206.989 98.0337 -218.545 89.5702L-218.568 89.5517C-227.246 82.9732 -231.307 76.6164 -230.982 70.1302C-230.355 57.472 -213.022 46.1998 -192.927 33.1535L-191.001 31.8969C-176.104 22.1769 -157.402 9.16765 -130.322 -10.2539L-128.025 -11.8431C-103.8 -28.6221 -73.6347 -49.5035 -34.5589 -62.1617C43.7086 -91.488 112.207 -68.7772 133.833 -44.163C156.388 -15.3911 154.439 15.1549 126.408 72.6434C97.0549 132.571 32.0369 178.898 5.44496 196.028C-5.43777 201.683 -12.2598 206.691 -17.2254 210.35C-23.537 214.969 -27.6441 218 -33.9557 218ZM-216.503 87.7962C-205.202 96.0749 -190.421 102.857 -174.782 110.045C-152.9 120.079 -130.253 130.464 -116.794 145.654C-107.745 153.878 -98.7184 163.967 -89.9936 173.706C-74.4005 191.113 -59.6658 207.559 -45.7897 212.863C-32.0761 217.945 -28.8507 215.579 -19.2674 208.557C-14.2089 204.843 -7.27089 199.743 3.68146 194.051C29.9485 177.106 94.5025 131.13 123.6 71.7379C151.237 15.081 153.255 -14.9106 131.327 -42.8695C110.328 -66.7445 43.4302 -88.7716 -33.3523 -59.9996C-72.0336 -47.4523 -101.99 -26.7188 -126.053 -10.0691L-128.327 -8.47988C-155.429 10.9601 -174.155 23.9879 -189.099 33.7264L-191.024 34.9829C-210.562 47.6596 -227.409 58.6177 -227.989 70.1856C-228.267 75.9696 -224.508 81.7166 -216.503 87.7962Z" fill="#CCCCCC"/>
<path d="M-38.4598 201.258C-43.2399 201.258 -48.2984 200.039 -55.2596 197.877L-55.3988 197.84C-68.7644 192.499 -79.3455 179.619 -90.5299 166C-98.1641 156.687 -106.077 147.078 -115.59 138.706C-129.002 125.124 -145.872 114.554 -162.161 104.335C-173.113 97.4796 -183.462 90.9935 -192.489 83.8236L-192.651 83.6757C-211.029 63.7368 -197.849 54.9407 -173.949 38.9563C-171.35 37.2193 -168.612 35.3898 -165.758 33.4311C-160.142 30.1233 -154.156 26.4275 -147.798 22.5099C-119.558 5.08411 -80.8538 -18.7724 -26.2545 -38.1385C40.4806 -58.484 92.0403 -43.7746 113.574 -20.1768C135.154 4.41888 126.777 34.0224 102.529 83.4725C75.9597 133.477 27.4631 165.852 1.40489 183.241L-1.49562 185.181C-20.8711 196.638 -29.1782 201.258 -38.4598 201.258ZM-54.0994 195.659C-35.0952 201.535 -31.8698 200.131 -3.35196 183.315L-0.521057 181.43C25.3284 164.171 73.4537 132.036 99.744 82.6039C123.598 33.9854 131.928 4.93628 111.137 -18.7539C90.2999 -41.5941 40.0862 -55.7676 -25.0943 -35.9025C-79.2991 -16.6843 -117.818 7.07985 -145.965 24.4132C-152.323 28.3308 -158.309 32.0267 -163.878 35.3159C-166.663 37.2193 -169.401 39.0487 -172 40.8042C-195.923 56.8071 -206.875 64.1248 -190.284 82.1974C-181.397 89.2379 -171.141 95.6502 -160.305 102.451C-143.853 112.743 -126.868 123.406 -113.293 137.154C-103.687 145.599 -95.7044 155.301 -88.0007 164.688C-77.0715 177.993 -66.7225 190.577 -54.0994 195.659Z" fill="#CCCCCC"/>
<path d="M-42.3509 187.288C-48.4536 187.288 -54.1154 185.551 -61.1695 182.594C-72.9572 176.94 -82.4245 165.242 -92.4487 152.88C-98.3889 145.525 -104.561 137.93 -111.615 130.964C-121.477 120.024 -133.172 110.674 -144.449 101.619C-153.708 94.1903 -162.456 87.1867 -169.347 79.9614L-169.44 79.8505C-183.409 61.1127 -168.976 52.3721 -142.755 36.4985L-142.454 36.3137L-137.604 33.6712C-109.991 18.6847 -72.1682 -1.84562 -20.3534 -16.7213C40.8127 -32.2622 79.7492 -16.4256 94.5303 1.83173C110.332 21.3087 106.457 47.4566 81.1647 92.0837C62.7406 123.184 32.6681 151.143 -8.19441 175.184C-23.9964 183.722 -33.6262 187.288 -42.3509 187.288ZM-166.911 78.5385C-160.135 85.616 -151.48 92.5641 -142.314 99.9003C-130.944 109.011 -119.18 118.453 -109.225 129.485C-102.102 136.489 -95.9061 144.158 -89.9194 151.568C-80.104 163.709 -70.8224 175.166 -59.6844 180.506C-43.6271 187.27 -35.6217 187.14 -9.93472 173.225C30.4869 149.424 60.2346 121.78 78.4266 91.0673C103.232 47.2903 107.177 21.8076 92.001 3.10677C76.6631 -15.8343 36.2879 -28.6219 -19.402 -14.4853C-70.7992 0.27947 -108.436 20.6989 -135.91 35.63L-140.945 38.3834C-167.352 54.3678 -179.441 61.6855 -166.911 78.5385Z" fill="#CCCCCC"/>
<path d="M-44.5313 174.575C-51.3533 174.575 -57.7577 172.709 -64.9046 169.05L-64.951 169.031C-75.7177 163.155 -84.396 152.105 -93.5849 140.426C-97.8312 135.011 -102.24 129.431 -107.02 124.109C-113.401 116.311 -120.478 109.104 -127.324 102.156C-135.724 93.6183 -143.683 85.5429 -148.88 77.7078C-157.953 61.169 -144.68 52.5207 -121.755 40.1952C-98.1329 28.5533 -61.6328 11.9591 -16.8952 2.16518C25.8236 -4.83841 57.8221 0.779248 73.2993 17.9648C90.0062 36.4809 85.8527 65.8442 61.906 98.5337C36.8224 137.007 -2.83348 159.57 -14.3891 165.557C-26.6873 171.619 -35.9458 174.575 -44.5313 174.575ZM-63.2803 167.036C-49.9147 173.855 -39.4264 175.074 -16.0135 163.525C-4.64343 157.63 34.5019 135.363 59.2608 97.3695C82.6041 65.4931 86.8273 37.0722 70.8396 19.3692C56.0818 2.99673 25.1739 -2.2698 -16.2223 4.51203C-60.4958 14.2136 -96.7406 30.6784 -120.154 42.2279C-143.752 54.9046 -154.032 62.444 -146.212 76.6914C-141.177 84.2494 -133.31 92.2323 -124.98 100.696C-118.088 107.699 -110.965 114.925 -104.56 122.778C-99.7572 128.1 -95.3484 133.736 -91.0788 139.169C-82.0292 150.608 -73.5133 161.437 -63.2803 167.036Z" fill="#CCCCCC"/>
<path d="M-45.9716 162.968C-53.2113 162.968 -59.8709 160.991 -66.7857 157.036L-66.9713 156.907C-93.4473 135.564 -124.75 86.6863 -130.76 77.1141L-130.852 76.8924C-135.54 63.1809 -124.959 55.124 -103.82 45.0529C-83.9104 36.1459 -52.4688 24.3932 -15.6206 18.9049C18.3039 14.6547 43.7124 20.3832 55.9642 35.0372C69.5618 51.3173 65.4083 76.0608 44.5942 102.929C26.2629 128.837 -0.746735 147.483 -19.9134 156.279C-29.9375 160.751 -38.291 162.968 -45.9716 162.968ZM-64.9294 155.151C-51.6798 162.672 -39.8689 162.414 -21.4216 154.19C-2.60306 145.561 23.9193 127.229 41.9953 101.71C61.9045 76.0053 66.174 51.5944 53.4581 36.3677C41.9025 22.5268 17.5381 17.1494 -15.1101 21.2702C-51.5174 26.7031 -82.6109 38.3449 -102.311 47.141C-122.545 56.7686 -132.082 63.92 -127.998 76.1717C-110.734 103.669 -85.1402 138.816 -64.9294 155.151Z" fill="#CCCCCC"/>
<path d="M-47.0308 152.271C-54.781 152.271 -61.487 150.219 -66.5687 146.246C-86.8955 130.558 -108.058 97.4617 -114.3 77.5597C-115.321 72.9584 -113.859 68.4679 -110.007 64.1808C-98.1263 50.9682 -62.9256 39.5666 -15.8212 33.6903C10.7475 31.6391 30.5638 37.3122 40.0311 49.6747C50.7514 63.6819 46.8995 84.0643 29.4732 105.574C6.8028 132.794 -20.3228 150.164 -43.0861 152.086C-44.4319 152.215 -45.7546 152.271 -47.0308 152.271ZM-5.47218 35.6675C-8.67435 35.6675 -11.9925 35.7969 -15.4267 36.0741C-61.6494 41.8396 -96.1307 52.8716 -107.524 65.5852C-110.912 69.355 -112.188 73.2171 -111.329 77.0792C-105.204 96.5746 -84.4126 129.135 -64.4339 144.546C-59.1665 148.649 -51.8804 150.441 -43.3877 149.721C-21.5062 147.873 4.80724 130.89 26.9672 104.28C43.4885 83.8795 47.4332 63.9406 37.4787 50.9313C29.8445 40.971 14.785 35.6675 -5.47218 35.6675Z" fill="#CCCCCC"/>
<path d="M-46.4112 142.105C-53.6045 142.105 -59.9392 140.257 -64.8817 136.672C-82.5168 123.94 -98.8294 97.0162 -99.7575 79.073V79.036C-99.8735 62.4972 -65.3458 48.9151 -17.6845 46.7715C2.61913 46.3835 17.6786 51.7794 24.7559 62.0168C32.8773 73.751 29.5359 90.0311 15.5902 106.699C-1.65044 126.952 -23.2303 140.109 -42.1649 141.902C-43.6267 142.031 -45.0421 142.105 -46.4112 142.105ZM-96.741 78.9991C-95.8128 96.4064 -79.9876 122.536 -62.8397 134.898C-57.6188 138.687 -50.6111 140.276 -42.5361 139.518C-24.4601 137.8 -3.66917 125.031 13.0842 105.35C26.3802 89.4582 29.6752 74.0652 22.1106 63.144C15.5903 53.7381 1.52854 48.7488 -17.5685 49.1368C-62.7701 51.188 -96.8338 64.031 -96.741 78.9991Z" fill="#CCCCCC"/>
<path d="M-45.8916 132.479C-52.1799 132.479 -57.7953 130.945 -62.3201 127.933C-78.2149 117.419 -89.5154 96.1308 -87.0325 81.4215C-84.3409 67.3034 -55.4053 57.1769 -21.2488 58.3411C-6.25892 59.0248 4.78625 63.9402 9.89116 72.1634C15.7386 81.5878 13.0701 94.0981 2.53545 106.461C-9.90197 120.93 -26.3073 130.557 -41.3436 132.221C-42.8983 132.405 -44.4065 132.479 -45.8916 132.479ZM-26.6554 60.6509C-56.96 60.6509 -81.7188 69.5764 -84.0392 81.7726C-86.3596 95.5025 -75.3144 116.218 -60.3942 126.104C-55.4749 129.356 -49.0473 130.65 -41.7612 129.855C-27.5371 128.284 -11.9207 119.026 0.0526276 105.112C9.96079 93.4883 12.5596 81.865 7.19947 73.2167C2.60505 65.8066 -7.55834 61.3716 -21.388 60.7249C-23.1515 60.6879 -24.915 60.6509 -26.6554 60.6509Z" fill="#CCCCCC"/>
<path d="M-44.4713 123.276C-49.5298 123.276 -54.1242 122.112 -57.976 119.839C-71.3184 111.949 -78.8133 96.0752 -74.683 84.4519C-70.4831 72.9579 -48.6712 66.0467 -25.0726 68.7077C-14.6075 69.9458 -6.92695 74.0851 -3.44633 80.368C0.498375 87.4825 -1.45078 96.5003 -8.78329 105.112C-17.2064 114.942 -28.5068 121.447 -39.784 122.944C-41.3619 123.166 -42.9398 123.276 -44.4713 123.276ZM-71.7825 85.1171C-75.5416 95.6687 -68.3947 110.692 -56.1893 117.918C-51.8501 120.486 -46.3508 121.41 -40.2713 120.597C-29.9454 119.211 -19.0859 112.928 -11.2429 103.781C-4.51372 95.872 -2.68061 87.7042 -6.18443 81.3474C-9.22417 75.8406 -16.0926 72.2002 -25.4903 71.0915C-47.2789 68.6153 -68.0466 74.9166 -71.7825 85.1171Z" fill="#CCCCCC"/>
</g>
</svg>
